G75*
%MOIN*%
%OFA0B0*%
%FSLAX25Y25*%
%IPPOS*%
%LPD*%
%AMOC8*
5,1,8,0,0,1.08239X$1,22.5*
%
%ADD10C,0.00000*%
%ADD11C,0.00600*%
%ADD12C,0.00500*%
%ADD13R,0.02500X0.09000*%
%ADD14C,0.01200*%
%ADD15C,0.00400*%
%ADD16C,0.02000*%
%ADD17R,0.03000X0.42000*%
%ADD18R,0.02000X0.07500*%
%ADD19R,0.02000X0.03000*%
%ADD20R,0.02400X0.03400*%
%ADD21C,0.02400*%
%ADD22R,0.10000X0.02000*%
%ADD23R,0.03000X0.07500*%
D10*
X0003000Y0003000D02*
X0003000Y0193000D01*
X0393000Y0193000D01*
X0393000Y0003000D01*
X0003000Y0003000D01*
X0011701Y0018000D02*
X0011703Y0018158D01*
X0011709Y0018316D01*
X0011719Y0018474D01*
X0011733Y0018632D01*
X0011751Y0018789D01*
X0011772Y0018946D01*
X0011798Y0019102D01*
X0011828Y0019258D01*
X0011861Y0019413D01*
X0011899Y0019566D01*
X0011940Y0019719D01*
X0011985Y0019871D01*
X0012034Y0020022D01*
X0012087Y0020171D01*
X0012143Y0020319D01*
X0012203Y0020465D01*
X0012267Y0020610D01*
X0012335Y0020753D01*
X0012406Y0020895D01*
X0012480Y0021035D01*
X0012558Y0021172D01*
X0012640Y0021308D01*
X0012724Y0021442D01*
X0012813Y0021573D01*
X0012904Y0021702D01*
X0012999Y0021829D01*
X0013096Y0021954D01*
X0013197Y0022076D01*
X0013301Y0022195D01*
X0013408Y0022312D01*
X0013518Y0022426D01*
X0013631Y0022537D01*
X0013746Y0022646D01*
X0013864Y0022751D01*
X0013985Y0022853D01*
X0014108Y0022953D01*
X0014234Y0023049D01*
X0014362Y0023142D01*
X0014492Y0023232D01*
X0014625Y0023318D01*
X0014760Y0023402D01*
X0014896Y0023481D01*
X0015035Y0023558D01*
X0015176Y0023630D01*
X0015318Y0023700D01*
X0015462Y0023765D01*
X0015608Y0023827D01*
X0015755Y0023885D01*
X0015904Y0023940D01*
X0016054Y0023991D01*
X0016205Y0024038D01*
X0016357Y0024081D01*
X0016510Y0024120D01*
X0016665Y0024156D01*
X0016820Y0024187D01*
X0016976Y0024215D01*
X0017132Y0024239D01*
X0017289Y0024259D01*
X0017447Y0024275D01*
X0017604Y0024287D01*
X0017763Y0024295D01*
X0017921Y0024299D01*
X0018079Y0024299D01*
X0018237Y0024295D01*
X0018396Y0024287D01*
X0018553Y0024275D01*
X0018711Y0024259D01*
X0018868Y0024239D01*
X0019024Y0024215D01*
X0019180Y0024187D01*
X0019335Y0024156D01*
X0019490Y0024120D01*
X0019643Y0024081D01*
X0019795Y0024038D01*
X0019946Y0023991D01*
X0020096Y0023940D01*
X0020245Y0023885D01*
X0020392Y0023827D01*
X0020538Y0023765D01*
X0020682Y0023700D01*
X0020824Y0023630D01*
X0020965Y0023558D01*
X0021104Y0023481D01*
X0021240Y0023402D01*
X0021375Y0023318D01*
X0021508Y0023232D01*
X0021638Y0023142D01*
X0021766Y0023049D01*
X0021892Y0022953D01*
X0022015Y0022853D01*
X0022136Y0022751D01*
X0022254Y0022646D01*
X0022369Y0022537D01*
X0022482Y0022426D01*
X0022592Y0022312D01*
X0022699Y0022195D01*
X0022803Y0022076D01*
X0022904Y0021954D01*
X0023001Y0021829D01*
X0023096Y0021702D01*
X0023187Y0021573D01*
X0023276Y0021442D01*
X0023360Y0021308D01*
X0023442Y0021172D01*
X0023520Y0021035D01*
X0023594Y0020895D01*
X0023665Y0020753D01*
X0023733Y0020610D01*
X0023797Y0020465D01*
X0023857Y0020319D01*
X0023913Y0020171D01*
X0023966Y0020022D01*
X0024015Y0019871D01*
X0024060Y0019719D01*
X0024101Y0019566D01*
X0024139Y0019413D01*
X0024172Y0019258D01*
X0024202Y0019102D01*
X0024228Y0018946D01*
X0024249Y0018789D01*
X0024267Y0018632D01*
X0024281Y0018474D01*
X0024291Y0018316D01*
X0024297Y0018158D01*
X0024299Y0018000D01*
X0024297Y0017842D01*
X0024291Y0017684D01*
X0024281Y0017526D01*
X0024267Y0017368D01*
X0024249Y0017211D01*
X0024228Y0017054D01*
X0024202Y0016898D01*
X0024172Y0016742D01*
X0024139Y0016587D01*
X0024101Y0016434D01*
X0024060Y0016281D01*
X0024015Y0016129D01*
X0023966Y0015978D01*
X0023913Y0015829D01*
X0023857Y0015681D01*
X0023797Y0015535D01*
X0023733Y0015390D01*
X0023665Y0015247D01*
X0023594Y0015105D01*
X0023520Y0014965D01*
X0023442Y0014828D01*
X0023360Y0014692D01*
X0023276Y0014558D01*
X0023187Y0014427D01*
X0023096Y0014298D01*
X0023001Y0014171D01*
X0022904Y0014046D01*
X0022803Y0013924D01*
X0022699Y0013805D01*
X0022592Y0013688D01*
X0022482Y0013574D01*
X0022369Y0013463D01*
X0022254Y0013354D01*
X0022136Y0013249D01*
X0022015Y0013147D01*
X0021892Y0013047D01*
X0021766Y0012951D01*
X0021638Y0012858D01*
X0021508Y0012768D01*
X0021375Y0012682D01*
X0021240Y0012598D01*
X0021104Y0012519D01*
X0020965Y0012442D01*
X0020824Y0012370D01*
X0020682Y0012300D01*
X0020538Y0012235D01*
X0020392Y0012173D01*
X0020245Y0012115D01*
X0020096Y0012060D01*
X0019946Y0012009D01*
X0019795Y0011962D01*
X0019643Y0011919D01*
X0019490Y0011880D01*
X0019335Y0011844D01*
X0019180Y0011813D01*
X0019024Y0011785D01*
X0018868Y0011761D01*
X0018711Y0011741D01*
X0018553Y0011725D01*
X0018396Y0011713D01*
X0018237Y0011705D01*
X0018079Y0011701D01*
X0017921Y0011701D01*
X0017763Y0011705D01*
X0017604Y0011713D01*
X0017447Y0011725D01*
X0017289Y0011741D01*
X0017132Y0011761D01*
X0016976Y0011785D01*
X0016820Y0011813D01*
X0016665Y0011844D01*
X0016510Y0011880D01*
X0016357Y0011919D01*
X0016205Y0011962D01*
X0016054Y0012009D01*
X0015904Y0012060D01*
X0015755Y0012115D01*
X0015608Y0012173D01*
X0015462Y0012235D01*
X0015318Y0012300D01*
X0015176Y0012370D01*
X0015035Y0012442D01*
X0014896Y0012519D01*
X0014760Y0012598D01*
X0014625Y0012682D01*
X0014492Y0012768D01*
X0014362Y0012858D01*
X0014234Y0012951D01*
X0014108Y0013047D01*
X0013985Y0013147D01*
X0013864Y0013249D01*
X0013746Y0013354D01*
X0013631Y0013463D01*
X0013518Y0013574D01*
X0013408Y0013688D01*
X0013301Y0013805D01*
X0013197Y0013924D01*
X0013096Y0014046D01*
X0012999Y0014171D01*
X0012904Y0014298D01*
X0012813Y0014427D01*
X0012724Y0014558D01*
X0012640Y0014692D01*
X0012558Y0014828D01*
X0012480Y0014965D01*
X0012406Y0015105D01*
X0012335Y0015247D01*
X0012267Y0015390D01*
X0012203Y0015535D01*
X0012143Y0015681D01*
X0012087Y0015829D01*
X0012034Y0015978D01*
X0011985Y0016129D01*
X0011940Y0016281D01*
X0011899Y0016434D01*
X0011861Y0016587D01*
X0011828Y0016742D01*
X0011798Y0016898D01*
X0011772Y0017054D01*
X0011751Y0017211D01*
X0011733Y0017368D01*
X0011719Y0017526D01*
X0011709Y0017684D01*
X0011703Y0017842D01*
X0011701Y0018000D01*
X0156701Y0038000D02*
X0156703Y0038158D01*
X0156709Y0038316D01*
X0156719Y0038474D01*
X0156733Y0038632D01*
X0156751Y0038789D01*
X0156772Y0038946D01*
X0156798Y0039102D01*
X0156828Y0039258D01*
X0156861Y0039413D01*
X0156899Y0039566D01*
X0156940Y0039719D01*
X0156985Y0039871D01*
X0157034Y0040022D01*
X0157087Y0040171D01*
X0157143Y0040319D01*
X0157203Y0040465D01*
X0157267Y0040610D01*
X0157335Y0040753D01*
X0157406Y0040895D01*
X0157480Y0041035D01*
X0157558Y0041172D01*
X0157640Y0041308D01*
X0157724Y0041442D01*
X0157813Y0041573D01*
X0157904Y0041702D01*
X0157999Y0041829D01*
X0158096Y0041954D01*
X0158197Y0042076D01*
X0158301Y0042195D01*
X0158408Y0042312D01*
X0158518Y0042426D01*
X0158631Y0042537D01*
X0158746Y0042646D01*
X0158864Y0042751D01*
X0158985Y0042853D01*
X0159108Y0042953D01*
X0159234Y0043049D01*
X0159362Y0043142D01*
X0159492Y0043232D01*
X0159625Y0043318D01*
X0159760Y0043402D01*
X0159896Y0043481D01*
X0160035Y0043558D01*
X0160176Y0043630D01*
X0160318Y0043700D01*
X0160462Y0043765D01*
X0160608Y0043827D01*
X0160755Y0043885D01*
X0160904Y0043940D01*
X0161054Y0043991D01*
X0161205Y0044038D01*
X0161357Y0044081D01*
X0161510Y0044120D01*
X0161665Y0044156D01*
X0161820Y0044187D01*
X0161976Y0044215D01*
X0162132Y0044239D01*
X0162289Y0044259D01*
X0162447Y0044275D01*
X0162604Y0044287D01*
X0162763Y0044295D01*
X0162921Y0044299D01*
X0163079Y0044299D01*
X0163237Y0044295D01*
X0163396Y0044287D01*
X0163553Y0044275D01*
X0163711Y0044259D01*
X0163868Y0044239D01*
X0164024Y0044215D01*
X0164180Y0044187D01*
X0164335Y0044156D01*
X0164490Y0044120D01*
X0164643Y0044081D01*
X0164795Y0044038D01*
X0164946Y0043991D01*
X0165096Y0043940D01*
X0165245Y0043885D01*
X0165392Y0043827D01*
X0165538Y0043765D01*
X0165682Y0043700D01*
X0165824Y0043630D01*
X0165965Y0043558D01*
X0166104Y0043481D01*
X0166240Y0043402D01*
X0166375Y0043318D01*
X0166508Y0043232D01*
X0166638Y0043142D01*
X0166766Y0043049D01*
X0166892Y0042953D01*
X0167015Y0042853D01*
X0167136Y0042751D01*
X0167254Y0042646D01*
X0167369Y0042537D01*
X0167482Y0042426D01*
X0167592Y0042312D01*
X0167699Y0042195D01*
X0167803Y0042076D01*
X0167904Y0041954D01*
X0168001Y0041829D01*
X0168096Y0041702D01*
X0168187Y0041573D01*
X0168276Y0041442D01*
X0168360Y0041308D01*
X0168442Y0041172D01*
X0168520Y0041035D01*
X0168594Y0040895D01*
X0168665Y0040753D01*
X0168733Y0040610D01*
X0168797Y0040465D01*
X0168857Y0040319D01*
X0168913Y0040171D01*
X0168966Y0040022D01*
X0169015Y0039871D01*
X0169060Y0039719D01*
X0169101Y0039566D01*
X0169139Y0039413D01*
X0169172Y0039258D01*
X0169202Y0039102D01*
X0169228Y0038946D01*
X0169249Y0038789D01*
X0169267Y0038632D01*
X0169281Y0038474D01*
X0169291Y0038316D01*
X0169297Y0038158D01*
X0169299Y0038000D01*
X0169297Y0037842D01*
X0169291Y0037684D01*
X0169281Y0037526D01*
X0169267Y0037368D01*
X0169249Y0037211D01*
X0169228Y0037054D01*
X0169202Y0036898D01*
X0169172Y0036742D01*
X0169139Y0036587D01*
X0169101Y0036434D01*
X0169060Y0036281D01*
X0169015Y0036129D01*
X0168966Y0035978D01*
X0168913Y0035829D01*
X0168857Y0035681D01*
X0168797Y0035535D01*
X0168733Y0035390D01*
X0168665Y0035247D01*
X0168594Y0035105D01*
X0168520Y0034965D01*
X0168442Y0034828D01*
X0168360Y0034692D01*
X0168276Y0034558D01*
X0168187Y0034427D01*
X0168096Y0034298D01*
X0168001Y0034171D01*
X0167904Y0034046D01*
X0167803Y0033924D01*
X0167699Y0033805D01*
X0167592Y0033688D01*
X0167482Y0033574D01*
X0167369Y0033463D01*
X0167254Y0033354D01*
X0167136Y0033249D01*
X0167015Y0033147D01*
X0166892Y0033047D01*
X0166766Y0032951D01*
X0166638Y0032858D01*
X0166508Y0032768D01*
X0166375Y0032682D01*
X0166240Y0032598D01*
X0166104Y0032519D01*
X0165965Y0032442D01*
X0165824Y0032370D01*
X0165682Y0032300D01*
X0165538Y0032235D01*
X0165392Y0032173D01*
X0165245Y0032115D01*
X0165096Y0032060D01*
X0164946Y0032009D01*
X0164795Y0031962D01*
X0164643Y0031919D01*
X0164490Y0031880D01*
X0164335Y0031844D01*
X0164180Y0031813D01*
X0164024Y0031785D01*
X0163868Y0031761D01*
X0163711Y0031741D01*
X0163553Y0031725D01*
X0163396Y0031713D01*
X0163237Y0031705D01*
X0163079Y0031701D01*
X0162921Y0031701D01*
X0162763Y0031705D01*
X0162604Y0031713D01*
X0162447Y0031725D01*
X0162289Y0031741D01*
X0162132Y0031761D01*
X0161976Y0031785D01*
X0161820Y0031813D01*
X0161665Y0031844D01*
X0161510Y0031880D01*
X0161357Y0031919D01*
X0161205Y0031962D01*
X0161054Y0032009D01*
X0160904Y0032060D01*
X0160755Y0032115D01*
X0160608Y0032173D01*
X0160462Y0032235D01*
X0160318Y0032300D01*
X0160176Y0032370D01*
X0160035Y0032442D01*
X0159896Y0032519D01*
X0159760Y0032598D01*
X0159625Y0032682D01*
X0159492Y0032768D01*
X0159362Y0032858D01*
X0159234Y0032951D01*
X0159108Y0033047D01*
X0158985Y0033147D01*
X0158864Y0033249D01*
X0158746Y0033354D01*
X0158631Y0033463D01*
X0158518Y0033574D01*
X0158408Y0033688D01*
X0158301Y0033805D01*
X0158197Y0033924D01*
X0158096Y0034046D01*
X0157999Y0034171D01*
X0157904Y0034298D01*
X0157813Y0034427D01*
X0157724Y0034558D01*
X0157640Y0034692D01*
X0157558Y0034828D01*
X0157480Y0034965D01*
X0157406Y0035105D01*
X0157335Y0035247D01*
X0157267Y0035390D01*
X0157203Y0035535D01*
X0157143Y0035681D01*
X0157087Y0035829D01*
X0157034Y0035978D01*
X0156985Y0036129D01*
X0156940Y0036281D01*
X0156899Y0036434D01*
X0156861Y0036587D01*
X0156828Y0036742D01*
X0156798Y0036898D01*
X0156772Y0037054D01*
X0156751Y0037211D01*
X0156733Y0037368D01*
X0156719Y0037526D01*
X0156709Y0037684D01*
X0156703Y0037842D01*
X0156701Y0038000D01*
X0336701Y0018000D02*
X0336703Y0018158D01*
X0336709Y0018316D01*
X0336719Y0018474D01*
X0336733Y0018632D01*
X0336751Y0018789D01*
X0336772Y0018946D01*
X0336798Y0019102D01*
X0336828Y0019258D01*
X0336861Y0019413D01*
X0336899Y0019566D01*
X0336940Y0019719D01*
X0336985Y0019871D01*
X0337034Y0020022D01*
X0337087Y0020171D01*
X0337143Y0020319D01*
X0337203Y0020465D01*
X0337267Y0020610D01*
X0337335Y0020753D01*
X0337406Y0020895D01*
X0337480Y0021035D01*
X0337558Y0021172D01*
X0337640Y0021308D01*
X0337724Y0021442D01*
X0337813Y0021573D01*
X0337904Y0021702D01*
X0337999Y0021829D01*
X0338096Y0021954D01*
X0338197Y0022076D01*
X0338301Y0022195D01*
X0338408Y0022312D01*
X0338518Y0022426D01*
X0338631Y0022537D01*
X0338746Y0022646D01*
X0338864Y0022751D01*
X0338985Y0022853D01*
X0339108Y0022953D01*
X0339234Y0023049D01*
X0339362Y0023142D01*
X0339492Y0023232D01*
X0339625Y0023318D01*
X0339760Y0023402D01*
X0339896Y0023481D01*
X0340035Y0023558D01*
X0340176Y0023630D01*
X0340318Y0023700D01*
X0340462Y0023765D01*
X0340608Y0023827D01*
X0340755Y0023885D01*
X0340904Y0023940D01*
X0341054Y0023991D01*
X0341205Y0024038D01*
X0341357Y0024081D01*
X0341510Y0024120D01*
X0341665Y0024156D01*
X0341820Y0024187D01*
X0341976Y0024215D01*
X0342132Y0024239D01*
X0342289Y0024259D01*
X0342447Y0024275D01*
X0342604Y0024287D01*
X0342763Y0024295D01*
X0342921Y0024299D01*
X0343079Y0024299D01*
X0343237Y0024295D01*
X0343396Y0024287D01*
X0343553Y0024275D01*
X0343711Y0024259D01*
X0343868Y0024239D01*
X0344024Y0024215D01*
X0344180Y0024187D01*
X0344335Y0024156D01*
X0344490Y0024120D01*
X0344643Y0024081D01*
X0344795Y0024038D01*
X0344946Y0023991D01*
X0345096Y0023940D01*
X0345245Y0023885D01*
X0345392Y0023827D01*
X0345538Y0023765D01*
X0345682Y0023700D01*
X0345824Y0023630D01*
X0345965Y0023558D01*
X0346104Y0023481D01*
X0346240Y0023402D01*
X0346375Y0023318D01*
X0346508Y0023232D01*
X0346638Y0023142D01*
X0346766Y0023049D01*
X0346892Y0022953D01*
X0347015Y0022853D01*
X0347136Y0022751D01*
X0347254Y0022646D01*
X0347369Y0022537D01*
X0347482Y0022426D01*
X0347592Y0022312D01*
X0347699Y0022195D01*
X0347803Y0022076D01*
X0347904Y0021954D01*
X0348001Y0021829D01*
X0348096Y0021702D01*
X0348187Y0021573D01*
X0348276Y0021442D01*
X0348360Y0021308D01*
X0348442Y0021172D01*
X0348520Y0021035D01*
X0348594Y0020895D01*
X0348665Y0020753D01*
X0348733Y0020610D01*
X0348797Y0020465D01*
X0348857Y0020319D01*
X0348913Y0020171D01*
X0348966Y0020022D01*
X0349015Y0019871D01*
X0349060Y0019719D01*
X0349101Y0019566D01*
X0349139Y0019413D01*
X0349172Y0019258D01*
X0349202Y0019102D01*
X0349228Y0018946D01*
X0349249Y0018789D01*
X0349267Y0018632D01*
X0349281Y0018474D01*
X0349291Y0018316D01*
X0349297Y0018158D01*
X0349299Y0018000D01*
X0349297Y0017842D01*
X0349291Y0017684D01*
X0349281Y0017526D01*
X0349267Y0017368D01*
X0349249Y0017211D01*
X0349228Y0017054D01*
X0349202Y0016898D01*
X0349172Y0016742D01*
X0349139Y0016587D01*
X0349101Y0016434D01*
X0349060Y0016281D01*
X0349015Y0016129D01*
X0348966Y0015978D01*
X0348913Y0015829D01*
X0348857Y0015681D01*
X0348797Y0015535D01*
X0348733Y0015390D01*
X0348665Y0015247D01*
X0348594Y0015105D01*
X0348520Y0014965D01*
X0348442Y0014828D01*
X0348360Y0014692D01*
X0348276Y0014558D01*
X0348187Y0014427D01*
X0348096Y0014298D01*
X0348001Y0014171D01*
X0347904Y0014046D01*
X0347803Y0013924D01*
X0347699Y0013805D01*
X0347592Y0013688D01*
X0347482Y0013574D01*
X0347369Y0013463D01*
X0347254Y0013354D01*
X0347136Y0013249D01*
X0347015Y0013147D01*
X0346892Y0013047D01*
X0346766Y0012951D01*
X0346638Y0012858D01*
X0346508Y0012768D01*
X0346375Y0012682D01*
X0346240Y0012598D01*
X0346104Y0012519D01*
X0345965Y0012442D01*
X0345824Y0012370D01*
X0345682Y0012300D01*
X0345538Y0012235D01*
X0345392Y0012173D01*
X0345245Y0012115D01*
X0345096Y0012060D01*
X0344946Y0012009D01*
X0344795Y0011962D01*
X0344643Y0011919D01*
X0344490Y0011880D01*
X0344335Y0011844D01*
X0344180Y0011813D01*
X0344024Y0011785D01*
X0343868Y0011761D01*
X0343711Y0011741D01*
X0343553Y0011725D01*
X0343396Y0011713D01*
X0343237Y0011705D01*
X0343079Y0011701D01*
X0342921Y0011701D01*
X0342763Y0011705D01*
X0342604Y0011713D01*
X0342447Y0011725D01*
X0342289Y0011741D01*
X0342132Y0011761D01*
X0341976Y0011785D01*
X0341820Y0011813D01*
X0341665Y0011844D01*
X0341510Y0011880D01*
X0341357Y0011919D01*
X0341205Y0011962D01*
X0341054Y0012009D01*
X0340904Y0012060D01*
X0340755Y0012115D01*
X0340608Y0012173D01*
X0340462Y0012235D01*
X0340318Y0012300D01*
X0340176Y0012370D01*
X0340035Y0012442D01*
X0339896Y0012519D01*
X0339760Y0012598D01*
X0339625Y0012682D01*
X0339492Y0012768D01*
X0339362Y0012858D01*
X0339234Y0012951D01*
X0339108Y0013047D01*
X0338985Y0013147D01*
X0338864Y0013249D01*
X0338746Y0013354D01*
X0338631Y0013463D01*
X0338518Y0013574D01*
X0338408Y0013688D01*
X0338301Y0013805D01*
X0338197Y0013924D01*
X0338096Y0014046D01*
X0337999Y0014171D01*
X0337904Y0014298D01*
X0337813Y0014427D01*
X0337724Y0014558D01*
X0337640Y0014692D01*
X0337558Y0014828D01*
X0337480Y0014965D01*
X0337406Y0015105D01*
X0337335Y0015247D01*
X0337267Y0015390D01*
X0337203Y0015535D01*
X0337143Y0015681D01*
X0337087Y0015829D01*
X0337034Y0015978D01*
X0336985Y0016129D01*
X0336940Y0016281D01*
X0336899Y0016434D01*
X0336861Y0016587D01*
X0336828Y0016742D01*
X0336798Y0016898D01*
X0336772Y0017054D01*
X0336751Y0017211D01*
X0336733Y0017368D01*
X0336719Y0017526D01*
X0336709Y0017684D01*
X0336703Y0017842D01*
X0336701Y0018000D01*
X0276701Y0178000D02*
X0276703Y0178158D01*
X0276709Y0178316D01*
X0276719Y0178474D01*
X0276733Y0178632D01*
X0276751Y0178789D01*
X0276772Y0178946D01*
X0276798Y0179102D01*
X0276828Y0179258D01*
X0276861Y0179413D01*
X0276899Y0179566D01*
X0276940Y0179719D01*
X0276985Y0179871D01*
X0277034Y0180022D01*
X0277087Y0180171D01*
X0277143Y0180319D01*
X0277203Y0180465D01*
X0277267Y0180610D01*
X0277335Y0180753D01*
X0277406Y0180895D01*
X0277480Y0181035D01*
X0277558Y0181172D01*
X0277640Y0181308D01*
X0277724Y0181442D01*
X0277813Y0181573D01*
X0277904Y0181702D01*
X0277999Y0181829D01*
X0278096Y0181954D01*
X0278197Y0182076D01*
X0278301Y0182195D01*
X0278408Y0182312D01*
X0278518Y0182426D01*
X0278631Y0182537D01*
X0278746Y0182646D01*
X0278864Y0182751D01*
X0278985Y0182853D01*
X0279108Y0182953D01*
X0279234Y0183049D01*
X0279362Y0183142D01*
X0279492Y0183232D01*
X0279625Y0183318D01*
X0279760Y0183402D01*
X0279896Y0183481D01*
X0280035Y0183558D01*
X0280176Y0183630D01*
X0280318Y0183700D01*
X0280462Y0183765D01*
X0280608Y0183827D01*
X0280755Y0183885D01*
X0280904Y0183940D01*
X0281054Y0183991D01*
X0281205Y0184038D01*
X0281357Y0184081D01*
X0281510Y0184120D01*
X0281665Y0184156D01*
X0281820Y0184187D01*
X0281976Y0184215D01*
X0282132Y0184239D01*
X0282289Y0184259D01*
X0282447Y0184275D01*
X0282604Y0184287D01*
X0282763Y0184295D01*
X0282921Y0184299D01*
X0283079Y0184299D01*
X0283237Y0184295D01*
X0283396Y0184287D01*
X0283553Y0184275D01*
X0283711Y0184259D01*
X0283868Y0184239D01*
X0284024Y0184215D01*
X0284180Y0184187D01*
X0284335Y0184156D01*
X0284490Y0184120D01*
X0284643Y0184081D01*
X0284795Y0184038D01*
X0284946Y0183991D01*
X0285096Y0183940D01*
X0285245Y0183885D01*
X0285392Y0183827D01*
X0285538Y0183765D01*
X0285682Y0183700D01*
X0285824Y0183630D01*
X0285965Y0183558D01*
X0286104Y0183481D01*
X0286240Y0183402D01*
X0286375Y0183318D01*
X0286508Y0183232D01*
X0286638Y0183142D01*
X0286766Y0183049D01*
X0286892Y0182953D01*
X0287015Y0182853D01*
X0287136Y0182751D01*
X0287254Y0182646D01*
X0287369Y0182537D01*
X0287482Y0182426D01*
X0287592Y0182312D01*
X0287699Y0182195D01*
X0287803Y0182076D01*
X0287904Y0181954D01*
X0288001Y0181829D01*
X0288096Y0181702D01*
X0288187Y0181573D01*
X0288276Y0181442D01*
X0288360Y0181308D01*
X0288442Y0181172D01*
X0288520Y0181035D01*
X0288594Y0180895D01*
X0288665Y0180753D01*
X0288733Y0180610D01*
X0288797Y0180465D01*
X0288857Y0180319D01*
X0288913Y0180171D01*
X0288966Y0180022D01*
X0289015Y0179871D01*
X0289060Y0179719D01*
X0289101Y0179566D01*
X0289139Y0179413D01*
X0289172Y0179258D01*
X0289202Y0179102D01*
X0289228Y0178946D01*
X0289249Y0178789D01*
X0289267Y0178632D01*
X0289281Y0178474D01*
X0289291Y0178316D01*
X0289297Y0178158D01*
X0289299Y0178000D01*
X0289297Y0177842D01*
X0289291Y0177684D01*
X0289281Y0177526D01*
X0289267Y0177368D01*
X0289249Y0177211D01*
X0289228Y0177054D01*
X0289202Y0176898D01*
X0289172Y0176742D01*
X0289139Y0176587D01*
X0289101Y0176434D01*
X0289060Y0176281D01*
X0289015Y0176129D01*
X0288966Y0175978D01*
X0288913Y0175829D01*
X0288857Y0175681D01*
X0288797Y0175535D01*
X0288733Y0175390D01*
X0288665Y0175247D01*
X0288594Y0175105D01*
X0288520Y0174965D01*
X0288442Y0174828D01*
X0288360Y0174692D01*
X0288276Y0174558D01*
X0288187Y0174427D01*
X0288096Y0174298D01*
X0288001Y0174171D01*
X0287904Y0174046D01*
X0287803Y0173924D01*
X0287699Y0173805D01*
X0287592Y0173688D01*
X0287482Y0173574D01*
X0287369Y0173463D01*
X0287254Y0173354D01*
X0287136Y0173249D01*
X0287015Y0173147D01*
X0286892Y0173047D01*
X0286766Y0172951D01*
X0286638Y0172858D01*
X0286508Y0172768D01*
X0286375Y0172682D01*
X0286240Y0172598D01*
X0286104Y0172519D01*
X0285965Y0172442D01*
X0285824Y0172370D01*
X0285682Y0172300D01*
X0285538Y0172235D01*
X0285392Y0172173D01*
X0285245Y0172115D01*
X0285096Y0172060D01*
X0284946Y0172009D01*
X0284795Y0171962D01*
X0284643Y0171919D01*
X0284490Y0171880D01*
X0284335Y0171844D01*
X0284180Y0171813D01*
X0284024Y0171785D01*
X0283868Y0171761D01*
X0283711Y0171741D01*
X0283553Y0171725D01*
X0283396Y0171713D01*
X0283237Y0171705D01*
X0283079Y0171701D01*
X0282921Y0171701D01*
X0282763Y0171705D01*
X0282604Y0171713D01*
X0282447Y0171725D01*
X0282289Y0171741D01*
X0282132Y0171761D01*
X0281976Y0171785D01*
X0281820Y0171813D01*
X0281665Y0171844D01*
X0281510Y0171880D01*
X0281357Y0171919D01*
X0281205Y0171962D01*
X0281054Y0172009D01*
X0280904Y0172060D01*
X0280755Y0172115D01*
X0280608Y0172173D01*
X0280462Y0172235D01*
X0280318Y0172300D01*
X0280176Y0172370D01*
X0280035Y0172442D01*
X0279896Y0172519D01*
X0279760Y0172598D01*
X0279625Y0172682D01*
X0279492Y0172768D01*
X0279362Y0172858D01*
X0279234Y0172951D01*
X0279108Y0173047D01*
X0278985Y0173147D01*
X0278864Y0173249D01*
X0278746Y0173354D01*
X0278631Y0173463D01*
X0278518Y0173574D01*
X0278408Y0173688D01*
X0278301Y0173805D01*
X0278197Y0173924D01*
X0278096Y0174046D01*
X0277999Y0174171D01*
X0277904Y0174298D01*
X0277813Y0174427D01*
X0277724Y0174558D01*
X0277640Y0174692D01*
X0277558Y0174828D01*
X0277480Y0174965D01*
X0277406Y0175105D01*
X0277335Y0175247D01*
X0277267Y0175390D01*
X0277203Y0175535D01*
X0277143Y0175681D01*
X0277087Y0175829D01*
X0277034Y0175978D01*
X0276985Y0176129D01*
X0276940Y0176281D01*
X0276899Y0176434D01*
X0276861Y0176587D01*
X0276828Y0176742D01*
X0276798Y0176898D01*
X0276772Y0177054D01*
X0276751Y0177211D01*
X0276733Y0177368D01*
X0276719Y0177526D01*
X0276709Y0177684D01*
X0276703Y0177842D01*
X0276701Y0178000D01*
X0146701Y0178000D02*
X0146703Y0178158D01*
X0146709Y0178316D01*
X0146719Y0178474D01*
X0146733Y0178632D01*
X0146751Y0178789D01*
X0146772Y0178946D01*
X0146798Y0179102D01*
X0146828Y0179258D01*
X0146861Y0179413D01*
X0146899Y0179566D01*
X0146940Y0179719D01*
X0146985Y0179871D01*
X0147034Y0180022D01*
X0147087Y0180171D01*
X0147143Y0180319D01*
X0147203Y0180465D01*
X0147267Y0180610D01*
X0147335Y0180753D01*
X0147406Y0180895D01*
X0147480Y0181035D01*
X0147558Y0181172D01*
X0147640Y0181308D01*
X0147724Y0181442D01*
X0147813Y0181573D01*
X0147904Y0181702D01*
X0147999Y0181829D01*
X0148096Y0181954D01*
X0148197Y0182076D01*
X0148301Y0182195D01*
X0148408Y0182312D01*
X0148518Y0182426D01*
X0148631Y0182537D01*
X0148746Y0182646D01*
X0148864Y0182751D01*
X0148985Y0182853D01*
X0149108Y0182953D01*
X0149234Y0183049D01*
X0149362Y0183142D01*
X0149492Y0183232D01*
X0149625Y0183318D01*
X0149760Y0183402D01*
X0149896Y0183481D01*
X0150035Y0183558D01*
X0150176Y0183630D01*
X0150318Y0183700D01*
X0150462Y0183765D01*
X0150608Y0183827D01*
X0150755Y0183885D01*
X0150904Y0183940D01*
X0151054Y0183991D01*
X0151205Y0184038D01*
X0151357Y0184081D01*
X0151510Y0184120D01*
X0151665Y0184156D01*
X0151820Y0184187D01*
X0151976Y0184215D01*
X0152132Y0184239D01*
X0152289Y0184259D01*
X0152447Y0184275D01*
X0152604Y0184287D01*
X0152763Y0184295D01*
X0152921Y0184299D01*
X0153079Y0184299D01*
X0153237Y0184295D01*
X0153396Y0184287D01*
X0153553Y0184275D01*
X0153711Y0184259D01*
X0153868Y0184239D01*
X0154024Y0184215D01*
X0154180Y0184187D01*
X0154335Y0184156D01*
X0154490Y0184120D01*
X0154643Y0184081D01*
X0154795Y0184038D01*
X0154946Y0183991D01*
X0155096Y0183940D01*
X0155245Y0183885D01*
X0155392Y0183827D01*
X0155538Y0183765D01*
X0155682Y0183700D01*
X0155824Y0183630D01*
X0155965Y0183558D01*
X0156104Y0183481D01*
X0156240Y0183402D01*
X0156375Y0183318D01*
X0156508Y0183232D01*
X0156638Y0183142D01*
X0156766Y0183049D01*
X0156892Y0182953D01*
X0157015Y0182853D01*
X0157136Y0182751D01*
X0157254Y0182646D01*
X0157369Y0182537D01*
X0157482Y0182426D01*
X0157592Y0182312D01*
X0157699Y0182195D01*
X0157803Y0182076D01*
X0157904Y0181954D01*
X0158001Y0181829D01*
X0158096Y0181702D01*
X0158187Y0181573D01*
X0158276Y0181442D01*
X0158360Y0181308D01*
X0158442Y0181172D01*
X0158520Y0181035D01*
X0158594Y0180895D01*
X0158665Y0180753D01*
X0158733Y0180610D01*
X0158797Y0180465D01*
X0158857Y0180319D01*
X0158913Y0180171D01*
X0158966Y0180022D01*
X0159015Y0179871D01*
X0159060Y0179719D01*
X0159101Y0179566D01*
X0159139Y0179413D01*
X0159172Y0179258D01*
X0159202Y0179102D01*
X0159228Y0178946D01*
X0159249Y0178789D01*
X0159267Y0178632D01*
X0159281Y0178474D01*
X0159291Y0178316D01*
X0159297Y0178158D01*
X0159299Y0178000D01*
X0159297Y0177842D01*
X0159291Y0177684D01*
X0159281Y0177526D01*
X0159267Y0177368D01*
X0159249Y0177211D01*
X0159228Y0177054D01*
X0159202Y0176898D01*
X0159172Y0176742D01*
X0159139Y0176587D01*
X0159101Y0176434D01*
X0159060Y0176281D01*
X0159015Y0176129D01*
X0158966Y0175978D01*
X0158913Y0175829D01*
X0158857Y0175681D01*
X0158797Y0175535D01*
X0158733Y0175390D01*
X0158665Y0175247D01*
X0158594Y0175105D01*
X0158520Y0174965D01*
X0158442Y0174828D01*
X0158360Y0174692D01*
X0158276Y0174558D01*
X0158187Y0174427D01*
X0158096Y0174298D01*
X0158001Y0174171D01*
X0157904Y0174046D01*
X0157803Y0173924D01*
X0157699Y0173805D01*
X0157592Y0173688D01*
X0157482Y0173574D01*
X0157369Y0173463D01*
X0157254Y0173354D01*
X0157136Y0173249D01*
X0157015Y0173147D01*
X0156892Y0173047D01*
X0156766Y0172951D01*
X0156638Y0172858D01*
X0156508Y0172768D01*
X0156375Y0172682D01*
X0156240Y0172598D01*
X0156104Y0172519D01*
X0155965Y0172442D01*
X0155824Y0172370D01*
X0155682Y0172300D01*
X0155538Y0172235D01*
X0155392Y0172173D01*
X0155245Y0172115D01*
X0155096Y0172060D01*
X0154946Y0172009D01*
X0154795Y0171962D01*
X0154643Y0171919D01*
X0154490Y0171880D01*
X0154335Y0171844D01*
X0154180Y0171813D01*
X0154024Y0171785D01*
X0153868Y0171761D01*
X0153711Y0171741D01*
X0153553Y0171725D01*
X0153396Y0171713D01*
X0153237Y0171705D01*
X0153079Y0171701D01*
X0152921Y0171701D01*
X0152763Y0171705D01*
X0152604Y0171713D01*
X0152447Y0171725D01*
X0152289Y0171741D01*
X0152132Y0171761D01*
X0151976Y0171785D01*
X0151820Y0171813D01*
X0151665Y0171844D01*
X0151510Y0171880D01*
X0151357Y0171919D01*
X0151205Y0171962D01*
X0151054Y0172009D01*
X0150904Y0172060D01*
X0150755Y0172115D01*
X0150608Y0172173D01*
X0150462Y0172235D01*
X0150318Y0172300D01*
X0150176Y0172370D01*
X0150035Y0172442D01*
X0149896Y0172519D01*
X0149760Y0172598D01*
X0149625Y0172682D01*
X0149492Y0172768D01*
X0149362Y0172858D01*
X0149234Y0172951D01*
X0149108Y0173047D01*
X0148985Y0173147D01*
X0148864Y0173249D01*
X0148746Y0173354D01*
X0148631Y0173463D01*
X0148518Y0173574D01*
X0148408Y0173688D01*
X0148301Y0173805D01*
X0148197Y0173924D01*
X0148096Y0174046D01*
X0147999Y0174171D01*
X0147904Y0174298D01*
X0147813Y0174427D01*
X0147724Y0174558D01*
X0147640Y0174692D01*
X0147558Y0174828D01*
X0147480Y0174965D01*
X0147406Y0175105D01*
X0147335Y0175247D01*
X0147267Y0175390D01*
X0147203Y0175535D01*
X0147143Y0175681D01*
X0147087Y0175829D01*
X0147034Y0175978D01*
X0146985Y0176129D01*
X0146940Y0176281D01*
X0146899Y0176434D01*
X0146861Y0176587D01*
X0146828Y0176742D01*
X0146798Y0176898D01*
X0146772Y0177054D01*
X0146751Y0177211D01*
X0146733Y0177368D01*
X0146719Y0177526D01*
X0146709Y0177684D01*
X0146703Y0177842D01*
X0146701Y0178000D01*
X0011701Y0178000D02*
X0011703Y0178158D01*
X0011709Y0178316D01*
X0011719Y0178474D01*
X0011733Y0178632D01*
X0011751Y0178789D01*
X0011772Y0178946D01*
X0011798Y0179102D01*
X0011828Y0179258D01*
X0011861Y0179413D01*
X0011899Y0179566D01*
X0011940Y0179719D01*
X0011985Y0179871D01*
X0012034Y0180022D01*
X0012087Y0180171D01*
X0012143Y0180319D01*
X0012203Y0180465D01*
X0012267Y0180610D01*
X0012335Y0180753D01*
X0012406Y0180895D01*
X0012480Y0181035D01*
X0012558Y0181172D01*
X0012640Y0181308D01*
X0012724Y0181442D01*
X0012813Y0181573D01*
X0012904Y0181702D01*
X0012999Y0181829D01*
X0013096Y0181954D01*
X0013197Y0182076D01*
X0013301Y0182195D01*
X0013408Y0182312D01*
X0013518Y0182426D01*
X0013631Y0182537D01*
X0013746Y0182646D01*
X0013864Y0182751D01*
X0013985Y0182853D01*
X0014108Y0182953D01*
X0014234Y0183049D01*
X0014362Y0183142D01*
X0014492Y0183232D01*
X0014625Y0183318D01*
X0014760Y0183402D01*
X0014896Y0183481D01*
X0015035Y0183558D01*
X0015176Y0183630D01*
X0015318Y0183700D01*
X0015462Y0183765D01*
X0015608Y0183827D01*
X0015755Y0183885D01*
X0015904Y0183940D01*
X0016054Y0183991D01*
X0016205Y0184038D01*
X0016357Y0184081D01*
X0016510Y0184120D01*
X0016665Y0184156D01*
X0016820Y0184187D01*
X0016976Y0184215D01*
X0017132Y0184239D01*
X0017289Y0184259D01*
X0017447Y0184275D01*
X0017604Y0184287D01*
X0017763Y0184295D01*
X0017921Y0184299D01*
X0018079Y0184299D01*
X0018237Y0184295D01*
X0018396Y0184287D01*
X0018553Y0184275D01*
X0018711Y0184259D01*
X0018868Y0184239D01*
X0019024Y0184215D01*
X0019180Y0184187D01*
X0019335Y0184156D01*
X0019490Y0184120D01*
X0019643Y0184081D01*
X0019795Y0184038D01*
X0019946Y0183991D01*
X0020096Y0183940D01*
X0020245Y0183885D01*
X0020392Y0183827D01*
X0020538Y0183765D01*
X0020682Y0183700D01*
X0020824Y0183630D01*
X0020965Y0183558D01*
X0021104Y0183481D01*
X0021240Y0183402D01*
X0021375Y0183318D01*
X0021508Y0183232D01*
X0021638Y0183142D01*
X0021766Y0183049D01*
X0021892Y0182953D01*
X0022015Y0182853D01*
X0022136Y0182751D01*
X0022254Y0182646D01*
X0022369Y0182537D01*
X0022482Y0182426D01*
X0022592Y0182312D01*
X0022699Y0182195D01*
X0022803Y0182076D01*
X0022904Y0181954D01*
X0023001Y0181829D01*
X0023096Y0181702D01*
X0023187Y0181573D01*
X0023276Y0181442D01*
X0023360Y0181308D01*
X0023442Y0181172D01*
X0023520Y0181035D01*
X0023594Y0180895D01*
X0023665Y0180753D01*
X0023733Y0180610D01*
X0023797Y0180465D01*
X0023857Y0180319D01*
X0023913Y0180171D01*
X0023966Y0180022D01*
X0024015Y0179871D01*
X0024060Y0179719D01*
X0024101Y0179566D01*
X0024139Y0179413D01*
X0024172Y0179258D01*
X0024202Y0179102D01*
X0024228Y0178946D01*
X0024249Y0178789D01*
X0024267Y0178632D01*
X0024281Y0178474D01*
X0024291Y0178316D01*
X0024297Y0178158D01*
X0024299Y0178000D01*
X0024297Y0177842D01*
X0024291Y0177684D01*
X0024281Y0177526D01*
X0024267Y0177368D01*
X0024249Y0177211D01*
X0024228Y0177054D01*
X0024202Y0176898D01*
X0024172Y0176742D01*
X0024139Y0176587D01*
X0024101Y0176434D01*
X0024060Y0176281D01*
X0024015Y0176129D01*
X0023966Y0175978D01*
X0023913Y0175829D01*
X0023857Y0175681D01*
X0023797Y0175535D01*
X0023733Y0175390D01*
X0023665Y0175247D01*
X0023594Y0175105D01*
X0023520Y0174965D01*
X0023442Y0174828D01*
X0023360Y0174692D01*
X0023276Y0174558D01*
X0023187Y0174427D01*
X0023096Y0174298D01*
X0023001Y0174171D01*
X0022904Y0174046D01*
X0022803Y0173924D01*
X0022699Y0173805D01*
X0022592Y0173688D01*
X0022482Y0173574D01*
X0022369Y0173463D01*
X0022254Y0173354D01*
X0022136Y0173249D01*
X0022015Y0173147D01*
X0021892Y0173047D01*
X0021766Y0172951D01*
X0021638Y0172858D01*
X0021508Y0172768D01*
X0021375Y0172682D01*
X0021240Y0172598D01*
X0021104Y0172519D01*
X0020965Y0172442D01*
X0020824Y0172370D01*
X0020682Y0172300D01*
X0020538Y0172235D01*
X0020392Y0172173D01*
X0020245Y0172115D01*
X0020096Y0172060D01*
X0019946Y0172009D01*
X0019795Y0171962D01*
X0019643Y0171919D01*
X0019490Y0171880D01*
X0019335Y0171844D01*
X0019180Y0171813D01*
X0019024Y0171785D01*
X0018868Y0171761D01*
X0018711Y0171741D01*
X0018553Y0171725D01*
X0018396Y0171713D01*
X0018237Y0171705D01*
X0018079Y0171701D01*
X0017921Y0171701D01*
X0017763Y0171705D01*
X0017604Y0171713D01*
X0017447Y0171725D01*
X0017289Y0171741D01*
X0017132Y0171761D01*
X0016976Y0171785D01*
X0016820Y0171813D01*
X0016665Y0171844D01*
X0016510Y0171880D01*
X0016357Y0171919D01*
X0016205Y0171962D01*
X0016054Y0172009D01*
X0015904Y0172060D01*
X0015755Y0172115D01*
X0015608Y0172173D01*
X0015462Y0172235D01*
X0015318Y0172300D01*
X0015176Y0172370D01*
X0015035Y0172442D01*
X0014896Y0172519D01*
X0014760Y0172598D01*
X0014625Y0172682D01*
X0014492Y0172768D01*
X0014362Y0172858D01*
X0014234Y0172951D01*
X0014108Y0173047D01*
X0013985Y0173147D01*
X0013864Y0173249D01*
X0013746Y0173354D01*
X0013631Y0173463D01*
X0013518Y0173574D01*
X0013408Y0173688D01*
X0013301Y0173805D01*
X0013197Y0173924D01*
X0013096Y0174046D01*
X0012999Y0174171D01*
X0012904Y0174298D01*
X0012813Y0174427D01*
X0012724Y0174558D01*
X0012640Y0174692D01*
X0012558Y0174828D01*
X0012480Y0174965D01*
X0012406Y0175105D01*
X0012335Y0175247D01*
X0012267Y0175390D01*
X0012203Y0175535D01*
X0012143Y0175681D01*
X0012087Y0175829D01*
X0012034Y0175978D01*
X0011985Y0176129D01*
X0011940Y0176281D01*
X0011899Y0176434D01*
X0011861Y0176587D01*
X0011828Y0176742D01*
X0011798Y0176898D01*
X0011772Y0177054D01*
X0011751Y0177211D01*
X0011733Y0177368D01*
X0011719Y0177526D01*
X0011709Y0177684D01*
X0011703Y0177842D01*
X0011701Y0178000D01*
D11*
X0037500Y0168000D02*
X0049000Y0167500D01*
X0050000Y0166500D01*
X0050000Y0129500D01*
X0049000Y0128500D01*
X0037500Y0128000D01*
X0037500Y0113000D02*
X0049000Y0112500D01*
X0050000Y0111500D01*
X0050000Y0074500D01*
X0049000Y0073500D01*
X0037500Y0073000D01*
X0037500Y0063000D02*
X0049000Y0062500D01*
X0050000Y0061500D01*
X0050000Y0024500D01*
X0049000Y0023500D01*
X0037500Y0023000D01*
X0183500Y0031500D02*
X0183500Y0033000D01*
X0184000Y0033500D01*
X0184000Y0052500D01*
X0183500Y0053000D01*
X0183500Y0054500D01*
X0183502Y0054560D01*
X0183507Y0054621D01*
X0183516Y0054680D01*
X0183529Y0054739D01*
X0183545Y0054798D01*
X0183565Y0054855D01*
X0183588Y0054910D01*
X0183615Y0054965D01*
X0183644Y0055017D01*
X0183677Y0055068D01*
X0183713Y0055117D01*
X0183751Y0055163D01*
X0183793Y0055207D01*
X0183837Y0055249D01*
X0183883Y0055287D01*
X0183932Y0055323D01*
X0183983Y0055356D01*
X0184035Y0055385D01*
X0184090Y0055412D01*
X0184145Y0055435D01*
X0184202Y0055455D01*
X0184261Y0055471D01*
X0184320Y0055484D01*
X0184379Y0055493D01*
X0184440Y0055498D01*
X0184500Y0055500D01*
X0191500Y0055500D01*
X0191560Y0055498D01*
X0191621Y0055493D01*
X0191680Y0055484D01*
X0191739Y0055471D01*
X0191798Y0055455D01*
X0191855Y0055435D01*
X0191910Y0055412D01*
X0191965Y0055385D01*
X0192017Y0055356D01*
X0192068Y0055323D01*
X0192117Y0055287D01*
X0192163Y0055249D01*
X0192207Y0055207D01*
X0192249Y0055163D01*
X0192287Y0055117D01*
X0192323Y0055068D01*
X0192356Y0055017D01*
X0192385Y0054965D01*
X0192412Y0054910D01*
X0192435Y0054855D01*
X0192455Y0054798D01*
X0192471Y0054739D01*
X0192484Y0054680D01*
X0192493Y0054621D01*
X0192498Y0054560D01*
X0192500Y0054500D01*
X0192500Y0053000D01*
X0192000Y0052500D01*
X0192000Y0033500D01*
X0192500Y0033000D01*
X0192500Y0031500D01*
X0192498Y0031440D01*
X0192493Y0031379D01*
X0192484Y0031320D01*
X0192471Y0031261D01*
X0192455Y0031202D01*
X0192435Y0031145D01*
X0192412Y0031090D01*
X0192385Y0031035D01*
X0192356Y0030983D01*
X0192323Y0030932D01*
X0192287Y0030883D01*
X0192249Y0030837D01*
X0192207Y0030793D01*
X0192163Y0030751D01*
X0192117Y0030713D01*
X0192068Y0030677D01*
X0192017Y0030644D01*
X0191965Y0030615D01*
X0191910Y0030588D01*
X0191855Y0030565D01*
X0191798Y0030545D01*
X0191739Y0030529D01*
X0191680Y0030516D01*
X0191621Y0030507D01*
X0191560Y0030502D01*
X0191500Y0030500D01*
X0184500Y0030500D01*
X0184440Y0030502D01*
X0184379Y0030507D01*
X0184320Y0030516D01*
X0184261Y0030529D01*
X0184202Y0030545D01*
X0184145Y0030565D01*
X0184090Y0030588D01*
X0184035Y0030615D01*
X0183983Y0030644D01*
X0183932Y0030677D01*
X0183883Y0030713D01*
X0183837Y0030751D01*
X0183793Y0030793D01*
X0183751Y0030837D01*
X0183713Y0030883D01*
X0183677Y0030932D01*
X0183644Y0030983D01*
X0183615Y0031035D01*
X0183588Y0031090D01*
X0183565Y0031145D01*
X0183545Y0031202D01*
X0183529Y0031261D01*
X0183516Y0031320D01*
X0183507Y0031379D01*
X0183502Y0031440D01*
X0183500Y0031500D01*
X0203000Y0036500D02*
X0203000Y0059500D01*
X0243000Y0059500D01*
X0243000Y0052000D01*
X0242874Y0051998D01*
X0242749Y0051992D01*
X0242624Y0051982D01*
X0242499Y0051968D01*
X0242374Y0051951D01*
X0242250Y0051929D01*
X0242127Y0051904D01*
X0242005Y0051874D01*
X0241884Y0051841D01*
X0241764Y0051804D01*
X0241645Y0051764D01*
X0241528Y0051719D01*
X0241411Y0051671D01*
X0241297Y0051619D01*
X0241184Y0051564D01*
X0241073Y0051505D01*
X0240964Y0051443D01*
X0240857Y0051377D01*
X0240752Y0051308D01*
X0240649Y0051236D01*
X0240548Y0051161D01*
X0240450Y0051082D01*
X0240355Y0051000D01*
X0240262Y0050916D01*
X0240172Y0050828D01*
X0240084Y0050738D01*
X0240000Y0050645D01*
X0239918Y0050550D01*
X0239839Y0050452D01*
X0239764Y0050351D01*
X0239692Y0050248D01*
X0239623Y0050143D01*
X0239557Y0050036D01*
X0239495Y0049927D01*
X0239436Y0049816D01*
X0239381Y0049703D01*
X0239329Y0049589D01*
X0239281Y0049472D01*
X0239236Y0049355D01*
X0239196Y0049236D01*
X0239159Y0049116D01*
X0239126Y0048995D01*
X0239096Y0048873D01*
X0239071Y0048750D01*
X0239049Y0048626D01*
X0239032Y0048501D01*
X0239018Y0048376D01*
X0239008Y0048251D01*
X0239002Y0048126D01*
X0239000Y0048000D01*
X0239002Y0047874D01*
X0239008Y0047749D01*
X0239018Y0047624D01*
X0239032Y0047499D01*
X0239049Y0047374D01*
X0239071Y0047250D01*
X0239096Y0047127D01*
X0239126Y0047005D01*
X0239159Y0046884D01*
X0239196Y0046764D01*
X0239236Y0046645D01*
X0239281Y0046528D01*
X0239329Y0046411D01*
X0239381Y0046297D01*
X0239436Y0046184D01*
X0239495Y0046073D01*
X0239557Y0045964D01*
X0239623Y0045857D01*
X0239692Y0045752D01*
X0239764Y0045649D01*
X0239839Y0045548D01*
X0239918Y0045450D01*
X0240000Y0045355D01*
X0240084Y0045262D01*
X0240172Y0045172D01*
X0240262Y0045084D01*
X0240355Y0045000D01*
X0240450Y0044918D01*
X0240548Y0044839D01*
X0240649Y0044764D01*
X0240752Y0044692D01*
X0240857Y0044623D01*
X0240964Y0044557D01*
X0241073Y0044495D01*
X0241184Y0044436D01*
X0241297Y0044381D01*
X0241411Y0044329D01*
X0241528Y0044281D01*
X0241645Y0044236D01*
X0241764Y0044196D01*
X0241884Y0044159D01*
X0242005Y0044126D01*
X0242127Y0044096D01*
X0242250Y0044071D01*
X0242374Y0044049D01*
X0242499Y0044032D01*
X0242624Y0044018D01*
X0242749Y0044008D01*
X0242874Y0044002D01*
X0243000Y0044000D01*
X0243000Y0036500D01*
X0203000Y0036500D01*
X0209500Y0023000D02*
X0236500Y0023000D01*
X0236560Y0022998D01*
X0236621Y0022993D01*
X0236680Y0022984D01*
X0236739Y0022971D01*
X0236798Y0022955D01*
X0236855Y0022935D01*
X0236910Y0022912D01*
X0236965Y0022885D01*
X0237017Y0022856D01*
X0237068Y0022823D01*
X0237117Y0022787D01*
X0237163Y0022749D01*
X0237207Y0022707D01*
X0237249Y0022663D01*
X0237287Y0022617D01*
X0237323Y0022568D01*
X0237356Y0022517D01*
X0237385Y0022465D01*
X0237412Y0022410D01*
X0237435Y0022355D01*
X0237455Y0022298D01*
X0237471Y0022239D01*
X0237484Y0022180D01*
X0237493Y0022121D01*
X0237498Y0022060D01*
X0237500Y0022000D01*
X0237500Y0014000D01*
X0237498Y0013940D01*
X0237493Y0013879D01*
X0237484Y0013820D01*
X0237471Y0013761D01*
X0237455Y0013702D01*
X0237435Y0013645D01*
X0237412Y0013590D01*
X0237385Y0013535D01*
X0237356Y0013483D01*
X0237323Y0013432D01*
X0237287Y0013383D01*
X0237249Y0013337D01*
X0237207Y0013293D01*
X0237163Y0013251D01*
X0237117Y0013213D01*
X0237068Y0013177D01*
X0237017Y0013144D01*
X0236965Y0013115D01*
X0236910Y0013088D01*
X0236855Y0013065D01*
X0236798Y0013045D01*
X0236739Y0013029D01*
X0236680Y0013016D01*
X0236621Y0013007D01*
X0236560Y0013002D01*
X0236500Y0013000D01*
X0209500Y0013000D01*
X0209440Y0013002D01*
X0209379Y0013007D01*
X0209320Y0013016D01*
X0209261Y0013029D01*
X0209202Y0013045D01*
X0209145Y0013065D01*
X0209090Y0013088D01*
X0209035Y0013115D01*
X0208983Y0013144D01*
X0208932Y0013177D01*
X0208883Y0013213D01*
X0208837Y0013251D01*
X0208793Y0013293D01*
X0208751Y0013337D01*
X0208713Y0013383D01*
X0208677Y0013432D01*
X0208644Y0013483D01*
X0208615Y0013535D01*
X0208588Y0013590D01*
X0208565Y0013645D01*
X0208545Y0013702D01*
X0208529Y0013761D01*
X0208516Y0013820D01*
X0208507Y0013879D01*
X0208502Y0013940D01*
X0208500Y0014000D01*
X0208500Y0022000D01*
X0208502Y0022060D01*
X0208507Y0022121D01*
X0208516Y0022180D01*
X0208529Y0022239D01*
X0208545Y0022298D01*
X0208565Y0022355D01*
X0208588Y0022410D01*
X0208615Y0022465D01*
X0208644Y0022517D01*
X0208677Y0022568D01*
X0208713Y0022617D01*
X0208751Y0022663D01*
X0208793Y0022707D01*
X0208837Y0022749D01*
X0208883Y0022787D01*
X0208932Y0022823D01*
X0208983Y0022856D01*
X0209035Y0022885D01*
X0209090Y0022912D01*
X0209145Y0022935D01*
X0209202Y0022955D01*
X0209261Y0022971D01*
X0209320Y0022984D01*
X0209379Y0022993D01*
X0209440Y0022998D01*
X0209500Y0023000D01*
X0217000Y0018000D02*
X0221700Y0018000D01*
X0224200Y0018000D02*
X0229000Y0018000D01*
X0253000Y0029500D02*
X0253000Y0056500D01*
X0253002Y0056560D01*
X0253007Y0056621D01*
X0253016Y0056680D01*
X0253029Y0056739D01*
X0253045Y0056798D01*
X0253065Y0056855D01*
X0253088Y0056910D01*
X0253115Y0056965D01*
X0253144Y0057017D01*
X0253177Y0057068D01*
X0253213Y0057117D01*
X0253251Y0057163D01*
X0253293Y0057207D01*
X0253337Y0057249D01*
X0253383Y0057287D01*
X0253432Y0057323D01*
X0253483Y0057356D01*
X0253535Y0057385D01*
X0253590Y0057412D01*
X0253645Y0057435D01*
X0253702Y0057455D01*
X0253761Y0057471D01*
X0253820Y0057484D01*
X0253879Y0057493D01*
X0253940Y0057498D01*
X0254000Y0057500D01*
X0262000Y0057500D01*
X0262060Y0057498D01*
X0262121Y0057493D01*
X0262180Y0057484D01*
X0262239Y0057471D01*
X0262298Y0057455D01*
X0262355Y0057435D01*
X0262410Y0057412D01*
X0262465Y0057385D01*
X0262517Y0057356D01*
X0262568Y0057323D01*
X0262617Y0057287D01*
X0262663Y0057249D01*
X0262707Y0057207D01*
X0262749Y0057163D01*
X0262787Y0057117D01*
X0262823Y0057068D01*
X0262856Y0057017D01*
X0262885Y0056965D01*
X0262912Y0056910D01*
X0262935Y0056855D01*
X0262955Y0056798D01*
X0262971Y0056739D01*
X0262984Y0056680D01*
X0262993Y0056621D01*
X0262998Y0056560D01*
X0263000Y0056500D01*
X0263000Y0029500D01*
X0262998Y0029440D01*
X0262993Y0029379D01*
X0262984Y0029320D01*
X0262971Y0029261D01*
X0262955Y0029202D01*
X0262935Y0029145D01*
X0262912Y0029090D01*
X0262885Y0029035D01*
X0262856Y0028983D01*
X0262823Y0028932D01*
X0262787Y0028883D01*
X0262749Y0028837D01*
X0262707Y0028793D01*
X0262663Y0028751D01*
X0262617Y0028713D01*
X0262568Y0028677D01*
X0262517Y0028644D01*
X0262465Y0028615D01*
X0262410Y0028588D01*
X0262355Y0028565D01*
X0262298Y0028545D01*
X0262239Y0028529D01*
X0262180Y0028516D01*
X0262121Y0028507D01*
X0262060Y0028502D01*
X0262000Y0028500D01*
X0254000Y0028500D01*
X0253940Y0028502D01*
X0253879Y0028507D01*
X0253820Y0028516D01*
X0253761Y0028529D01*
X0253702Y0028545D01*
X0253645Y0028565D01*
X0253590Y0028588D01*
X0253535Y0028615D01*
X0253483Y0028644D01*
X0253432Y0028677D01*
X0253383Y0028713D01*
X0253337Y0028751D01*
X0253293Y0028793D01*
X0253251Y0028837D01*
X0253213Y0028883D01*
X0253177Y0028932D01*
X0253144Y0028983D01*
X0253115Y0029035D01*
X0253088Y0029090D01*
X0253065Y0029145D01*
X0253045Y0029202D01*
X0253029Y0029261D01*
X0253016Y0029320D01*
X0253007Y0029379D01*
X0253002Y0029440D01*
X0253000Y0029500D01*
X0258000Y0037000D02*
X0258000Y0041800D01*
X0258000Y0044300D02*
X0258000Y0049000D01*
X0281500Y0068000D02*
X0289000Y0068000D01*
X0289002Y0067874D01*
X0289008Y0067749D01*
X0289018Y0067624D01*
X0289032Y0067499D01*
X0289049Y0067374D01*
X0289071Y0067250D01*
X0289096Y0067127D01*
X0289126Y0067005D01*
X0289159Y0066884D01*
X0289196Y0066764D01*
X0289236Y0066645D01*
X0289281Y0066528D01*
X0289329Y0066411D01*
X0289381Y0066297D01*
X0289436Y0066184D01*
X0289495Y0066073D01*
X0289557Y0065964D01*
X0289623Y0065857D01*
X0289692Y0065752D01*
X0289764Y0065649D01*
X0289839Y0065548D01*
X0289918Y0065450D01*
X0290000Y0065355D01*
X0290084Y0065262D01*
X0290172Y0065172D01*
X0290262Y0065084D01*
X0290355Y0065000D01*
X0290450Y0064918D01*
X0290548Y0064839D01*
X0290649Y0064764D01*
X0290752Y0064692D01*
X0290857Y0064623D01*
X0290964Y0064557D01*
X0291073Y0064495D01*
X0291184Y0064436D01*
X0291297Y0064381D01*
X0291411Y0064329D01*
X0291528Y0064281D01*
X0291645Y0064236D01*
X0291764Y0064196D01*
X0291884Y0064159D01*
X0292005Y0064126D01*
X0292127Y0064096D01*
X0292250Y0064071D01*
X0292374Y0064049D01*
X0292499Y0064032D01*
X0292624Y0064018D01*
X0292749Y0064008D01*
X0292874Y0064002D01*
X0293000Y0064000D01*
X0293126Y0064002D01*
X0293251Y0064008D01*
X0293376Y0064018D01*
X0293501Y0064032D01*
X0293626Y0064049D01*
X0293750Y0064071D01*
X0293873Y0064096D01*
X0293995Y0064126D01*
X0294116Y0064159D01*
X0294236Y0064196D01*
X0294355Y0064236D01*
X0294472Y0064281D01*
X0294589Y0064329D01*
X0294703Y0064381D01*
X0294816Y0064436D01*
X0294927Y0064495D01*
X0295036Y0064557D01*
X0295143Y0064623D01*
X0295248Y0064692D01*
X0295351Y0064764D01*
X0295452Y0064839D01*
X0295550Y0064918D01*
X0295645Y0065000D01*
X0295738Y0065084D01*
X0295828Y0065172D01*
X0295916Y0065262D01*
X0296000Y0065355D01*
X0296082Y0065450D01*
X0296161Y0065548D01*
X0296236Y0065649D01*
X0296308Y0065752D01*
X0296377Y0065857D01*
X0296443Y0065964D01*
X0296505Y0066073D01*
X0296564Y0066184D01*
X0296619Y0066297D01*
X0296671Y0066411D01*
X0296719Y0066528D01*
X0296764Y0066645D01*
X0296804Y0066764D01*
X0296841Y0066884D01*
X0296874Y0067005D01*
X0296904Y0067127D01*
X0296929Y0067250D01*
X0296951Y0067374D01*
X0296968Y0067499D01*
X0296982Y0067624D01*
X0296992Y0067749D01*
X0296998Y0067874D01*
X0297000Y0068000D01*
X0304500Y0068000D01*
X0304500Y0028000D01*
X0281500Y0028000D01*
X0281500Y0068000D01*
X0279500Y0078000D02*
X0306500Y0078000D01*
X0306560Y0078002D01*
X0306621Y0078007D01*
X0306680Y0078016D01*
X0306739Y0078029D01*
X0306798Y0078045D01*
X0306855Y0078065D01*
X0306910Y0078088D01*
X0306965Y0078115D01*
X0307017Y0078144D01*
X0307068Y0078177D01*
X0307117Y0078213D01*
X0307163Y0078251D01*
X0307207Y0078293D01*
X0307249Y0078337D01*
X0307287Y0078383D01*
X0307323Y0078432D01*
X0307356Y0078483D01*
X0307385Y0078535D01*
X0307412Y0078590D01*
X0307435Y0078645D01*
X0307455Y0078702D01*
X0307471Y0078761D01*
X0307484Y0078820D01*
X0307493Y0078879D01*
X0307498Y0078940D01*
X0307500Y0079000D01*
X0307500Y0087000D01*
X0307498Y0087060D01*
X0307493Y0087121D01*
X0307484Y0087180D01*
X0307471Y0087239D01*
X0307455Y0087298D01*
X0307435Y0087355D01*
X0307412Y0087410D01*
X0307385Y0087465D01*
X0307356Y0087517D01*
X0307323Y0087568D01*
X0307287Y0087617D01*
X0307249Y0087663D01*
X0307207Y0087707D01*
X0307163Y0087749D01*
X0307117Y0087787D01*
X0307068Y0087823D01*
X0307017Y0087856D01*
X0306965Y0087885D01*
X0306910Y0087912D01*
X0306855Y0087935D01*
X0306798Y0087955D01*
X0306739Y0087971D01*
X0306680Y0087984D01*
X0306621Y0087993D01*
X0306560Y0087998D01*
X0306500Y0088000D01*
X0279500Y0088000D01*
X0279440Y0087998D01*
X0279379Y0087993D01*
X0279320Y0087984D01*
X0279261Y0087971D01*
X0279202Y0087955D01*
X0279145Y0087935D01*
X0279090Y0087912D01*
X0279035Y0087885D01*
X0278983Y0087856D01*
X0278932Y0087823D01*
X0278883Y0087787D01*
X0278837Y0087749D01*
X0278793Y0087707D01*
X0278751Y0087663D01*
X0278713Y0087617D01*
X0278677Y0087568D01*
X0278644Y0087517D01*
X0278615Y0087465D01*
X0278588Y0087410D01*
X0278565Y0087355D01*
X0278545Y0087298D01*
X0278529Y0087239D01*
X0278516Y0087180D01*
X0278507Y0087121D01*
X0278502Y0087060D01*
X0278500Y0087000D01*
X0278500Y0079000D01*
X0278502Y0078940D01*
X0278507Y0078879D01*
X0278516Y0078820D01*
X0278529Y0078761D01*
X0278545Y0078702D01*
X0278565Y0078645D01*
X0278588Y0078590D01*
X0278615Y0078535D01*
X0278644Y0078483D01*
X0278677Y0078432D01*
X0278713Y0078383D01*
X0278751Y0078337D01*
X0278793Y0078293D01*
X0278837Y0078251D01*
X0278883Y0078213D01*
X0278932Y0078177D01*
X0278983Y0078144D01*
X0279035Y0078115D01*
X0279090Y0078088D01*
X0279145Y0078065D01*
X0279202Y0078045D01*
X0279261Y0078029D01*
X0279320Y0078016D01*
X0279379Y0078007D01*
X0279440Y0078002D01*
X0279500Y0078000D01*
X0273000Y0084000D02*
X0273000Y0092000D01*
X0272000Y0093000D01*
X0264000Y0093000D01*
X0263000Y0092000D01*
X0262000Y0093000D01*
X0254000Y0093000D01*
X0253000Y0092000D01*
X0253000Y0084000D01*
X0254000Y0083000D01*
X0262000Y0083000D01*
X0263000Y0084000D01*
X0264000Y0083000D01*
X0272000Y0083000D01*
X0273000Y0084000D01*
X0287000Y0083000D02*
X0291700Y0083000D01*
X0294200Y0083000D02*
X0299000Y0083000D01*
X0319500Y0065500D02*
X0326500Y0065500D01*
X0326560Y0065498D01*
X0326621Y0065493D01*
X0326680Y0065484D01*
X0326739Y0065471D01*
X0326798Y0065455D01*
X0326855Y0065435D01*
X0326910Y0065412D01*
X0326965Y0065385D01*
X0327017Y0065356D01*
X0327068Y0065323D01*
X0327117Y0065287D01*
X0327163Y0065249D01*
X0327207Y0065207D01*
X0327249Y0065163D01*
X0327287Y0065117D01*
X0327323Y0065068D01*
X0327356Y0065017D01*
X0327385Y0064965D01*
X0327412Y0064910D01*
X0327435Y0064855D01*
X0327455Y0064798D01*
X0327471Y0064739D01*
X0327484Y0064680D01*
X0327493Y0064621D01*
X0327498Y0064560D01*
X0327500Y0064500D01*
X0327500Y0063000D01*
X0327000Y0062500D01*
X0327000Y0043500D01*
X0327500Y0043000D01*
X0327500Y0041500D01*
X0327498Y0041440D01*
X0327493Y0041379D01*
X0327484Y0041320D01*
X0327471Y0041261D01*
X0327455Y0041202D01*
X0327435Y0041145D01*
X0327412Y0041090D01*
X0327385Y0041035D01*
X0327356Y0040983D01*
X0327323Y0040932D01*
X0327287Y0040883D01*
X0327249Y0040837D01*
X0327207Y0040793D01*
X0327163Y0040751D01*
X0327117Y0040713D01*
X0327068Y0040677D01*
X0327017Y0040644D01*
X0326965Y0040615D01*
X0326910Y0040588D01*
X0326855Y0040565D01*
X0326798Y0040545D01*
X0326739Y0040529D01*
X0326680Y0040516D01*
X0326621Y0040507D01*
X0326560Y0040502D01*
X0326500Y0040500D01*
X0319500Y0040500D01*
X0319440Y0040502D01*
X0319379Y0040507D01*
X0319320Y0040516D01*
X0319261Y0040529D01*
X0319202Y0040545D01*
X0319145Y0040565D01*
X0319090Y0040588D01*
X0319035Y0040615D01*
X0318983Y0040644D01*
X0318932Y0040677D01*
X0318883Y0040713D01*
X0318837Y0040751D01*
X0318793Y0040793D01*
X0318751Y0040837D01*
X0318713Y0040883D01*
X0318677Y0040932D01*
X0318644Y0040983D01*
X0318615Y0041035D01*
X0318588Y0041090D01*
X0318565Y0041145D01*
X0318545Y0041202D01*
X0318529Y0041261D01*
X0318516Y0041320D01*
X0318507Y0041379D01*
X0318502Y0041440D01*
X0318500Y0041500D01*
X0318500Y0043000D01*
X0319000Y0043500D01*
X0319000Y0062500D01*
X0318500Y0063000D01*
X0318500Y0064500D01*
X0318502Y0064560D01*
X0318507Y0064621D01*
X0318516Y0064680D01*
X0318529Y0064739D01*
X0318545Y0064798D01*
X0318565Y0064855D01*
X0318588Y0064910D01*
X0318615Y0064965D01*
X0318644Y0065017D01*
X0318677Y0065068D01*
X0318713Y0065117D01*
X0318751Y0065163D01*
X0318793Y0065207D01*
X0318837Y0065249D01*
X0318883Y0065287D01*
X0318932Y0065323D01*
X0318983Y0065356D01*
X0319035Y0065385D01*
X0319090Y0065412D01*
X0319145Y0065435D01*
X0319202Y0065455D01*
X0319261Y0065471D01*
X0319320Y0065484D01*
X0319379Y0065493D01*
X0319440Y0065498D01*
X0319500Y0065500D01*
X0344500Y0085500D02*
X0351500Y0085500D01*
X0351560Y0085502D01*
X0351621Y0085507D01*
X0351680Y0085516D01*
X0351739Y0085529D01*
X0351798Y0085545D01*
X0351855Y0085565D01*
X0351910Y0085588D01*
X0351965Y0085615D01*
X0352017Y0085644D01*
X0352068Y0085677D01*
X0352117Y0085713D01*
X0352163Y0085751D01*
X0352207Y0085793D01*
X0352249Y0085837D01*
X0352287Y0085883D01*
X0352323Y0085932D01*
X0352356Y0085983D01*
X0352385Y0086035D01*
X0352412Y0086090D01*
X0352435Y0086145D01*
X0352455Y0086202D01*
X0352471Y0086261D01*
X0352484Y0086320D01*
X0352493Y0086379D01*
X0352498Y0086440D01*
X0352500Y0086500D01*
X0352500Y0088000D01*
X0352000Y0088500D01*
X0352000Y0107500D01*
X0352500Y0108000D01*
X0352500Y0109500D01*
X0352498Y0109560D01*
X0352493Y0109621D01*
X0352484Y0109680D01*
X0352471Y0109739D01*
X0352455Y0109798D01*
X0352435Y0109855D01*
X0352412Y0109910D01*
X0352385Y0109965D01*
X0352356Y0110017D01*
X0352323Y0110068D01*
X0352287Y0110117D01*
X0352249Y0110163D01*
X0352207Y0110207D01*
X0352163Y0110249D01*
X0352117Y0110287D01*
X0352068Y0110323D01*
X0352017Y0110356D01*
X0351965Y0110385D01*
X0351910Y0110412D01*
X0351855Y0110435D01*
X0351798Y0110455D01*
X0351739Y0110471D01*
X0351680Y0110484D01*
X0351621Y0110493D01*
X0351560Y0110498D01*
X0351500Y0110500D01*
X0344500Y0110500D01*
X0344440Y0110498D01*
X0344379Y0110493D01*
X0344320Y0110484D01*
X0344261Y0110471D01*
X0344202Y0110455D01*
X0344145Y0110435D01*
X0344090Y0110412D01*
X0344035Y0110385D01*
X0343983Y0110356D01*
X0343932Y0110323D01*
X0343883Y0110287D01*
X0343837Y0110249D01*
X0343793Y0110207D01*
X0343751Y0110163D01*
X0343713Y0110117D01*
X0343677Y0110068D01*
X0343644Y0110017D01*
X0343615Y0109965D01*
X0343588Y0109910D01*
X0343565Y0109855D01*
X0343545Y0109798D01*
X0343529Y0109739D01*
X0343516Y0109680D01*
X0343507Y0109621D01*
X0343502Y0109560D01*
X0343500Y0109500D01*
X0343500Y0108000D01*
X0344000Y0107500D01*
X0344000Y0088500D01*
X0343500Y0088000D01*
X0343500Y0086500D01*
X0343502Y0086440D01*
X0343507Y0086379D01*
X0343516Y0086320D01*
X0343529Y0086261D01*
X0343545Y0086202D01*
X0343565Y0086145D01*
X0343588Y0086090D01*
X0343615Y0086035D01*
X0343644Y0085983D01*
X0343677Y0085932D01*
X0343713Y0085883D01*
X0343751Y0085837D01*
X0343793Y0085793D01*
X0343837Y0085751D01*
X0343883Y0085713D01*
X0343932Y0085677D01*
X0343983Y0085644D01*
X0344035Y0085615D01*
X0344090Y0085588D01*
X0344145Y0085565D01*
X0344202Y0085545D01*
X0344261Y0085529D01*
X0344320Y0085516D01*
X0344379Y0085507D01*
X0344440Y0085502D01*
X0344500Y0085500D01*
X0368500Y0098000D02*
X0370500Y0098000D01*
X0355500Y0098000D02*
X0355505Y0098429D01*
X0355521Y0098859D01*
X0355547Y0099287D01*
X0355584Y0099715D01*
X0355632Y0100142D01*
X0355689Y0100568D01*
X0355758Y0100992D01*
X0355836Y0101414D01*
X0355925Y0101834D01*
X0356024Y0102252D01*
X0356134Y0102667D01*
X0356254Y0103080D01*
X0356383Y0103489D01*
X0356523Y0103896D01*
X0356673Y0104298D01*
X0356832Y0104697D01*
X0357001Y0105092D01*
X0357180Y0105482D01*
X0357369Y0105868D01*
X0357566Y0106249D01*
X0357773Y0106626D01*
X0357990Y0106997D01*
X0358215Y0107362D01*
X0358449Y0107722D01*
X0358692Y0108077D01*
X0358944Y0108425D01*
X0359204Y0108767D01*
X0359472Y0109102D01*
X0359749Y0109431D01*
X0360033Y0109752D01*
X0360326Y0110067D01*
X0360626Y0110374D01*
X0360933Y0110674D01*
X0361248Y0110967D01*
X0361569Y0111251D01*
X0361898Y0111528D01*
X0362233Y0111796D01*
X0362575Y0112056D01*
X0362923Y0112308D01*
X0363278Y0112551D01*
X0363638Y0112785D01*
X0364003Y0113010D01*
X0364374Y0113227D01*
X0364751Y0113434D01*
X0365132Y0113631D01*
X0365518Y0113820D01*
X0365908Y0113999D01*
X0366303Y0114168D01*
X0366702Y0114327D01*
X0367104Y0114477D01*
X0367511Y0114617D01*
X0367920Y0114746D01*
X0368333Y0114866D01*
X0368748Y0114976D01*
X0369166Y0115075D01*
X0369586Y0115164D01*
X0370008Y0115242D01*
X0370432Y0115311D01*
X0370858Y0115368D01*
X0371285Y0115416D01*
X0371713Y0115453D01*
X0372141Y0115479D01*
X0372571Y0115495D01*
X0373000Y0115500D01*
X0373429Y0115495D01*
X0373859Y0115479D01*
X0374287Y0115453D01*
X0374715Y0115416D01*
X0375142Y0115368D01*
X0375568Y0115311D01*
X0375992Y0115242D01*
X0376414Y0115164D01*
X0376834Y0115075D01*
X0377252Y0114976D01*
X0377667Y0114866D01*
X0378080Y0114746D01*
X0378489Y0114617D01*
X0378896Y0114477D01*
X0379298Y0114327D01*
X0379697Y0114168D01*
X0380092Y0113999D01*
X0380482Y0113820D01*
X0380868Y0113631D01*
X0381249Y0113434D01*
X0381626Y0113227D01*
X0381997Y0113010D01*
X0382362Y0112785D01*
X0382722Y0112551D01*
X0383077Y0112308D01*
X0383425Y0112056D01*
X0383767Y0111796D01*
X0384102Y0111528D01*
X0384431Y0111251D01*
X0384752Y0110967D01*
X0385067Y0110674D01*
X0385374Y0110374D01*
X0385674Y0110067D01*
X0385967Y0109752D01*
X0386251Y0109431D01*
X0386528Y0109102D01*
X0386796Y0108767D01*
X0387056Y0108425D01*
X0387308Y0108077D01*
X0387551Y0107722D01*
X0387785Y0107362D01*
X0388010Y0106997D01*
X0388227Y0106626D01*
X0388434Y0106249D01*
X0388631Y0105868D01*
X0388820Y0105482D01*
X0388999Y0105092D01*
X0389168Y0104697D01*
X0389327Y0104298D01*
X0389477Y0103896D01*
X0389617Y0103489D01*
X0389746Y0103080D01*
X0389866Y0102667D01*
X0389976Y0102252D01*
X0390075Y0101834D01*
X0390164Y0101414D01*
X0390242Y0100992D01*
X0390311Y0100568D01*
X0390368Y0100142D01*
X0390416Y0099715D01*
X0390453Y0099287D01*
X0390479Y0098859D01*
X0390495Y0098429D01*
X0390500Y0098000D01*
X0390495Y0097571D01*
X0390479Y0097141D01*
X0390453Y0096713D01*
X0390416Y0096285D01*
X0390368Y0095858D01*
X0390311Y0095432D01*
X0390242Y0095008D01*
X0390164Y0094586D01*
X0390075Y0094166D01*
X0389976Y0093748D01*
X0389866Y0093333D01*
X0389746Y0092920D01*
X0389617Y0092511D01*
X0389477Y0092104D01*
X0389327Y0091702D01*
X0389168Y0091303D01*
X0388999Y0090908D01*
X0388820Y0090518D01*
X0388631Y0090132D01*
X0388434Y0089751D01*
X0388227Y0089374D01*
X0388010Y0089003D01*
X0387785Y0088638D01*
X0387551Y0088278D01*
X0387308Y0087923D01*
X0387056Y0087575D01*
X0386796Y0087233D01*
X0386528Y0086898D01*
X0386251Y0086569D01*
X0385967Y0086248D01*
X0385674Y0085933D01*
X0385374Y0085626D01*
X0385067Y0085326D01*
X0384752Y0085033D01*
X0384431Y0084749D01*
X0384102Y0084472D01*
X0383767Y0084204D01*
X0383425Y0083944D01*
X0383077Y0083692D01*
X0382722Y0083449D01*
X0382362Y0083215D01*
X0381997Y0082990D01*
X0381626Y0082773D01*
X0381249Y0082566D01*
X0380868Y0082369D01*
X0380482Y0082180D01*
X0380092Y0082001D01*
X0379697Y0081832D01*
X0379298Y0081673D01*
X0378896Y0081523D01*
X0378489Y0081383D01*
X0378080Y0081254D01*
X0377667Y0081134D01*
X0377252Y0081024D01*
X0376834Y0080925D01*
X0376414Y0080836D01*
X0375992Y0080758D01*
X0375568Y0080689D01*
X0375142Y0080632D01*
X0374715Y0080584D01*
X0374287Y0080547D01*
X0373859Y0080521D01*
X0373429Y0080505D01*
X0373000Y0080500D01*
X0372571Y0080505D01*
X0372141Y0080521D01*
X0371713Y0080547D01*
X0371285Y0080584D01*
X0370858Y0080632D01*
X0370432Y0080689D01*
X0370008Y0080758D01*
X0369586Y0080836D01*
X0369166Y0080925D01*
X0368748Y0081024D01*
X0368333Y0081134D01*
X0367920Y0081254D01*
X0367511Y0081383D01*
X0367104Y0081523D01*
X0366702Y0081673D01*
X0366303Y0081832D01*
X0365908Y0082001D01*
X0365518Y0082180D01*
X0365132Y0082369D01*
X0364751Y0082566D01*
X0364374Y0082773D01*
X0364003Y0082990D01*
X0363638Y0083215D01*
X0363278Y0083449D01*
X0362923Y0083692D01*
X0362575Y0083944D01*
X0362233Y0084204D01*
X0361898Y0084472D01*
X0361569Y0084749D01*
X0361248Y0085033D01*
X0360933Y0085326D01*
X0360626Y0085626D01*
X0360326Y0085933D01*
X0360033Y0086248D01*
X0359749Y0086569D01*
X0359472Y0086898D01*
X0359204Y0087233D01*
X0358944Y0087575D01*
X0358692Y0087923D01*
X0358449Y0088278D01*
X0358215Y0088638D01*
X0357990Y0089003D01*
X0357773Y0089374D01*
X0357566Y0089751D01*
X0357369Y0090132D01*
X0357180Y0090518D01*
X0357001Y0090908D01*
X0356832Y0091303D01*
X0356673Y0091702D01*
X0356523Y0092104D01*
X0356383Y0092511D01*
X0356254Y0092920D01*
X0356134Y0093333D01*
X0356024Y0093748D01*
X0355925Y0094166D01*
X0355836Y0094586D01*
X0355758Y0095008D01*
X0355689Y0095432D01*
X0355632Y0095858D01*
X0355584Y0096285D01*
X0355547Y0096713D01*
X0355521Y0097141D01*
X0355505Y0097571D01*
X0355500Y0098000D01*
X0374000Y0093500D02*
X0376500Y0093500D01*
X0376500Y0098000D01*
X0376500Y0102500D01*
X0374000Y0102500D01*
X0374000Y0093500D01*
X0376500Y0098000D02*
X0377500Y0098000D01*
X0386000Y0093000D02*
X0386000Y0090000D01*
X0387500Y0091500D02*
X0384500Y0091500D01*
X0302500Y0106500D02*
X0302500Y0108000D01*
X0302000Y0108500D01*
X0302000Y0127500D01*
X0302500Y0128000D01*
X0302500Y0129500D01*
X0302498Y0129560D01*
X0302493Y0129621D01*
X0302484Y0129680D01*
X0302471Y0129739D01*
X0302455Y0129798D01*
X0302435Y0129855D01*
X0302412Y0129910D01*
X0302385Y0129965D01*
X0302356Y0130017D01*
X0302323Y0130068D01*
X0302287Y0130117D01*
X0302249Y0130163D01*
X0302207Y0130207D01*
X0302163Y0130249D01*
X0302117Y0130287D01*
X0302068Y0130323D01*
X0302017Y0130356D01*
X0301965Y0130385D01*
X0301910Y0130412D01*
X0301855Y0130435D01*
X0301798Y0130455D01*
X0301739Y0130471D01*
X0301680Y0130484D01*
X0301621Y0130493D01*
X0301560Y0130498D01*
X0301500Y0130500D01*
X0294500Y0130500D01*
X0294440Y0130498D01*
X0294379Y0130493D01*
X0294320Y0130484D01*
X0294261Y0130471D01*
X0294202Y0130455D01*
X0294145Y0130435D01*
X0294090Y0130412D01*
X0294035Y0130385D01*
X0293983Y0130356D01*
X0293932Y0130323D01*
X0293883Y0130287D01*
X0293837Y0130249D01*
X0293793Y0130207D01*
X0293751Y0130163D01*
X0293713Y0130117D01*
X0293677Y0130068D01*
X0293644Y0130017D01*
X0293615Y0129965D01*
X0293588Y0129910D01*
X0293565Y0129855D01*
X0293545Y0129798D01*
X0293529Y0129739D01*
X0293516Y0129680D01*
X0293507Y0129621D01*
X0293502Y0129560D01*
X0293500Y0129500D01*
X0293500Y0128000D01*
X0294000Y0127500D01*
X0294000Y0108500D01*
X0293500Y0108000D01*
X0293500Y0106500D01*
X0293502Y0106440D01*
X0293507Y0106379D01*
X0293516Y0106320D01*
X0293529Y0106261D01*
X0293545Y0106202D01*
X0293565Y0106145D01*
X0293588Y0106090D01*
X0293615Y0106035D01*
X0293644Y0105983D01*
X0293677Y0105932D01*
X0293713Y0105883D01*
X0293751Y0105837D01*
X0293793Y0105793D01*
X0293837Y0105751D01*
X0293883Y0105713D01*
X0293932Y0105677D01*
X0293983Y0105644D01*
X0294035Y0105615D01*
X0294090Y0105588D01*
X0294145Y0105565D01*
X0294202Y0105545D01*
X0294261Y0105529D01*
X0294320Y0105516D01*
X0294379Y0105507D01*
X0294440Y0105502D01*
X0294500Y0105500D01*
X0301500Y0105500D01*
X0301560Y0105502D01*
X0301621Y0105507D01*
X0301680Y0105516D01*
X0301739Y0105529D01*
X0301798Y0105545D01*
X0301855Y0105565D01*
X0301910Y0105588D01*
X0301965Y0105615D01*
X0302017Y0105644D01*
X0302068Y0105677D01*
X0302117Y0105713D01*
X0302163Y0105751D01*
X0302207Y0105793D01*
X0302249Y0105837D01*
X0302287Y0105883D01*
X0302323Y0105932D01*
X0302356Y0105983D01*
X0302385Y0106035D01*
X0302412Y0106090D01*
X0302435Y0106145D01*
X0302455Y0106202D01*
X0302471Y0106261D01*
X0302484Y0106320D01*
X0302493Y0106379D01*
X0302498Y0106440D01*
X0302500Y0106500D01*
X0277500Y0109000D02*
X0277500Y0117000D01*
X0277498Y0117060D01*
X0277493Y0117121D01*
X0277484Y0117180D01*
X0277471Y0117239D01*
X0277455Y0117298D01*
X0277435Y0117355D01*
X0277412Y0117410D01*
X0277385Y0117465D01*
X0277356Y0117517D01*
X0277323Y0117568D01*
X0277287Y0117617D01*
X0277249Y0117663D01*
X0277207Y0117707D01*
X0277163Y0117749D01*
X0277117Y0117787D01*
X0277068Y0117823D01*
X0277017Y0117856D01*
X0276965Y0117885D01*
X0276910Y0117912D01*
X0276855Y0117935D01*
X0276798Y0117955D01*
X0276739Y0117971D01*
X0276680Y0117984D01*
X0276621Y0117993D01*
X0276560Y0117998D01*
X0276500Y0118000D01*
X0249500Y0118000D01*
X0249440Y0117998D01*
X0249379Y0117993D01*
X0249320Y0117984D01*
X0249261Y0117971D01*
X0249202Y0117955D01*
X0249145Y0117935D01*
X0249090Y0117912D01*
X0249035Y0117885D01*
X0248983Y0117856D01*
X0248932Y0117823D01*
X0248883Y0117787D01*
X0248837Y0117749D01*
X0248793Y0117707D01*
X0248751Y0117663D01*
X0248713Y0117617D01*
X0248677Y0117568D01*
X0248644Y0117517D01*
X0248615Y0117465D01*
X0248588Y0117410D01*
X0248565Y0117355D01*
X0248545Y0117298D01*
X0248529Y0117239D01*
X0248516Y0117180D01*
X0248507Y0117121D01*
X0248502Y0117060D01*
X0248500Y0117000D01*
X0248500Y0109000D01*
X0248502Y0108940D01*
X0248507Y0108879D01*
X0248516Y0108820D01*
X0248529Y0108761D01*
X0248545Y0108702D01*
X0248565Y0108645D01*
X0248588Y0108590D01*
X0248615Y0108535D01*
X0248644Y0108483D01*
X0248677Y0108432D01*
X0248713Y0108383D01*
X0248751Y0108337D01*
X0248793Y0108293D01*
X0248837Y0108251D01*
X0248883Y0108213D01*
X0248932Y0108177D01*
X0248983Y0108144D01*
X0249035Y0108115D01*
X0249090Y0108088D01*
X0249145Y0108065D01*
X0249202Y0108045D01*
X0249261Y0108029D01*
X0249320Y0108016D01*
X0249379Y0108007D01*
X0249440Y0108002D01*
X0249500Y0108000D01*
X0276500Y0108000D01*
X0276560Y0108002D01*
X0276621Y0108007D01*
X0276680Y0108016D01*
X0276739Y0108029D01*
X0276798Y0108045D01*
X0276855Y0108065D01*
X0276910Y0108088D01*
X0276965Y0108115D01*
X0277017Y0108144D01*
X0277068Y0108177D01*
X0277117Y0108213D01*
X0277163Y0108251D01*
X0277207Y0108293D01*
X0277249Y0108337D01*
X0277287Y0108383D01*
X0277323Y0108432D01*
X0277356Y0108483D01*
X0277385Y0108535D01*
X0277412Y0108590D01*
X0277435Y0108645D01*
X0277455Y0108702D01*
X0277471Y0108761D01*
X0277484Y0108820D01*
X0277493Y0108879D01*
X0277498Y0108940D01*
X0277500Y0109000D01*
X0269000Y0113000D02*
X0264200Y0113000D01*
X0261700Y0113000D02*
X0257000Y0113000D01*
X0251500Y0123000D02*
X0274500Y0123000D01*
X0274500Y0163000D01*
X0267000Y0163000D01*
X0266998Y0162874D01*
X0266992Y0162749D01*
X0266982Y0162624D01*
X0266968Y0162499D01*
X0266951Y0162374D01*
X0266929Y0162250D01*
X0266904Y0162127D01*
X0266874Y0162005D01*
X0266841Y0161884D01*
X0266804Y0161764D01*
X0266764Y0161645D01*
X0266719Y0161528D01*
X0266671Y0161411D01*
X0266619Y0161297D01*
X0266564Y0161184D01*
X0266505Y0161073D01*
X0266443Y0160964D01*
X0266377Y0160857D01*
X0266308Y0160752D01*
X0266236Y0160649D01*
X0266161Y0160548D01*
X0266082Y0160450D01*
X0266000Y0160355D01*
X0265916Y0160262D01*
X0265828Y0160172D01*
X0265738Y0160084D01*
X0265645Y0160000D01*
X0265550Y0159918D01*
X0265452Y0159839D01*
X0265351Y0159764D01*
X0265248Y0159692D01*
X0265143Y0159623D01*
X0265036Y0159557D01*
X0264927Y0159495D01*
X0264816Y0159436D01*
X0264703Y0159381D01*
X0264589Y0159329D01*
X0264472Y0159281D01*
X0264355Y0159236D01*
X0264236Y0159196D01*
X0264116Y0159159D01*
X0263995Y0159126D01*
X0263873Y0159096D01*
X0263750Y0159071D01*
X0263626Y0159049D01*
X0263501Y0159032D01*
X0263376Y0159018D01*
X0263251Y0159008D01*
X0263126Y0159002D01*
X0263000Y0159000D01*
X0262874Y0159002D01*
X0262749Y0159008D01*
X0262624Y0159018D01*
X0262499Y0159032D01*
X0262374Y0159049D01*
X0262250Y0159071D01*
X0262127Y0159096D01*
X0262005Y0159126D01*
X0261884Y0159159D01*
X0261764Y0159196D01*
X0261645Y0159236D01*
X0261528Y0159281D01*
X0261411Y0159329D01*
X0261297Y0159381D01*
X0261184Y0159436D01*
X0261073Y0159495D01*
X0260964Y0159557D01*
X0260857Y0159623D01*
X0260752Y0159692D01*
X0260649Y0159764D01*
X0260548Y0159839D01*
X0260450Y0159918D01*
X0260355Y0160000D01*
X0260262Y0160084D01*
X0260172Y0160172D01*
X0260084Y0160262D01*
X0260000Y0160355D01*
X0259918Y0160450D01*
X0259839Y0160548D01*
X0259764Y0160649D01*
X0259692Y0160752D01*
X0259623Y0160857D01*
X0259557Y0160964D01*
X0259495Y0161073D01*
X0259436Y0161184D01*
X0259381Y0161297D01*
X0259329Y0161411D01*
X0259281Y0161528D01*
X0259236Y0161645D01*
X0259196Y0161764D01*
X0259159Y0161884D01*
X0259126Y0162005D01*
X0259096Y0162127D01*
X0259071Y0162250D01*
X0259049Y0162374D01*
X0259032Y0162499D01*
X0259018Y0162624D01*
X0259008Y0162749D01*
X0259002Y0162874D01*
X0259000Y0163000D01*
X0251500Y0163000D01*
X0251500Y0123000D01*
X0238000Y0131500D02*
X0238000Y0104500D01*
X0237998Y0104440D01*
X0237993Y0104379D01*
X0237984Y0104320D01*
X0237971Y0104261D01*
X0237955Y0104202D01*
X0237935Y0104145D01*
X0237912Y0104090D01*
X0237885Y0104035D01*
X0237856Y0103983D01*
X0237823Y0103932D01*
X0237787Y0103883D01*
X0237749Y0103837D01*
X0237707Y0103793D01*
X0237663Y0103751D01*
X0237617Y0103713D01*
X0237568Y0103677D01*
X0237517Y0103644D01*
X0237465Y0103615D01*
X0237410Y0103588D01*
X0237355Y0103565D01*
X0237298Y0103545D01*
X0237239Y0103529D01*
X0237180Y0103516D01*
X0237121Y0103507D01*
X0237060Y0103502D01*
X0237000Y0103500D01*
X0229000Y0103500D01*
X0228940Y0103502D01*
X0228879Y0103507D01*
X0228820Y0103516D01*
X0228761Y0103529D01*
X0228702Y0103545D01*
X0228645Y0103565D01*
X0228590Y0103588D01*
X0228535Y0103615D01*
X0228483Y0103644D01*
X0228432Y0103677D01*
X0228383Y0103713D01*
X0228337Y0103751D01*
X0228293Y0103793D01*
X0228251Y0103837D01*
X0228213Y0103883D01*
X0228177Y0103932D01*
X0228144Y0103983D01*
X0228115Y0104035D01*
X0228088Y0104090D01*
X0228065Y0104145D01*
X0228045Y0104202D01*
X0228029Y0104261D01*
X0228016Y0104320D01*
X0228007Y0104379D01*
X0228002Y0104440D01*
X0228000Y0104500D01*
X0228000Y0131500D01*
X0228002Y0131560D01*
X0228007Y0131621D01*
X0228016Y0131680D01*
X0228029Y0131739D01*
X0228045Y0131798D01*
X0228065Y0131855D01*
X0228088Y0131910D01*
X0228115Y0131965D01*
X0228144Y0132017D01*
X0228177Y0132068D01*
X0228213Y0132117D01*
X0228251Y0132163D01*
X0228293Y0132207D01*
X0228337Y0132249D01*
X0228383Y0132287D01*
X0228432Y0132323D01*
X0228483Y0132356D01*
X0228535Y0132385D01*
X0228590Y0132412D01*
X0228645Y0132435D01*
X0228702Y0132455D01*
X0228761Y0132471D01*
X0228820Y0132484D01*
X0228879Y0132493D01*
X0228940Y0132498D01*
X0229000Y0132500D01*
X0237000Y0132500D01*
X0237060Y0132498D01*
X0237121Y0132493D01*
X0237180Y0132484D01*
X0237239Y0132471D01*
X0237298Y0132455D01*
X0237355Y0132435D01*
X0237410Y0132412D01*
X0237465Y0132385D01*
X0237517Y0132356D01*
X0237568Y0132323D01*
X0237617Y0132287D01*
X0237663Y0132249D01*
X0237707Y0132207D01*
X0237749Y0132163D01*
X0237787Y0132117D01*
X0237823Y0132068D01*
X0237856Y0132017D01*
X0237885Y0131965D01*
X0237912Y0131910D01*
X0237935Y0131855D01*
X0237955Y0131798D01*
X0237971Y0131739D01*
X0237984Y0131680D01*
X0237993Y0131621D01*
X0237998Y0131560D01*
X0238000Y0131500D01*
X0233000Y0124000D02*
X0233000Y0119200D01*
X0233000Y0116700D02*
X0233000Y0112000D01*
X0209500Y0123000D02*
X0202000Y0123000D01*
X0201998Y0123126D01*
X0201992Y0123251D01*
X0201982Y0123376D01*
X0201968Y0123501D01*
X0201951Y0123626D01*
X0201929Y0123750D01*
X0201904Y0123873D01*
X0201874Y0123995D01*
X0201841Y0124116D01*
X0201804Y0124236D01*
X0201764Y0124355D01*
X0201719Y0124472D01*
X0201671Y0124589D01*
X0201619Y0124703D01*
X0201564Y0124816D01*
X0201505Y0124927D01*
X0201443Y0125036D01*
X0201377Y0125143D01*
X0201308Y0125248D01*
X0201236Y0125351D01*
X0201161Y0125452D01*
X0201082Y0125550D01*
X0201000Y0125645D01*
X0200916Y0125738D01*
X0200828Y0125828D01*
X0200738Y0125916D01*
X0200645Y0126000D01*
X0200550Y0126082D01*
X0200452Y0126161D01*
X0200351Y0126236D01*
X0200248Y0126308D01*
X0200143Y0126377D01*
X0200036Y0126443D01*
X0199927Y0126505D01*
X0199816Y0126564D01*
X0199703Y0126619D01*
X0199589Y0126671D01*
X0199472Y0126719D01*
X0199355Y0126764D01*
X0199236Y0126804D01*
X0199116Y0126841D01*
X0198995Y0126874D01*
X0198873Y0126904D01*
X0198750Y0126929D01*
X0198626Y0126951D01*
X0198501Y0126968D01*
X0198376Y0126982D01*
X0198251Y0126992D01*
X0198126Y0126998D01*
X0198000Y0127000D01*
X0197874Y0126998D01*
X0197749Y0126992D01*
X0197624Y0126982D01*
X0197499Y0126968D01*
X0197374Y0126951D01*
X0197250Y0126929D01*
X0197127Y0126904D01*
X0197005Y0126874D01*
X0196884Y0126841D01*
X0196764Y0126804D01*
X0196645Y0126764D01*
X0196528Y0126719D01*
X0196411Y0126671D01*
X0196297Y0126619D01*
X0196184Y0126564D01*
X0196073Y0126505D01*
X0195964Y0126443D01*
X0195857Y0126377D01*
X0195752Y0126308D01*
X0195649Y0126236D01*
X0195548Y0126161D01*
X0195450Y0126082D01*
X0195355Y0126000D01*
X0195262Y0125916D01*
X0195172Y0125828D01*
X0195084Y0125738D01*
X0195000Y0125645D01*
X0194918Y0125550D01*
X0194839Y0125452D01*
X0194764Y0125351D01*
X0194692Y0125248D01*
X0194623Y0125143D01*
X0194557Y0125036D01*
X0194495Y0124927D01*
X0194436Y0124816D01*
X0194381Y0124703D01*
X0194329Y0124589D01*
X0194281Y0124472D01*
X0194236Y0124355D01*
X0194196Y0124236D01*
X0194159Y0124116D01*
X0194126Y0123995D01*
X0194096Y0123873D01*
X0194071Y0123750D01*
X0194049Y0123626D01*
X0194032Y0123501D01*
X0194018Y0123376D01*
X0194008Y0123251D01*
X0194002Y0123126D01*
X0194000Y0123000D01*
X0186500Y0123000D01*
X0186500Y0163000D01*
X0209500Y0163000D01*
X0209500Y0123000D01*
X0191500Y0105500D02*
X0184500Y0105500D01*
X0184440Y0105498D01*
X0184379Y0105493D01*
X0184320Y0105484D01*
X0184261Y0105471D01*
X0184202Y0105455D01*
X0184145Y0105435D01*
X0184090Y0105412D01*
X0184035Y0105385D01*
X0183983Y0105356D01*
X0183932Y0105323D01*
X0183883Y0105287D01*
X0183837Y0105249D01*
X0183793Y0105207D01*
X0183751Y0105163D01*
X0183713Y0105117D01*
X0183677Y0105068D01*
X0183644Y0105017D01*
X0183615Y0104965D01*
X0183588Y0104910D01*
X0183565Y0104855D01*
X0183545Y0104798D01*
X0183529Y0104739D01*
X0183516Y0104680D01*
X0183507Y0104621D01*
X0183502Y0104560D01*
X0183500Y0104500D01*
X0183500Y0103000D01*
X0184000Y0102500D01*
X0184000Y0083500D01*
X0183500Y0083000D01*
X0183500Y0081500D01*
X0183502Y0081440D01*
X0183507Y0081379D01*
X0183516Y0081320D01*
X0183529Y0081261D01*
X0183545Y0081202D01*
X0183565Y0081145D01*
X0183588Y0081090D01*
X0183615Y0081035D01*
X0183644Y0080983D01*
X0183677Y0080932D01*
X0183713Y0080883D01*
X0183751Y0080837D01*
X0183793Y0080793D01*
X0183837Y0080751D01*
X0183883Y0080713D01*
X0183932Y0080677D01*
X0183983Y0080644D01*
X0184035Y0080615D01*
X0184090Y0080588D01*
X0184145Y0080565D01*
X0184202Y0080545D01*
X0184261Y0080529D01*
X0184320Y0080516D01*
X0184379Y0080507D01*
X0184440Y0080502D01*
X0184500Y0080500D01*
X0191500Y0080500D01*
X0191560Y0080502D01*
X0191621Y0080507D01*
X0191680Y0080516D01*
X0191739Y0080529D01*
X0191798Y0080545D01*
X0191855Y0080565D01*
X0191910Y0080588D01*
X0191965Y0080615D01*
X0192017Y0080644D01*
X0192068Y0080677D01*
X0192117Y0080713D01*
X0192163Y0080751D01*
X0192207Y0080793D01*
X0192249Y0080837D01*
X0192287Y0080883D01*
X0192323Y0080932D01*
X0192356Y0080983D01*
X0192385Y0081035D01*
X0192412Y0081090D01*
X0192435Y0081145D01*
X0192455Y0081202D01*
X0192471Y0081261D01*
X0192484Y0081320D01*
X0192493Y0081379D01*
X0192498Y0081440D01*
X0192500Y0081500D01*
X0192500Y0083000D01*
X0192000Y0083500D01*
X0192000Y0102500D01*
X0192500Y0103000D01*
X0192500Y0104500D01*
X0192498Y0104560D01*
X0192493Y0104621D01*
X0192484Y0104680D01*
X0192471Y0104739D01*
X0192455Y0104798D01*
X0192435Y0104855D01*
X0192412Y0104910D01*
X0192385Y0104965D01*
X0192356Y0105017D01*
X0192323Y0105068D01*
X0192287Y0105117D01*
X0192249Y0105163D01*
X0192207Y0105207D01*
X0192163Y0105249D01*
X0192117Y0105287D01*
X0192068Y0105323D01*
X0192017Y0105356D01*
X0191965Y0105385D01*
X0191910Y0105412D01*
X0191855Y0105435D01*
X0191798Y0105455D01*
X0191739Y0105471D01*
X0191680Y0105484D01*
X0191621Y0105493D01*
X0191560Y0105498D01*
X0191500Y0105500D01*
X0204000Y0093000D02*
X0203000Y0092000D01*
X0203000Y0084000D01*
X0204000Y0083000D01*
X0212000Y0083000D01*
X0213000Y0084000D01*
X0214000Y0083000D01*
X0222000Y0083000D01*
X0223000Y0084000D01*
X0223000Y0092000D01*
X0222000Y0093000D01*
X0214000Y0093000D01*
X0213000Y0092000D01*
X0212000Y0093000D01*
X0204000Y0093000D01*
X0228000Y0092000D02*
X0228000Y0084000D01*
X0229000Y0083000D01*
X0237000Y0083000D01*
X0238000Y0084000D01*
X0239000Y0083000D01*
X0247000Y0083000D01*
X0248000Y0084000D01*
X0248000Y0092000D01*
X0247000Y0093000D01*
X0239000Y0093000D01*
X0238000Y0092000D01*
X0237000Y0093000D01*
X0229000Y0093000D01*
X0228000Y0092000D01*
X0313500Y0136500D02*
X0313500Y0138000D01*
X0314000Y0138500D01*
X0314000Y0157500D01*
X0313500Y0158000D01*
X0313500Y0159500D01*
X0313502Y0159560D01*
X0313507Y0159621D01*
X0313516Y0159680D01*
X0313529Y0159739D01*
X0313545Y0159798D01*
X0313565Y0159855D01*
X0313588Y0159910D01*
X0313615Y0159965D01*
X0313644Y0160017D01*
X0313677Y0160068D01*
X0313713Y0160117D01*
X0313751Y0160163D01*
X0313793Y0160207D01*
X0313837Y0160249D01*
X0313883Y0160287D01*
X0313932Y0160323D01*
X0313983Y0160356D01*
X0314035Y0160385D01*
X0314090Y0160412D01*
X0314145Y0160435D01*
X0314202Y0160455D01*
X0314261Y0160471D01*
X0314320Y0160484D01*
X0314379Y0160493D01*
X0314440Y0160498D01*
X0314500Y0160500D01*
X0321500Y0160500D01*
X0321560Y0160498D01*
X0321621Y0160493D01*
X0321680Y0160484D01*
X0321739Y0160471D01*
X0321798Y0160455D01*
X0321855Y0160435D01*
X0321910Y0160412D01*
X0321965Y0160385D01*
X0322017Y0160356D01*
X0322068Y0160323D01*
X0322117Y0160287D01*
X0322163Y0160249D01*
X0322207Y0160207D01*
X0322249Y0160163D01*
X0322287Y0160117D01*
X0322323Y0160068D01*
X0322356Y0160017D01*
X0322385Y0159965D01*
X0322412Y0159910D01*
X0322435Y0159855D01*
X0322455Y0159798D01*
X0322471Y0159739D01*
X0322484Y0159680D01*
X0322493Y0159621D01*
X0322498Y0159560D01*
X0322500Y0159500D01*
X0322500Y0158000D01*
X0322000Y0157500D01*
X0322000Y0138500D01*
X0322500Y0138000D01*
X0322500Y0136500D01*
X0322498Y0136440D01*
X0322493Y0136379D01*
X0322484Y0136320D01*
X0322471Y0136261D01*
X0322455Y0136202D01*
X0322435Y0136145D01*
X0322412Y0136090D01*
X0322385Y0136035D01*
X0322356Y0135983D01*
X0322323Y0135932D01*
X0322287Y0135883D01*
X0322249Y0135837D01*
X0322207Y0135793D01*
X0322163Y0135751D01*
X0322117Y0135713D01*
X0322068Y0135677D01*
X0322017Y0135644D01*
X0321965Y0135615D01*
X0321910Y0135588D01*
X0321855Y0135565D01*
X0321798Y0135545D01*
X0321739Y0135529D01*
X0321680Y0135516D01*
X0321621Y0135507D01*
X0321560Y0135502D01*
X0321500Y0135500D01*
X0314500Y0135500D01*
X0314440Y0135502D01*
X0314379Y0135507D01*
X0314320Y0135516D01*
X0314261Y0135529D01*
X0314202Y0135545D01*
X0314145Y0135565D01*
X0314090Y0135588D01*
X0314035Y0135615D01*
X0313983Y0135644D01*
X0313932Y0135677D01*
X0313883Y0135713D01*
X0313837Y0135751D01*
X0313793Y0135793D01*
X0313751Y0135837D01*
X0313713Y0135883D01*
X0313677Y0135932D01*
X0313644Y0135983D01*
X0313615Y0136035D01*
X0313588Y0136090D01*
X0313565Y0136145D01*
X0313545Y0136202D01*
X0313529Y0136261D01*
X0313516Y0136320D01*
X0313507Y0136379D01*
X0313502Y0136440D01*
X0313500Y0136500D01*
X0328500Y0148500D02*
X0330500Y0148500D01*
X0328500Y0148500D02*
X0328500Y0150500D01*
X0335500Y0148500D02*
X0337500Y0148500D01*
X0337500Y0150500D01*
X0337500Y0155500D02*
X0337500Y0157500D01*
X0335500Y0157500D01*
X0330500Y0157500D02*
X0328500Y0157500D01*
X0328500Y0155500D01*
X0343500Y0158000D02*
X0343500Y0159500D01*
X0343502Y0159560D01*
X0343507Y0159621D01*
X0343516Y0159680D01*
X0343529Y0159739D01*
X0343545Y0159798D01*
X0343565Y0159855D01*
X0343588Y0159910D01*
X0343615Y0159965D01*
X0343644Y0160017D01*
X0343677Y0160068D01*
X0343713Y0160117D01*
X0343751Y0160163D01*
X0343793Y0160207D01*
X0343837Y0160249D01*
X0343883Y0160287D01*
X0343932Y0160323D01*
X0343983Y0160356D01*
X0344035Y0160385D01*
X0344090Y0160412D01*
X0344145Y0160435D01*
X0344202Y0160455D01*
X0344261Y0160471D01*
X0344320Y0160484D01*
X0344379Y0160493D01*
X0344440Y0160498D01*
X0344500Y0160500D01*
X0351500Y0160500D01*
X0351560Y0160498D01*
X0351621Y0160493D01*
X0351680Y0160484D01*
X0351739Y0160471D01*
X0351798Y0160455D01*
X0351855Y0160435D01*
X0351910Y0160412D01*
X0351965Y0160385D01*
X0352017Y0160356D01*
X0352068Y0160323D01*
X0352117Y0160287D01*
X0352163Y0160249D01*
X0352207Y0160207D01*
X0352249Y0160163D01*
X0352287Y0160117D01*
X0352323Y0160068D01*
X0352356Y0160017D01*
X0352385Y0159965D01*
X0352412Y0159910D01*
X0352435Y0159855D01*
X0352455Y0159798D01*
X0352471Y0159739D01*
X0352484Y0159680D01*
X0352493Y0159621D01*
X0352498Y0159560D01*
X0352500Y0159500D01*
X0352500Y0158000D01*
X0352000Y0157500D01*
X0352000Y0138500D01*
X0352500Y0138000D01*
X0352500Y0136500D01*
X0352498Y0136440D01*
X0352493Y0136379D01*
X0352484Y0136320D01*
X0352471Y0136261D01*
X0352455Y0136202D01*
X0352435Y0136145D01*
X0352412Y0136090D01*
X0352385Y0136035D01*
X0352356Y0135983D01*
X0352323Y0135932D01*
X0352287Y0135883D01*
X0352249Y0135837D01*
X0352207Y0135793D01*
X0352163Y0135751D01*
X0352117Y0135713D01*
X0352068Y0135677D01*
X0352017Y0135644D01*
X0351965Y0135615D01*
X0351910Y0135588D01*
X0351855Y0135565D01*
X0351798Y0135545D01*
X0351739Y0135529D01*
X0351680Y0135516D01*
X0351621Y0135507D01*
X0351560Y0135502D01*
X0351500Y0135500D01*
X0344500Y0135500D01*
X0344440Y0135502D01*
X0344379Y0135507D01*
X0344320Y0135516D01*
X0344261Y0135529D01*
X0344202Y0135545D01*
X0344145Y0135565D01*
X0344090Y0135588D01*
X0344035Y0135615D01*
X0343983Y0135644D01*
X0343932Y0135677D01*
X0343883Y0135713D01*
X0343837Y0135751D01*
X0343793Y0135793D01*
X0343751Y0135837D01*
X0343713Y0135883D01*
X0343677Y0135932D01*
X0343644Y0135983D01*
X0343615Y0136035D01*
X0343588Y0136090D01*
X0343565Y0136145D01*
X0343545Y0136202D01*
X0343529Y0136261D01*
X0343516Y0136320D01*
X0343507Y0136379D01*
X0343502Y0136440D01*
X0343500Y0136500D01*
X0343500Y0138000D01*
X0344000Y0138500D01*
X0344000Y0157500D01*
X0343500Y0158000D01*
X0373000Y0151000D02*
X0373000Y0135000D01*
X0383000Y0135000D01*
X0383000Y0151000D01*
X0373000Y0151000D01*
X0378000Y0149000D02*
X0378000Y0143000D01*
X0380500Y0143000D01*
X0378000Y0143000D02*
X0378000Y0140500D01*
X0378000Y0143000D02*
X0375500Y0143000D01*
X0378000Y0143000D02*
X0375500Y0147000D01*
X0380500Y0147000D01*
X0378000Y0143000D01*
X0337500Y0178500D02*
X0335500Y0178500D01*
X0337500Y0178500D02*
X0337500Y0180500D01*
X0330500Y0178500D02*
X0328500Y0178500D01*
X0328500Y0180500D01*
X0328500Y0185500D02*
X0328500Y0187500D01*
X0330500Y0187500D01*
X0335500Y0187500D02*
X0337500Y0187500D01*
X0337500Y0185500D01*
X0238000Y0171500D02*
X0238000Y0144500D01*
X0237998Y0144440D01*
X0237993Y0144379D01*
X0237984Y0144320D01*
X0237971Y0144261D01*
X0237955Y0144202D01*
X0237935Y0144145D01*
X0237912Y0144090D01*
X0237885Y0144035D01*
X0237856Y0143983D01*
X0237823Y0143932D01*
X0237787Y0143883D01*
X0237749Y0143837D01*
X0237707Y0143793D01*
X0237663Y0143751D01*
X0237617Y0143713D01*
X0237568Y0143677D01*
X0237517Y0143644D01*
X0237465Y0143615D01*
X0237410Y0143588D01*
X0237355Y0143565D01*
X0237298Y0143545D01*
X0237239Y0143529D01*
X0237180Y0143516D01*
X0237121Y0143507D01*
X0237060Y0143502D01*
X0237000Y0143500D01*
X0229000Y0143500D01*
X0228940Y0143502D01*
X0228879Y0143507D01*
X0228820Y0143516D01*
X0228761Y0143529D01*
X0228702Y0143545D01*
X0228645Y0143565D01*
X0228590Y0143588D01*
X0228535Y0143615D01*
X0228483Y0143644D01*
X0228432Y0143677D01*
X0228383Y0143713D01*
X0228337Y0143751D01*
X0228293Y0143793D01*
X0228251Y0143837D01*
X0228213Y0143883D01*
X0228177Y0143932D01*
X0228144Y0143983D01*
X0228115Y0144035D01*
X0228088Y0144090D01*
X0228065Y0144145D01*
X0228045Y0144202D01*
X0228029Y0144261D01*
X0228016Y0144320D01*
X0228007Y0144379D01*
X0228002Y0144440D01*
X0228000Y0144500D01*
X0228000Y0171500D01*
X0228002Y0171560D01*
X0228007Y0171621D01*
X0228016Y0171680D01*
X0228029Y0171739D01*
X0228045Y0171798D01*
X0228065Y0171855D01*
X0228088Y0171910D01*
X0228115Y0171965D01*
X0228144Y0172017D01*
X0228177Y0172068D01*
X0228213Y0172117D01*
X0228251Y0172163D01*
X0228293Y0172207D01*
X0228337Y0172249D01*
X0228383Y0172287D01*
X0228432Y0172323D01*
X0228483Y0172356D01*
X0228535Y0172385D01*
X0228590Y0172412D01*
X0228645Y0172435D01*
X0228702Y0172455D01*
X0228761Y0172471D01*
X0228820Y0172484D01*
X0228879Y0172493D01*
X0228940Y0172498D01*
X0229000Y0172500D01*
X0237000Y0172500D01*
X0237060Y0172498D01*
X0237121Y0172493D01*
X0237180Y0172484D01*
X0237239Y0172471D01*
X0237298Y0172455D01*
X0237355Y0172435D01*
X0237410Y0172412D01*
X0237465Y0172385D01*
X0237517Y0172356D01*
X0237568Y0172323D01*
X0237617Y0172287D01*
X0237663Y0172249D01*
X0237707Y0172207D01*
X0237749Y0172163D01*
X0237787Y0172117D01*
X0237823Y0172068D01*
X0237856Y0172017D01*
X0237885Y0171965D01*
X0237912Y0171910D01*
X0237935Y0171855D01*
X0237955Y0171798D01*
X0237971Y0171739D01*
X0237984Y0171680D01*
X0237993Y0171621D01*
X0237998Y0171560D01*
X0238000Y0171500D01*
X0233000Y0164000D02*
X0233000Y0159300D01*
X0233000Y0156800D02*
X0233000Y0152000D01*
X0211500Y0168000D02*
X0184500Y0168000D01*
X0184440Y0168002D01*
X0184379Y0168007D01*
X0184320Y0168016D01*
X0184261Y0168029D01*
X0184202Y0168045D01*
X0184145Y0168065D01*
X0184090Y0168088D01*
X0184035Y0168115D01*
X0183983Y0168144D01*
X0183932Y0168177D01*
X0183883Y0168213D01*
X0183837Y0168251D01*
X0183793Y0168293D01*
X0183751Y0168337D01*
X0183713Y0168383D01*
X0183677Y0168432D01*
X0183644Y0168483D01*
X0183615Y0168535D01*
X0183588Y0168590D01*
X0183565Y0168645D01*
X0183545Y0168702D01*
X0183529Y0168761D01*
X0183516Y0168820D01*
X0183507Y0168879D01*
X0183502Y0168940D01*
X0183500Y0169000D01*
X0183500Y0177000D01*
X0183502Y0177060D01*
X0183507Y0177121D01*
X0183516Y0177180D01*
X0183529Y0177239D01*
X0183545Y0177298D01*
X0183565Y0177355D01*
X0183588Y0177410D01*
X0183615Y0177465D01*
X0183644Y0177517D01*
X0183677Y0177568D01*
X0183713Y0177617D01*
X0183751Y0177663D01*
X0183793Y0177707D01*
X0183837Y0177749D01*
X0183883Y0177787D01*
X0183932Y0177823D01*
X0183983Y0177856D01*
X0184035Y0177885D01*
X0184090Y0177912D01*
X0184145Y0177935D01*
X0184202Y0177955D01*
X0184261Y0177971D01*
X0184320Y0177984D01*
X0184379Y0177993D01*
X0184440Y0177998D01*
X0184500Y0178000D01*
X0211500Y0178000D01*
X0211560Y0177998D01*
X0211621Y0177993D01*
X0211680Y0177984D01*
X0211739Y0177971D01*
X0211798Y0177955D01*
X0211855Y0177935D01*
X0211910Y0177912D01*
X0211965Y0177885D01*
X0212017Y0177856D01*
X0212068Y0177823D01*
X0212117Y0177787D01*
X0212163Y0177749D01*
X0212207Y0177707D01*
X0212249Y0177663D01*
X0212287Y0177617D01*
X0212323Y0177568D01*
X0212356Y0177517D01*
X0212385Y0177465D01*
X0212412Y0177410D01*
X0212435Y0177355D01*
X0212455Y0177298D01*
X0212471Y0177239D01*
X0212484Y0177180D01*
X0212493Y0177121D01*
X0212498Y0177060D01*
X0212500Y0177000D01*
X0212500Y0169000D01*
X0212498Y0168940D01*
X0212493Y0168879D01*
X0212484Y0168820D01*
X0212471Y0168761D01*
X0212455Y0168702D01*
X0212435Y0168645D01*
X0212412Y0168590D01*
X0212385Y0168535D01*
X0212356Y0168483D01*
X0212323Y0168432D01*
X0212287Y0168383D01*
X0212249Y0168337D01*
X0212207Y0168293D01*
X0212163Y0168251D01*
X0212117Y0168213D01*
X0212068Y0168177D01*
X0212017Y0168144D01*
X0211965Y0168115D01*
X0211910Y0168088D01*
X0211855Y0168065D01*
X0211798Y0168045D01*
X0211739Y0168029D01*
X0211680Y0168016D01*
X0211621Y0168007D01*
X0211560Y0168002D01*
X0211500Y0168000D01*
X0204000Y0173000D02*
X0199300Y0173000D01*
X0196800Y0173000D02*
X0192000Y0173000D01*
X0177500Y0169500D02*
X0177500Y0168000D01*
X0177000Y0167500D01*
X0177000Y0148500D01*
X0177500Y0148000D01*
X0177500Y0146500D01*
X0177498Y0146440D01*
X0177493Y0146379D01*
X0177484Y0146320D01*
X0177471Y0146261D01*
X0177455Y0146202D01*
X0177435Y0146145D01*
X0177412Y0146090D01*
X0177385Y0146035D01*
X0177356Y0145983D01*
X0177323Y0145932D01*
X0177287Y0145883D01*
X0177249Y0145837D01*
X0177207Y0145793D01*
X0177163Y0145751D01*
X0177117Y0145713D01*
X0177068Y0145677D01*
X0177017Y0145644D01*
X0176965Y0145615D01*
X0176910Y0145588D01*
X0176855Y0145565D01*
X0176798Y0145545D01*
X0176739Y0145529D01*
X0176680Y0145516D01*
X0176621Y0145507D01*
X0176560Y0145502D01*
X0176500Y0145500D01*
X0169500Y0145500D01*
X0169440Y0145502D01*
X0169379Y0145507D01*
X0169320Y0145516D01*
X0169261Y0145529D01*
X0169202Y0145545D01*
X0169145Y0145565D01*
X0169090Y0145588D01*
X0169035Y0145615D01*
X0168983Y0145644D01*
X0168932Y0145677D01*
X0168883Y0145713D01*
X0168837Y0145751D01*
X0168793Y0145793D01*
X0168751Y0145837D01*
X0168713Y0145883D01*
X0168677Y0145932D01*
X0168644Y0145983D01*
X0168615Y0146035D01*
X0168588Y0146090D01*
X0168565Y0146145D01*
X0168545Y0146202D01*
X0168529Y0146261D01*
X0168516Y0146320D01*
X0168507Y0146379D01*
X0168502Y0146440D01*
X0168500Y0146500D01*
X0168500Y0148000D01*
X0169000Y0148500D01*
X0169000Y0167500D01*
X0168500Y0168000D01*
X0168500Y0169500D01*
X0168502Y0169560D01*
X0168507Y0169621D01*
X0168516Y0169680D01*
X0168529Y0169739D01*
X0168545Y0169798D01*
X0168565Y0169855D01*
X0168588Y0169910D01*
X0168615Y0169965D01*
X0168644Y0170017D01*
X0168677Y0170068D01*
X0168713Y0170117D01*
X0168751Y0170163D01*
X0168793Y0170207D01*
X0168837Y0170249D01*
X0168883Y0170287D01*
X0168932Y0170323D01*
X0168983Y0170356D01*
X0169035Y0170385D01*
X0169090Y0170412D01*
X0169145Y0170435D01*
X0169202Y0170455D01*
X0169261Y0170471D01*
X0169320Y0170484D01*
X0169379Y0170493D01*
X0169440Y0170498D01*
X0169500Y0170500D01*
X0176500Y0170500D01*
X0176560Y0170498D01*
X0176621Y0170493D01*
X0176680Y0170484D01*
X0176739Y0170471D01*
X0176798Y0170455D01*
X0176855Y0170435D01*
X0176910Y0170412D01*
X0176965Y0170385D01*
X0177017Y0170356D01*
X0177068Y0170323D01*
X0177117Y0170287D01*
X0177163Y0170249D01*
X0177207Y0170207D01*
X0177249Y0170163D01*
X0177287Y0170117D01*
X0177323Y0170068D01*
X0177356Y0170017D01*
X0177385Y0169965D01*
X0177412Y0169910D01*
X0177435Y0169855D01*
X0177455Y0169798D01*
X0177471Y0169739D01*
X0177484Y0169680D01*
X0177493Y0169621D01*
X0177498Y0169560D01*
X0177500Y0169500D01*
X0284500Y0023000D02*
X0311500Y0023000D01*
X0311560Y0022998D01*
X0311621Y0022993D01*
X0311680Y0022984D01*
X0311739Y0022971D01*
X0311798Y0022955D01*
X0311855Y0022935D01*
X0311910Y0022912D01*
X0311965Y0022885D01*
X0312017Y0022856D01*
X0312068Y0022823D01*
X0312117Y0022787D01*
X0312163Y0022749D01*
X0312207Y0022707D01*
X0312249Y0022663D01*
X0312287Y0022617D01*
X0312323Y0022568D01*
X0312356Y0022517D01*
X0312385Y0022465D01*
X0312412Y0022410D01*
X0312435Y0022355D01*
X0312455Y0022298D01*
X0312471Y0022239D01*
X0312484Y0022180D01*
X0312493Y0022121D01*
X0312498Y0022060D01*
X0312500Y0022000D01*
X0312500Y0014000D01*
X0312498Y0013940D01*
X0312493Y0013879D01*
X0312484Y0013820D01*
X0312471Y0013761D01*
X0312455Y0013702D01*
X0312435Y0013645D01*
X0312412Y0013590D01*
X0312385Y0013535D01*
X0312356Y0013483D01*
X0312323Y0013432D01*
X0312287Y0013383D01*
X0312249Y0013337D01*
X0312207Y0013293D01*
X0312163Y0013251D01*
X0312117Y0013213D01*
X0312068Y0013177D01*
X0312017Y0013144D01*
X0311965Y0013115D01*
X0311910Y0013088D01*
X0311855Y0013065D01*
X0311798Y0013045D01*
X0311739Y0013029D01*
X0311680Y0013016D01*
X0311621Y0013007D01*
X0311560Y0013002D01*
X0311500Y0013000D01*
X0284500Y0013000D01*
X0284440Y0013002D01*
X0284379Y0013007D01*
X0284320Y0013016D01*
X0284261Y0013029D01*
X0284202Y0013045D01*
X0284145Y0013065D01*
X0284090Y0013088D01*
X0284035Y0013115D01*
X0283983Y0013144D01*
X0283932Y0013177D01*
X0283883Y0013213D01*
X0283837Y0013251D01*
X0283793Y0013293D01*
X0283751Y0013337D01*
X0283713Y0013383D01*
X0283677Y0013432D01*
X0283644Y0013483D01*
X0283615Y0013535D01*
X0283588Y0013590D01*
X0283565Y0013645D01*
X0283545Y0013702D01*
X0283529Y0013761D01*
X0283516Y0013820D01*
X0283507Y0013879D01*
X0283502Y0013940D01*
X0283500Y0014000D01*
X0283500Y0022000D01*
X0283502Y0022060D01*
X0283507Y0022121D01*
X0283516Y0022180D01*
X0283529Y0022239D01*
X0283545Y0022298D01*
X0283565Y0022355D01*
X0283588Y0022410D01*
X0283615Y0022465D01*
X0283644Y0022517D01*
X0283677Y0022568D01*
X0283713Y0022617D01*
X0283751Y0022663D01*
X0283793Y0022707D01*
X0283837Y0022749D01*
X0283883Y0022787D01*
X0283932Y0022823D01*
X0283983Y0022856D01*
X0284035Y0022885D01*
X0284090Y0022912D01*
X0284145Y0022935D01*
X0284202Y0022955D01*
X0284261Y0022971D01*
X0284320Y0022984D01*
X0284379Y0022993D01*
X0284440Y0022998D01*
X0284500Y0023000D01*
X0292000Y0018000D02*
X0296700Y0018000D01*
X0299200Y0018000D02*
X0304000Y0018000D01*
X0358500Y0022000D02*
X0358500Y0014000D01*
X0358502Y0013940D01*
X0358507Y0013879D01*
X0358516Y0013820D01*
X0358529Y0013761D01*
X0358545Y0013702D01*
X0358565Y0013645D01*
X0358588Y0013590D01*
X0358615Y0013535D01*
X0358644Y0013483D01*
X0358677Y0013432D01*
X0358713Y0013383D01*
X0358751Y0013337D01*
X0358793Y0013293D01*
X0358837Y0013251D01*
X0358883Y0013213D01*
X0358932Y0013177D01*
X0358983Y0013144D01*
X0359035Y0013115D01*
X0359090Y0013088D01*
X0359145Y0013065D01*
X0359202Y0013045D01*
X0359261Y0013029D01*
X0359320Y0013016D01*
X0359379Y0013007D01*
X0359440Y0013002D01*
X0359500Y0013000D01*
X0386500Y0013000D01*
X0386560Y0013002D01*
X0386621Y0013007D01*
X0386680Y0013016D01*
X0386739Y0013029D01*
X0386798Y0013045D01*
X0386855Y0013065D01*
X0386910Y0013088D01*
X0386965Y0013115D01*
X0387017Y0013144D01*
X0387068Y0013177D01*
X0387117Y0013213D01*
X0387163Y0013251D01*
X0387207Y0013293D01*
X0387249Y0013337D01*
X0387287Y0013383D01*
X0387323Y0013432D01*
X0387356Y0013483D01*
X0387385Y0013535D01*
X0387412Y0013590D01*
X0387435Y0013645D01*
X0387455Y0013702D01*
X0387471Y0013761D01*
X0387484Y0013820D01*
X0387493Y0013879D01*
X0387498Y0013940D01*
X0387500Y0014000D01*
X0387500Y0022000D01*
X0387498Y0022060D01*
X0387493Y0022121D01*
X0387484Y0022180D01*
X0387471Y0022239D01*
X0387455Y0022298D01*
X0387435Y0022355D01*
X0387412Y0022410D01*
X0387385Y0022465D01*
X0387356Y0022517D01*
X0387323Y0022568D01*
X0387287Y0022617D01*
X0387249Y0022663D01*
X0387207Y0022707D01*
X0387163Y0022749D01*
X0387117Y0022787D01*
X0387068Y0022823D01*
X0387017Y0022856D01*
X0386965Y0022885D01*
X0386910Y0022912D01*
X0386855Y0022935D01*
X0386798Y0022955D01*
X0386739Y0022971D01*
X0386680Y0022984D01*
X0386621Y0022993D01*
X0386560Y0022998D01*
X0386500Y0023000D01*
X0359500Y0023000D01*
X0359440Y0022998D01*
X0359379Y0022993D01*
X0359320Y0022984D01*
X0359261Y0022971D01*
X0359202Y0022955D01*
X0359145Y0022935D01*
X0359090Y0022912D01*
X0359035Y0022885D01*
X0358983Y0022856D01*
X0358932Y0022823D01*
X0358883Y0022787D01*
X0358837Y0022749D01*
X0358793Y0022707D01*
X0358751Y0022663D01*
X0358713Y0022617D01*
X0358677Y0022568D01*
X0358644Y0022517D01*
X0358615Y0022465D01*
X0358588Y0022410D01*
X0358565Y0022355D01*
X0358545Y0022298D01*
X0358529Y0022239D01*
X0358516Y0022180D01*
X0358507Y0022121D01*
X0358502Y0022060D01*
X0358500Y0022000D01*
X0367000Y0018000D02*
X0371700Y0018000D01*
X0374200Y0018000D02*
X0379000Y0018000D01*
D12*
X0379043Y0011254D02*
X0379043Y0006750D01*
X0377542Y0006750D02*
X0380545Y0006750D01*
X0382146Y0007501D02*
X0385149Y0010503D01*
X0385149Y0007501D01*
X0384398Y0006750D01*
X0382897Y0006750D01*
X0382146Y0007501D01*
X0382146Y0010503D01*
X0382897Y0011254D01*
X0384398Y0011254D01*
X0385149Y0010503D01*
X0379043Y0011254D02*
X0377542Y0009753D01*
X0375941Y0010503D02*
X0375190Y0011254D01*
X0373689Y0011254D01*
X0372938Y0010503D01*
X0372938Y0007501D01*
X0373689Y0006750D01*
X0375190Y0006750D01*
X0375941Y0007501D01*
X0377000Y0038500D02*
X0376000Y0039500D01*
X0376000Y0076500D01*
X0377000Y0077500D01*
X0388500Y0078000D01*
X0377400Y0075700D02*
X0377402Y0075763D01*
X0377408Y0075825D01*
X0377418Y0075887D01*
X0377431Y0075949D01*
X0377449Y0076009D01*
X0377470Y0076068D01*
X0377495Y0076126D01*
X0377524Y0076182D01*
X0377556Y0076236D01*
X0377591Y0076288D01*
X0377629Y0076337D01*
X0377671Y0076385D01*
X0377715Y0076429D01*
X0377763Y0076471D01*
X0377812Y0076509D01*
X0377864Y0076544D01*
X0377918Y0076576D01*
X0377974Y0076605D01*
X0378032Y0076630D01*
X0378091Y0076651D01*
X0378151Y0076669D01*
X0378213Y0076682D01*
X0378275Y0076692D01*
X0378337Y0076698D01*
X0378400Y0076700D01*
X0378463Y0076698D01*
X0378525Y0076692D01*
X0378587Y0076682D01*
X0378649Y0076669D01*
X0378709Y0076651D01*
X0378768Y0076630D01*
X0378826Y0076605D01*
X0378882Y0076576D01*
X0378936Y0076544D01*
X0378988Y0076509D01*
X0379037Y0076471D01*
X0379085Y0076429D01*
X0379129Y0076385D01*
X0379171Y0076337D01*
X0379209Y0076288D01*
X0379244Y0076236D01*
X0379276Y0076182D01*
X0379305Y0076126D01*
X0379330Y0076068D01*
X0379351Y0076009D01*
X0379369Y0075949D01*
X0379382Y0075887D01*
X0379392Y0075825D01*
X0379398Y0075763D01*
X0379400Y0075700D01*
X0379398Y0075637D01*
X0379392Y0075575D01*
X0379382Y0075513D01*
X0379369Y0075451D01*
X0379351Y0075391D01*
X0379330Y0075332D01*
X0379305Y0075274D01*
X0379276Y0075218D01*
X0379244Y0075164D01*
X0379209Y0075112D01*
X0379171Y0075063D01*
X0379129Y0075015D01*
X0379085Y0074971D01*
X0379037Y0074929D01*
X0378988Y0074891D01*
X0378936Y0074856D01*
X0378882Y0074824D01*
X0378826Y0074795D01*
X0378768Y0074770D01*
X0378709Y0074749D01*
X0378649Y0074731D01*
X0378587Y0074718D01*
X0378525Y0074708D01*
X0378463Y0074702D01*
X0378400Y0074700D01*
X0378337Y0074702D01*
X0378275Y0074708D01*
X0378213Y0074718D01*
X0378151Y0074731D01*
X0378091Y0074749D01*
X0378032Y0074770D01*
X0377974Y0074795D01*
X0377918Y0074824D01*
X0377864Y0074856D01*
X0377812Y0074891D01*
X0377763Y0074929D01*
X0377715Y0074971D01*
X0377671Y0075015D01*
X0377629Y0075063D01*
X0377591Y0075112D01*
X0377556Y0075164D01*
X0377524Y0075218D01*
X0377495Y0075274D01*
X0377470Y0075332D01*
X0377449Y0075391D01*
X0377431Y0075451D01*
X0377418Y0075513D01*
X0377408Y0075575D01*
X0377402Y0075637D01*
X0377400Y0075700D01*
X0373950Y0075898D02*
X0369446Y0075898D01*
X0371698Y0073646D01*
X0371698Y0076649D01*
X0370197Y0072045D02*
X0369446Y0071294D01*
X0369446Y0069793D01*
X0370197Y0069042D01*
X0373199Y0069042D01*
X0373950Y0069793D01*
X0373950Y0071294D01*
X0373199Y0072045D01*
X0373950Y0067474D02*
X0373950Y0065973D01*
X0373950Y0066723D02*
X0369446Y0066723D01*
X0369446Y0065973D02*
X0369446Y0067474D01*
X0355349Y0084250D02*
X0352346Y0084250D01*
X0353847Y0084250D02*
X0353847Y0088754D01*
X0352346Y0087253D01*
X0350745Y0088003D02*
X0349994Y0088754D01*
X0348493Y0088754D01*
X0347742Y0088003D01*
X0347742Y0085001D01*
X0348493Y0084250D01*
X0349994Y0084250D01*
X0350745Y0085001D01*
X0341750Y0086250D02*
X0337246Y0086250D01*
X0337246Y0088502D01*
X0337997Y0089253D01*
X0339498Y0089253D01*
X0340249Y0088502D01*
X0340249Y0086250D01*
X0340249Y0087751D02*
X0341750Y0089253D01*
X0340999Y0090854D02*
X0341750Y0091605D01*
X0341750Y0093106D01*
X0340999Y0093856D01*
X0340249Y0093856D01*
X0339498Y0093106D01*
X0339498Y0092355D01*
X0339498Y0093106D02*
X0338747Y0093856D01*
X0337997Y0093856D01*
X0337246Y0093106D01*
X0337246Y0091605D01*
X0337997Y0090854D01*
X0324500Y0099752D02*
X0324500Y0116248D01*
X0318500Y0113528D02*
X0318500Y0112472D01*
X0322378Y0117546D02*
X0322603Y0117439D01*
X0322826Y0117327D01*
X0323046Y0117210D01*
X0323263Y0117088D01*
X0323478Y0116960D01*
X0323689Y0116827D01*
X0323897Y0116690D01*
X0324101Y0116547D01*
X0324303Y0116400D01*
X0324500Y0116248D01*
X0313528Y0117500D02*
X0313298Y0117388D01*
X0313071Y0117271D01*
X0312847Y0117149D01*
X0312626Y0117021D01*
X0312409Y0116887D01*
X0312194Y0116749D01*
X0311983Y0116605D01*
X0311776Y0116456D01*
X0311572Y0116302D01*
X0311372Y0116144D01*
X0311176Y0115980D01*
X0310984Y0115812D01*
X0310796Y0115639D01*
X0310612Y0115461D01*
X0310433Y0115280D01*
X0310258Y0115093D01*
X0310088Y0114903D01*
X0309923Y0114709D01*
X0309762Y0114510D01*
X0309606Y0114308D01*
X0309455Y0114102D01*
X0309309Y0113892D01*
X0309169Y0113679D01*
X0309033Y0113463D01*
X0308903Y0113243D01*
X0308778Y0113020D01*
X0308659Y0112795D01*
X0308545Y0112566D01*
X0308437Y0112335D01*
X0308334Y0112101D01*
X0308237Y0111865D01*
X0308146Y0111626D01*
X0308061Y0111386D01*
X0307981Y0111143D01*
X0307908Y0110898D01*
X0307840Y0110652D01*
X0307779Y0110404D01*
X0307724Y0110155D01*
X0307674Y0109905D01*
X0307631Y0109653D01*
X0307594Y0109400D01*
X0307563Y0109147D01*
X0307538Y0108893D01*
X0307519Y0108638D01*
X0307507Y0108383D01*
X0307501Y0108128D01*
X0307501Y0107872D01*
X0307507Y0107617D01*
X0307519Y0107362D01*
X0307538Y0107107D01*
X0307563Y0106853D01*
X0307594Y0106600D01*
X0307631Y0106347D01*
X0307674Y0106095D01*
X0307724Y0105845D01*
X0307779Y0105596D01*
X0307840Y0105348D01*
X0307908Y0105102D01*
X0307981Y0104857D01*
X0308061Y0104614D01*
X0308146Y0104374D01*
X0308237Y0104135D01*
X0308334Y0103899D01*
X0308437Y0103665D01*
X0308545Y0103434D01*
X0308659Y0103205D01*
X0308778Y0102980D01*
X0308903Y0102757D01*
X0309033Y0102537D01*
X0309169Y0102321D01*
X0309309Y0102108D01*
X0309455Y0101898D01*
X0309606Y0101692D01*
X0309762Y0101490D01*
X0309923Y0101291D01*
X0310088Y0101097D01*
X0310258Y0100907D01*
X0310433Y0100720D01*
X0310612Y0100539D01*
X0310796Y0100361D01*
X0310984Y0100188D01*
X0311176Y0100020D01*
X0311372Y0099856D01*
X0311572Y0099698D01*
X0311776Y0099544D01*
X0311983Y0099395D01*
X0312194Y0099251D01*
X0312409Y0099113D01*
X0312626Y0098979D01*
X0312847Y0098851D01*
X0313071Y0098729D01*
X0313298Y0098612D01*
X0313528Y0098500D01*
X0306649Y0096250D02*
X0303646Y0096250D01*
X0305147Y0096250D02*
X0305147Y0100754D01*
X0303646Y0099253D01*
X0302045Y0100754D02*
X0299042Y0100754D01*
X0300543Y0100754D02*
X0300543Y0096250D01*
X0318500Y0102472D02*
X0318500Y0103528D01*
X0322472Y0098498D02*
X0322687Y0098602D01*
X0322900Y0098711D01*
X0323110Y0098825D01*
X0323317Y0098944D01*
X0323522Y0099067D01*
X0323724Y0099195D01*
X0323923Y0099328D01*
X0324118Y0099465D01*
X0324311Y0099606D01*
X0324500Y0099752D01*
X0308750Y0121042D02*
X0304246Y0121042D01*
X0304246Y0123294D01*
X0304997Y0124045D01*
X0306498Y0124045D01*
X0307249Y0123294D01*
X0307249Y0121042D01*
X0307249Y0122543D02*
X0308750Y0124045D01*
X0307999Y0125646D02*
X0308750Y0126397D01*
X0308750Y0127898D01*
X0307999Y0128649D01*
X0306498Y0128649D01*
X0305747Y0127898D01*
X0305747Y0127147D01*
X0306498Y0125646D01*
X0304246Y0125646D01*
X0304246Y0128649D01*
X0307246Y0136250D02*
X0307246Y0138502D01*
X0307997Y0139253D01*
X0309498Y0139253D01*
X0310249Y0138502D01*
X0310249Y0136250D01*
X0311750Y0136250D02*
X0307246Y0136250D01*
X0310249Y0137751D02*
X0311750Y0139253D01*
X0309498Y0140854D02*
X0309498Y0143856D01*
X0307246Y0143106D02*
X0309498Y0140854D01*
X0311750Y0143106D02*
X0307246Y0143106D01*
X0328750Y0158750D02*
X0328750Y0163254D01*
X0331002Y0163254D01*
X0331753Y0162503D01*
X0331753Y0161002D01*
X0331002Y0160251D01*
X0328750Y0160251D01*
X0333354Y0161002D02*
X0336356Y0161002D01*
X0336356Y0161753D02*
X0336356Y0158750D01*
X0337958Y0158750D02*
X0340210Y0158750D01*
X0340960Y0159501D01*
X0340960Y0162503D01*
X0340210Y0163254D01*
X0337958Y0163254D01*
X0337958Y0158750D01*
X0333354Y0158750D02*
X0333354Y0161753D01*
X0334855Y0163254D01*
X0336356Y0161753D01*
X0342562Y0161753D02*
X0344063Y0163254D01*
X0344063Y0158750D01*
X0342562Y0158750D02*
X0345564Y0158750D01*
X0341750Y0143856D02*
X0341750Y0140854D01*
X0338747Y0143856D01*
X0337997Y0143856D01*
X0337246Y0143106D01*
X0337246Y0141605D01*
X0337997Y0140854D01*
X0337997Y0139253D02*
X0339498Y0139253D01*
X0340249Y0138502D01*
X0340249Y0136250D01*
X0341750Y0136250D02*
X0337246Y0136250D01*
X0337246Y0138502D01*
X0337997Y0139253D01*
X0340249Y0137751D02*
X0341750Y0139253D01*
X0366746Y0137502D02*
X0366746Y0135250D01*
X0371250Y0135250D01*
X0371250Y0137502D01*
X0370499Y0138253D01*
X0367497Y0138253D01*
X0366746Y0137502D01*
X0368247Y0139854D02*
X0366746Y0141355D01*
X0371250Y0141355D01*
X0371250Y0139854D02*
X0371250Y0142856D01*
X0325564Y0183750D02*
X0322562Y0183750D01*
X0325564Y0186753D01*
X0325564Y0187503D01*
X0324814Y0188254D01*
X0323312Y0188254D01*
X0322562Y0187503D01*
X0320960Y0187503D02*
X0320960Y0184501D01*
X0320210Y0183750D01*
X0317958Y0183750D01*
X0317958Y0188254D01*
X0320210Y0188254D01*
X0320960Y0187503D01*
X0316356Y0186753D02*
X0314855Y0188254D01*
X0313354Y0186753D01*
X0313354Y0183750D01*
X0313354Y0186002D02*
X0316356Y0186002D01*
X0316356Y0186753D02*
X0316356Y0183750D01*
X0311753Y0186002D02*
X0311002Y0185251D01*
X0308750Y0185251D01*
X0308750Y0183750D02*
X0308750Y0188254D01*
X0311002Y0188254D01*
X0311753Y0187503D01*
X0311753Y0186002D01*
X0260924Y0168754D02*
X0260924Y0164250D01*
X0259423Y0164250D02*
X0262426Y0164250D01*
X0257822Y0165001D02*
X0257071Y0164250D01*
X0255570Y0164250D01*
X0254819Y0165001D01*
X0254819Y0168003D01*
X0255570Y0168754D01*
X0257071Y0168754D01*
X0257822Y0168003D01*
X0259423Y0167253D02*
X0260924Y0168754D01*
X0253251Y0168754D02*
X0251750Y0168754D01*
X0252501Y0168754D02*
X0252501Y0164250D01*
X0253251Y0164250D02*
X0251750Y0164250D01*
X0226250Y0151606D02*
X0226250Y0150105D01*
X0225499Y0149354D01*
X0223998Y0149354D01*
X0223998Y0151606D01*
X0224749Y0152356D01*
X0225499Y0152356D01*
X0226250Y0151606D01*
X0223998Y0149354D02*
X0222497Y0150855D01*
X0221746Y0152356D01*
X0222497Y0147753D02*
X0221746Y0147002D01*
X0221746Y0145501D01*
X0222497Y0144750D01*
X0225499Y0144750D01*
X0226250Y0145501D01*
X0226250Y0147002D01*
X0225499Y0147753D01*
X0208149Y0121754D02*
X0205146Y0121754D01*
X0205146Y0119502D01*
X0206647Y0120253D01*
X0207398Y0120253D01*
X0208149Y0119502D01*
X0208149Y0118001D01*
X0207398Y0117250D01*
X0205897Y0117250D01*
X0205146Y0118001D01*
X0203545Y0118001D02*
X0202794Y0117250D01*
X0201293Y0117250D01*
X0200542Y0118001D01*
X0200542Y0121003D01*
X0201293Y0121754D01*
X0202794Y0121754D01*
X0203545Y0121003D01*
X0198974Y0121754D02*
X0197473Y0121754D01*
X0198223Y0121754D02*
X0198223Y0117250D01*
X0197473Y0117250D02*
X0198974Y0117250D01*
X0197543Y0106754D02*
X0197543Y0102250D01*
X0196042Y0102250D02*
X0199045Y0102250D01*
X0200646Y0102250D02*
X0203649Y0102250D01*
X0202147Y0102250D02*
X0202147Y0106754D01*
X0200646Y0105253D01*
X0197543Y0106754D02*
X0196042Y0105253D01*
X0194441Y0106003D02*
X0194441Y0104502D01*
X0193690Y0103751D01*
X0191438Y0103751D01*
X0191438Y0102250D02*
X0191438Y0106754D01*
X0193690Y0106754D01*
X0194441Y0106003D01*
X0192939Y0103751D02*
X0194441Y0102250D01*
X0204751Y0099254D02*
X0206253Y0099254D01*
X0205502Y0099254D02*
X0205502Y0095501D01*
X0204751Y0094750D01*
X0204001Y0094750D01*
X0203250Y0095501D01*
X0207854Y0096251D02*
X0210106Y0096251D01*
X0210856Y0097002D01*
X0210856Y0098503D01*
X0210106Y0099254D01*
X0207854Y0099254D01*
X0207854Y0094750D01*
X0212458Y0095501D02*
X0213208Y0094750D01*
X0214710Y0094750D01*
X0215460Y0095501D01*
X0215460Y0096251D01*
X0214710Y0097002D01*
X0213959Y0097002D01*
X0214710Y0097002D02*
X0215460Y0097753D01*
X0215460Y0098503D01*
X0214710Y0099254D01*
X0213208Y0099254D01*
X0212458Y0098503D01*
X0239746Y0103293D02*
X0240497Y0102542D01*
X0243499Y0102542D01*
X0244250Y0103293D01*
X0244250Y0104794D01*
X0243499Y0105545D01*
X0244250Y0107146D02*
X0241247Y0110149D01*
X0240497Y0110149D01*
X0239746Y0109398D01*
X0239746Y0107897D01*
X0240497Y0107146D01*
X0240497Y0105545D02*
X0239746Y0104794D01*
X0239746Y0103293D01*
X0244250Y0107146D02*
X0244250Y0110149D01*
X0254751Y0099254D02*
X0256253Y0099254D01*
X0255502Y0099254D02*
X0255502Y0095501D01*
X0254751Y0094750D01*
X0254001Y0094750D01*
X0253250Y0095501D01*
X0257854Y0096251D02*
X0260106Y0096251D01*
X0260856Y0097002D01*
X0260856Y0098503D01*
X0260106Y0099254D01*
X0257854Y0099254D01*
X0257854Y0094750D01*
X0262458Y0094750D02*
X0265460Y0094750D01*
X0263959Y0094750D02*
X0263959Y0099254D01*
X0262458Y0097753D01*
X0267542Y0102501D02*
X0268293Y0101750D01*
X0269794Y0101750D01*
X0270545Y0102501D01*
X0272146Y0102501D02*
X0272146Y0101750D01*
X0272146Y0102501D02*
X0275149Y0105503D01*
X0275149Y0106254D01*
X0272146Y0106254D01*
X0270545Y0105503D02*
X0269794Y0106254D01*
X0268293Y0106254D01*
X0267542Y0105503D01*
X0267542Y0102501D01*
X0245898Y0081254D02*
X0244397Y0081254D01*
X0243646Y0080503D01*
X0242045Y0080503D02*
X0242045Y0079002D01*
X0241294Y0078251D01*
X0239042Y0078251D01*
X0239042Y0076750D02*
X0239042Y0081254D01*
X0241294Y0081254D01*
X0242045Y0080503D01*
X0245898Y0081254D02*
X0246649Y0080503D01*
X0246649Y0079753D01*
X0243646Y0076750D01*
X0246649Y0076750D01*
X0236690Y0077501D02*
X0236690Y0081254D01*
X0235939Y0081254D02*
X0237441Y0081254D01*
X0236690Y0077501D02*
X0235939Y0076750D01*
X0235189Y0076750D01*
X0234438Y0077501D01*
X0244997Y0058149D02*
X0245747Y0058149D01*
X0246498Y0057398D01*
X0247249Y0058149D01*
X0247999Y0058149D01*
X0248750Y0057398D01*
X0248750Y0055897D01*
X0247999Y0055146D01*
X0247999Y0053545D02*
X0248750Y0052794D01*
X0248750Y0051293D01*
X0247999Y0050542D01*
X0244997Y0050542D01*
X0244246Y0051293D01*
X0244246Y0052794D01*
X0244997Y0053545D01*
X0244997Y0055146D02*
X0244246Y0055897D01*
X0244246Y0057398D01*
X0244997Y0058149D01*
X0246498Y0057398D02*
X0246498Y0056647D01*
X0244246Y0048974D02*
X0244246Y0047473D01*
X0244246Y0048223D02*
X0248750Y0048223D01*
X0248750Y0047473D02*
X0248750Y0048974D01*
X0248247Y0037356D02*
X0248998Y0036606D01*
X0249749Y0037356D01*
X0250499Y0037356D01*
X0251250Y0036606D01*
X0251250Y0035105D01*
X0250499Y0034354D01*
X0250499Y0032753D02*
X0251250Y0032002D01*
X0251250Y0030501D01*
X0250499Y0029750D01*
X0247497Y0029750D01*
X0246746Y0030501D01*
X0246746Y0032002D01*
X0247497Y0032753D01*
X0247497Y0034354D02*
X0246746Y0035105D01*
X0246746Y0036606D01*
X0247497Y0037356D01*
X0248247Y0037356D01*
X0248998Y0036606D02*
X0248998Y0035855D01*
X0234398Y0011254D02*
X0232146Y0009002D01*
X0235149Y0009002D01*
X0234398Y0006750D02*
X0234398Y0011254D01*
X0230545Y0010503D02*
X0229794Y0011254D01*
X0228293Y0011254D01*
X0227542Y0010503D01*
X0227542Y0007501D01*
X0228293Y0006750D01*
X0229794Y0006750D01*
X0230545Y0007501D01*
X0302542Y0007501D02*
X0303293Y0006750D01*
X0304794Y0006750D01*
X0305545Y0007501D01*
X0307146Y0007501D02*
X0307897Y0006750D01*
X0309398Y0006750D01*
X0310149Y0007501D01*
X0310149Y0010503D01*
X0309398Y0011254D01*
X0307897Y0011254D01*
X0307146Y0010503D01*
X0307146Y0009753D01*
X0307897Y0009002D01*
X0310149Y0009002D01*
X0305545Y0010503D02*
X0304794Y0011254D01*
X0303293Y0011254D01*
X0302542Y0010503D01*
X0302542Y0007501D01*
X0377000Y0038500D02*
X0388500Y0038000D01*
X0333750Y0056042D02*
X0329246Y0056042D01*
X0329246Y0058294D01*
X0329997Y0059045D01*
X0331498Y0059045D01*
X0332249Y0058294D01*
X0332249Y0056042D01*
X0332249Y0057543D02*
X0333750Y0059045D01*
X0332999Y0060646D02*
X0333750Y0061397D01*
X0333750Y0062898D01*
X0332999Y0063649D01*
X0332249Y0063649D01*
X0331498Y0062898D01*
X0331498Y0060646D01*
X0332999Y0060646D01*
X0331498Y0060646D02*
X0329997Y0062147D01*
X0329246Y0063649D01*
X0305149Y0072501D02*
X0304398Y0071750D01*
X0302897Y0071750D01*
X0302146Y0072501D01*
X0302146Y0073251D01*
X0302897Y0074002D01*
X0304398Y0074002D01*
X0305149Y0073251D01*
X0305149Y0072501D01*
X0304398Y0074002D02*
X0305149Y0074753D01*
X0305149Y0075503D01*
X0304398Y0076254D01*
X0302897Y0076254D01*
X0302146Y0075503D01*
X0302146Y0074753D01*
X0302897Y0074002D01*
X0300545Y0075503D02*
X0299794Y0076254D01*
X0298293Y0076254D01*
X0297542Y0075503D01*
X0297542Y0072501D01*
X0298293Y0071750D01*
X0299794Y0071750D01*
X0300545Y0072501D01*
X0292426Y0072253D02*
X0292426Y0073003D01*
X0291675Y0073754D01*
X0290174Y0073754D01*
X0289423Y0073003D01*
X0287822Y0073003D02*
X0287071Y0073754D01*
X0285570Y0073754D01*
X0284819Y0073003D01*
X0284819Y0070001D01*
X0285570Y0069250D01*
X0287071Y0069250D01*
X0287822Y0070001D01*
X0289423Y0069250D02*
X0292426Y0072253D01*
X0292426Y0069250D02*
X0289423Y0069250D01*
X0283251Y0069250D02*
X0281750Y0069250D01*
X0282501Y0069250D02*
X0282501Y0073754D01*
X0283251Y0073754D02*
X0281750Y0073754D01*
X0183460Y0063003D02*
X0183460Y0060001D01*
X0182710Y0059250D01*
X0181208Y0059250D01*
X0180458Y0060001D01*
X0183460Y0063003D01*
X0182710Y0063754D01*
X0181208Y0063754D01*
X0180458Y0063003D01*
X0180458Y0060001D01*
X0178856Y0059250D02*
X0175854Y0059250D01*
X0177355Y0059250D02*
X0177355Y0063754D01*
X0175854Y0062253D01*
X0174253Y0063003D02*
X0174253Y0061502D01*
X0173502Y0060751D01*
X0171250Y0060751D01*
X0171250Y0059250D02*
X0171250Y0063754D01*
X0173502Y0063754D01*
X0174253Y0063003D01*
X0172751Y0060751D02*
X0174253Y0059250D01*
X0147564Y0069502D02*
X0144562Y0069502D01*
X0142960Y0071754D02*
X0139958Y0071754D01*
X0141459Y0071754D02*
X0141459Y0067250D01*
X0138356Y0067250D02*
X0138356Y0070253D01*
X0136855Y0071754D01*
X0135354Y0070253D01*
X0135354Y0067250D01*
X0133753Y0068001D02*
X0133753Y0068751D01*
X0133002Y0069502D01*
X0130750Y0069502D01*
X0130750Y0067250D02*
X0130750Y0071754D01*
X0133002Y0071754D01*
X0133753Y0071003D01*
X0133753Y0070253D01*
X0133002Y0069502D01*
X0133753Y0068001D02*
X0133002Y0067250D01*
X0130750Y0067250D01*
X0135354Y0069502D02*
X0138356Y0069502D01*
X0142689Y0115750D02*
X0141938Y0116501D01*
X0142689Y0115750D02*
X0144190Y0115750D01*
X0144941Y0116501D01*
X0144941Y0117251D01*
X0144190Y0118002D01*
X0142689Y0118002D01*
X0141938Y0118753D01*
X0141938Y0119503D01*
X0142689Y0120254D01*
X0144190Y0120254D01*
X0144941Y0119503D01*
X0146542Y0120254D02*
X0146542Y0115750D01*
X0146542Y0118002D02*
X0149545Y0118002D01*
X0151146Y0119503D02*
X0151897Y0120254D01*
X0153398Y0120254D01*
X0154149Y0119503D01*
X0154149Y0118753D01*
X0153398Y0118002D01*
X0154149Y0117251D01*
X0154149Y0116501D01*
X0153398Y0115750D01*
X0151897Y0115750D01*
X0151146Y0116501D01*
X0149545Y0115750D02*
X0149545Y0120254D01*
X0152647Y0118002D02*
X0153398Y0118002D01*
X0156250Y0154250D02*
X0156250Y0158754D01*
X0158502Y0158754D01*
X0159253Y0158003D01*
X0159253Y0156502D01*
X0158502Y0155751D01*
X0156250Y0155751D01*
X0157751Y0155751D02*
X0159253Y0154250D01*
X0160854Y0154250D02*
X0163856Y0154250D01*
X0162355Y0154250D02*
X0162355Y0158754D01*
X0160854Y0157253D01*
X0165458Y0158003D02*
X0166208Y0158754D01*
X0167710Y0158754D01*
X0168460Y0158003D01*
X0168460Y0157253D01*
X0165458Y0154250D01*
X0168460Y0154250D01*
X0185501Y0179750D02*
X0187002Y0179750D01*
X0187753Y0180501D01*
X0189354Y0180501D02*
X0190105Y0179750D01*
X0191606Y0179750D01*
X0192356Y0180501D01*
X0192356Y0182002D01*
X0191606Y0182753D01*
X0190855Y0182753D01*
X0189354Y0182002D01*
X0189354Y0184254D01*
X0192356Y0184254D01*
X0187753Y0183503D02*
X0187002Y0184254D01*
X0185501Y0184254D01*
X0184750Y0183503D01*
X0184750Y0180501D01*
X0185501Y0179750D01*
X0026649Y0165803D02*
X0026649Y0165053D01*
X0025898Y0164302D01*
X0026649Y0163551D01*
X0026649Y0162801D01*
X0025898Y0162050D01*
X0024397Y0162050D01*
X0023646Y0162801D01*
X0022045Y0162801D02*
X0021294Y0162050D01*
X0019793Y0162050D01*
X0019042Y0162801D01*
X0019042Y0165803D01*
X0019793Y0166554D01*
X0021294Y0166554D01*
X0022045Y0165803D01*
X0022045Y0162801D01*
X0022045Y0162050D02*
X0020543Y0163551D01*
X0023646Y0165803D02*
X0024397Y0166554D01*
X0025898Y0166554D01*
X0026649Y0165803D01*
X0025898Y0164302D02*
X0025147Y0164302D01*
X0024397Y0111554D02*
X0023646Y0110803D01*
X0024397Y0111554D02*
X0025898Y0111554D01*
X0026649Y0110803D01*
X0026649Y0110053D01*
X0023646Y0107050D01*
X0026649Y0107050D01*
X0022045Y0107050D02*
X0020543Y0108551D01*
X0019793Y0107050D02*
X0019042Y0107801D01*
X0019042Y0110803D01*
X0019793Y0111554D01*
X0021294Y0111554D01*
X0022045Y0110803D01*
X0022045Y0107801D01*
X0021294Y0107050D01*
X0019793Y0107050D01*
X0019793Y0061554D02*
X0021294Y0061554D01*
X0022045Y0060803D01*
X0022045Y0057801D01*
X0021294Y0057050D01*
X0019793Y0057050D01*
X0019042Y0057801D01*
X0019042Y0060803D01*
X0019793Y0061554D01*
X0023646Y0060053D02*
X0025147Y0061554D01*
X0025147Y0057050D01*
X0023646Y0057050D02*
X0026649Y0057050D01*
X0022045Y0057050D02*
X0020543Y0058551D01*
D13*
X0370750Y0098000D03*
D14*
X0294200Y0085500D02*
X0294200Y0083000D01*
X0294200Y0080500D01*
X0291700Y0080500D02*
X0291700Y0083000D01*
X0291700Y0085500D01*
X0264200Y0110500D02*
X0264200Y0113000D01*
X0264200Y0115500D01*
X0261700Y0115500D02*
X0261700Y0113000D01*
X0261700Y0110500D01*
X0235500Y0116700D02*
X0233000Y0116700D01*
X0230500Y0116700D01*
X0230500Y0119200D02*
X0233000Y0119200D01*
X0235500Y0119200D01*
X0235500Y0156800D02*
X0233000Y0156800D01*
X0230500Y0156800D01*
X0230500Y0159300D02*
X0233000Y0159300D01*
X0235500Y0159300D01*
X0199300Y0170500D02*
X0199300Y0173000D01*
X0199300Y0175500D01*
X0196800Y0175500D02*
X0196800Y0173000D01*
X0196800Y0170500D01*
X0255500Y0044300D02*
X0258000Y0044300D01*
X0260500Y0044300D01*
X0260500Y0041800D02*
X0258000Y0041800D01*
X0255500Y0041800D01*
X0224200Y0020500D02*
X0224200Y0018000D01*
X0224200Y0015500D01*
X0221700Y0015500D02*
X0221700Y0018000D01*
X0221700Y0020500D01*
X0296700Y0020500D02*
X0296700Y0018000D01*
X0296700Y0015500D01*
X0299200Y0015500D02*
X0299200Y0018000D01*
X0299200Y0020500D01*
X0371700Y0020500D02*
X0371700Y0018000D01*
X0371700Y0015500D01*
X0374200Y0015500D02*
X0374200Y0018000D01*
X0374200Y0020500D01*
D15*
X0364883Y0181861D02*
X0363348Y0181861D01*
X0364115Y0181861D02*
X0364115Y0186465D01*
X0363348Y0186465D02*
X0364883Y0186465D01*
X0361813Y0186465D02*
X0358744Y0186465D01*
X0360279Y0186465D02*
X0360279Y0181861D01*
X0357209Y0182629D02*
X0356442Y0181861D01*
X0354907Y0181861D01*
X0354140Y0182629D01*
X0354140Y0185698D01*
X0354907Y0186465D01*
X0356442Y0186465D01*
X0357209Y0185698D01*
X0352605Y0186465D02*
X0349536Y0186465D01*
X0349536Y0181861D01*
X0352605Y0181861D01*
X0351071Y0184163D02*
X0349536Y0184163D01*
X0348002Y0184163D02*
X0347234Y0183396D01*
X0344932Y0183396D01*
X0344932Y0181861D02*
X0344932Y0186465D01*
X0347234Y0186465D01*
X0348002Y0185698D01*
X0348002Y0184163D01*
X0346467Y0183396D02*
X0348002Y0181861D01*
X0366417Y0184163D02*
X0369487Y0184163D01*
X0367952Y0185698D02*
X0367952Y0182629D01*
X0092110Y0184163D02*
X0089041Y0184163D01*
X0085972Y0184163D02*
X0084437Y0184163D01*
X0084437Y0181861D02*
X0084437Y0186465D01*
X0087506Y0186465D01*
X0082902Y0186465D02*
X0081368Y0186465D01*
X0082135Y0186465D02*
X0082135Y0181861D01*
X0081368Y0181861D02*
X0082902Y0181861D01*
X0078298Y0181861D02*
X0078298Y0186465D01*
X0076764Y0186465D02*
X0079833Y0186465D01*
X0075229Y0185698D02*
X0074462Y0186465D01*
X0072927Y0186465D01*
X0072160Y0185698D01*
X0072160Y0182629D01*
X0072927Y0181861D01*
X0074462Y0181861D01*
X0075229Y0182629D01*
X0070625Y0181861D02*
X0067556Y0181861D01*
X0067556Y0186465D01*
X0070625Y0186465D01*
X0066021Y0185698D02*
X0066021Y0184163D01*
X0065254Y0183396D01*
X0062952Y0183396D01*
X0064487Y0183396D02*
X0066021Y0181861D01*
X0067556Y0184163D02*
X0069090Y0184163D01*
X0066021Y0185698D02*
X0065254Y0186465D01*
X0062952Y0186465D01*
X0062952Y0181861D01*
X0058348Y0181861D02*
X0061417Y0186465D01*
X0056813Y0184163D02*
X0053744Y0184163D01*
X0052209Y0184163D02*
X0051442Y0183396D01*
X0049140Y0183396D01*
X0049140Y0181861D02*
X0049140Y0186465D01*
X0051442Y0186465D01*
X0052209Y0185698D01*
X0052209Y0184163D01*
X0047605Y0184163D02*
X0044536Y0184163D01*
X0044536Y0184931D02*
X0044536Y0181861D01*
X0043002Y0182629D02*
X0042234Y0181861D01*
X0040700Y0181861D01*
X0039932Y0182629D01*
X0039932Y0185698D01*
X0040700Y0186465D01*
X0042234Y0186465D01*
X0043002Y0185698D01*
X0044536Y0184931D02*
X0046071Y0186465D01*
X0047605Y0184931D01*
X0047605Y0181861D01*
D16*
X0047600Y0130300D03*
X0047600Y0075300D03*
X0047600Y0025300D03*
D17*
X0034500Y0043000D03*
X0034500Y0093000D03*
X0034500Y0148000D03*
X0391500Y0058000D03*
D18*
X0389000Y0040750D03*
X0389000Y0075250D03*
X0037000Y0075750D03*
X0037000Y0060250D03*
X0037000Y0025750D03*
X0037000Y0110250D03*
X0037000Y0130750D03*
X0037000Y0165250D03*
D19*
X0037000Y0153000D03*
X0037000Y0143000D03*
X0037000Y0098000D03*
X0037000Y0088000D03*
X0037000Y0048000D03*
X0037000Y0038000D03*
X0389000Y0053000D03*
X0389000Y0063000D03*
D20*
X0348000Y0083800D03*
X0323000Y0067200D03*
X0323000Y0038800D03*
X0298000Y0103800D03*
X0348000Y0112200D03*
X0348000Y0133800D03*
X0318000Y0133800D03*
X0298000Y0132200D03*
X0318000Y0162200D03*
X0348000Y0162200D03*
X0188000Y0107200D03*
X0188000Y0078800D03*
X0188000Y0057200D03*
X0188000Y0028800D03*
X0173000Y0143800D03*
X0173000Y0172200D03*
D21*
X0158300Y0123000D02*
X0047700Y0123000D01*
D22*
X0378000Y0137500D03*
D23*
X0378000Y0131250D03*
X0378000Y0154750D03*
M02*
