G75*
%MOIN*%
%OFA0B0*%
%FSLAX25Y25*%
%IPPOS*%
%LPD*%
%AMOC8*
5,1,8,0,0,1.08239X$1,22.5*
%
%ADD10C,0.00000*%
%ADD11C,0.00600*%
%ADD12C,0.02400*%
%ADD13C,0.00500*%
D10*
X0003000Y0003000D02*
X0003000Y0193000D01*
X0393000Y0193000D01*
X0393000Y0003000D01*
X0003000Y0003000D01*
X0011701Y0018000D02*
X0011703Y0018158D01*
X0011709Y0018316D01*
X0011719Y0018474D01*
X0011733Y0018632D01*
X0011751Y0018789D01*
X0011772Y0018946D01*
X0011798Y0019102D01*
X0011828Y0019258D01*
X0011861Y0019413D01*
X0011899Y0019566D01*
X0011940Y0019719D01*
X0011985Y0019871D01*
X0012034Y0020022D01*
X0012087Y0020171D01*
X0012143Y0020319D01*
X0012203Y0020465D01*
X0012267Y0020610D01*
X0012335Y0020753D01*
X0012406Y0020895D01*
X0012480Y0021035D01*
X0012558Y0021172D01*
X0012640Y0021308D01*
X0012724Y0021442D01*
X0012813Y0021573D01*
X0012904Y0021702D01*
X0012999Y0021829D01*
X0013096Y0021954D01*
X0013197Y0022076D01*
X0013301Y0022195D01*
X0013408Y0022312D01*
X0013518Y0022426D01*
X0013631Y0022537D01*
X0013746Y0022646D01*
X0013864Y0022751D01*
X0013985Y0022853D01*
X0014108Y0022953D01*
X0014234Y0023049D01*
X0014362Y0023142D01*
X0014492Y0023232D01*
X0014625Y0023318D01*
X0014760Y0023402D01*
X0014896Y0023481D01*
X0015035Y0023558D01*
X0015176Y0023630D01*
X0015318Y0023700D01*
X0015462Y0023765D01*
X0015608Y0023827D01*
X0015755Y0023885D01*
X0015904Y0023940D01*
X0016054Y0023991D01*
X0016205Y0024038D01*
X0016357Y0024081D01*
X0016510Y0024120D01*
X0016665Y0024156D01*
X0016820Y0024187D01*
X0016976Y0024215D01*
X0017132Y0024239D01*
X0017289Y0024259D01*
X0017447Y0024275D01*
X0017604Y0024287D01*
X0017763Y0024295D01*
X0017921Y0024299D01*
X0018079Y0024299D01*
X0018237Y0024295D01*
X0018396Y0024287D01*
X0018553Y0024275D01*
X0018711Y0024259D01*
X0018868Y0024239D01*
X0019024Y0024215D01*
X0019180Y0024187D01*
X0019335Y0024156D01*
X0019490Y0024120D01*
X0019643Y0024081D01*
X0019795Y0024038D01*
X0019946Y0023991D01*
X0020096Y0023940D01*
X0020245Y0023885D01*
X0020392Y0023827D01*
X0020538Y0023765D01*
X0020682Y0023700D01*
X0020824Y0023630D01*
X0020965Y0023558D01*
X0021104Y0023481D01*
X0021240Y0023402D01*
X0021375Y0023318D01*
X0021508Y0023232D01*
X0021638Y0023142D01*
X0021766Y0023049D01*
X0021892Y0022953D01*
X0022015Y0022853D01*
X0022136Y0022751D01*
X0022254Y0022646D01*
X0022369Y0022537D01*
X0022482Y0022426D01*
X0022592Y0022312D01*
X0022699Y0022195D01*
X0022803Y0022076D01*
X0022904Y0021954D01*
X0023001Y0021829D01*
X0023096Y0021702D01*
X0023187Y0021573D01*
X0023276Y0021442D01*
X0023360Y0021308D01*
X0023442Y0021172D01*
X0023520Y0021035D01*
X0023594Y0020895D01*
X0023665Y0020753D01*
X0023733Y0020610D01*
X0023797Y0020465D01*
X0023857Y0020319D01*
X0023913Y0020171D01*
X0023966Y0020022D01*
X0024015Y0019871D01*
X0024060Y0019719D01*
X0024101Y0019566D01*
X0024139Y0019413D01*
X0024172Y0019258D01*
X0024202Y0019102D01*
X0024228Y0018946D01*
X0024249Y0018789D01*
X0024267Y0018632D01*
X0024281Y0018474D01*
X0024291Y0018316D01*
X0024297Y0018158D01*
X0024299Y0018000D01*
X0024297Y0017842D01*
X0024291Y0017684D01*
X0024281Y0017526D01*
X0024267Y0017368D01*
X0024249Y0017211D01*
X0024228Y0017054D01*
X0024202Y0016898D01*
X0024172Y0016742D01*
X0024139Y0016587D01*
X0024101Y0016434D01*
X0024060Y0016281D01*
X0024015Y0016129D01*
X0023966Y0015978D01*
X0023913Y0015829D01*
X0023857Y0015681D01*
X0023797Y0015535D01*
X0023733Y0015390D01*
X0023665Y0015247D01*
X0023594Y0015105D01*
X0023520Y0014965D01*
X0023442Y0014828D01*
X0023360Y0014692D01*
X0023276Y0014558D01*
X0023187Y0014427D01*
X0023096Y0014298D01*
X0023001Y0014171D01*
X0022904Y0014046D01*
X0022803Y0013924D01*
X0022699Y0013805D01*
X0022592Y0013688D01*
X0022482Y0013574D01*
X0022369Y0013463D01*
X0022254Y0013354D01*
X0022136Y0013249D01*
X0022015Y0013147D01*
X0021892Y0013047D01*
X0021766Y0012951D01*
X0021638Y0012858D01*
X0021508Y0012768D01*
X0021375Y0012682D01*
X0021240Y0012598D01*
X0021104Y0012519D01*
X0020965Y0012442D01*
X0020824Y0012370D01*
X0020682Y0012300D01*
X0020538Y0012235D01*
X0020392Y0012173D01*
X0020245Y0012115D01*
X0020096Y0012060D01*
X0019946Y0012009D01*
X0019795Y0011962D01*
X0019643Y0011919D01*
X0019490Y0011880D01*
X0019335Y0011844D01*
X0019180Y0011813D01*
X0019024Y0011785D01*
X0018868Y0011761D01*
X0018711Y0011741D01*
X0018553Y0011725D01*
X0018396Y0011713D01*
X0018237Y0011705D01*
X0018079Y0011701D01*
X0017921Y0011701D01*
X0017763Y0011705D01*
X0017604Y0011713D01*
X0017447Y0011725D01*
X0017289Y0011741D01*
X0017132Y0011761D01*
X0016976Y0011785D01*
X0016820Y0011813D01*
X0016665Y0011844D01*
X0016510Y0011880D01*
X0016357Y0011919D01*
X0016205Y0011962D01*
X0016054Y0012009D01*
X0015904Y0012060D01*
X0015755Y0012115D01*
X0015608Y0012173D01*
X0015462Y0012235D01*
X0015318Y0012300D01*
X0015176Y0012370D01*
X0015035Y0012442D01*
X0014896Y0012519D01*
X0014760Y0012598D01*
X0014625Y0012682D01*
X0014492Y0012768D01*
X0014362Y0012858D01*
X0014234Y0012951D01*
X0014108Y0013047D01*
X0013985Y0013147D01*
X0013864Y0013249D01*
X0013746Y0013354D01*
X0013631Y0013463D01*
X0013518Y0013574D01*
X0013408Y0013688D01*
X0013301Y0013805D01*
X0013197Y0013924D01*
X0013096Y0014046D01*
X0012999Y0014171D01*
X0012904Y0014298D01*
X0012813Y0014427D01*
X0012724Y0014558D01*
X0012640Y0014692D01*
X0012558Y0014828D01*
X0012480Y0014965D01*
X0012406Y0015105D01*
X0012335Y0015247D01*
X0012267Y0015390D01*
X0012203Y0015535D01*
X0012143Y0015681D01*
X0012087Y0015829D01*
X0012034Y0015978D01*
X0011985Y0016129D01*
X0011940Y0016281D01*
X0011899Y0016434D01*
X0011861Y0016587D01*
X0011828Y0016742D01*
X0011798Y0016898D01*
X0011772Y0017054D01*
X0011751Y0017211D01*
X0011733Y0017368D01*
X0011719Y0017526D01*
X0011709Y0017684D01*
X0011703Y0017842D01*
X0011701Y0018000D01*
X0156701Y0038000D02*
X0156703Y0038158D01*
X0156709Y0038316D01*
X0156719Y0038474D01*
X0156733Y0038632D01*
X0156751Y0038789D01*
X0156772Y0038946D01*
X0156798Y0039102D01*
X0156828Y0039258D01*
X0156861Y0039413D01*
X0156899Y0039566D01*
X0156940Y0039719D01*
X0156985Y0039871D01*
X0157034Y0040022D01*
X0157087Y0040171D01*
X0157143Y0040319D01*
X0157203Y0040465D01*
X0157267Y0040610D01*
X0157335Y0040753D01*
X0157406Y0040895D01*
X0157480Y0041035D01*
X0157558Y0041172D01*
X0157640Y0041308D01*
X0157724Y0041442D01*
X0157813Y0041573D01*
X0157904Y0041702D01*
X0157999Y0041829D01*
X0158096Y0041954D01*
X0158197Y0042076D01*
X0158301Y0042195D01*
X0158408Y0042312D01*
X0158518Y0042426D01*
X0158631Y0042537D01*
X0158746Y0042646D01*
X0158864Y0042751D01*
X0158985Y0042853D01*
X0159108Y0042953D01*
X0159234Y0043049D01*
X0159362Y0043142D01*
X0159492Y0043232D01*
X0159625Y0043318D01*
X0159760Y0043402D01*
X0159896Y0043481D01*
X0160035Y0043558D01*
X0160176Y0043630D01*
X0160318Y0043700D01*
X0160462Y0043765D01*
X0160608Y0043827D01*
X0160755Y0043885D01*
X0160904Y0043940D01*
X0161054Y0043991D01*
X0161205Y0044038D01*
X0161357Y0044081D01*
X0161510Y0044120D01*
X0161665Y0044156D01*
X0161820Y0044187D01*
X0161976Y0044215D01*
X0162132Y0044239D01*
X0162289Y0044259D01*
X0162447Y0044275D01*
X0162604Y0044287D01*
X0162763Y0044295D01*
X0162921Y0044299D01*
X0163079Y0044299D01*
X0163237Y0044295D01*
X0163396Y0044287D01*
X0163553Y0044275D01*
X0163711Y0044259D01*
X0163868Y0044239D01*
X0164024Y0044215D01*
X0164180Y0044187D01*
X0164335Y0044156D01*
X0164490Y0044120D01*
X0164643Y0044081D01*
X0164795Y0044038D01*
X0164946Y0043991D01*
X0165096Y0043940D01*
X0165245Y0043885D01*
X0165392Y0043827D01*
X0165538Y0043765D01*
X0165682Y0043700D01*
X0165824Y0043630D01*
X0165965Y0043558D01*
X0166104Y0043481D01*
X0166240Y0043402D01*
X0166375Y0043318D01*
X0166508Y0043232D01*
X0166638Y0043142D01*
X0166766Y0043049D01*
X0166892Y0042953D01*
X0167015Y0042853D01*
X0167136Y0042751D01*
X0167254Y0042646D01*
X0167369Y0042537D01*
X0167482Y0042426D01*
X0167592Y0042312D01*
X0167699Y0042195D01*
X0167803Y0042076D01*
X0167904Y0041954D01*
X0168001Y0041829D01*
X0168096Y0041702D01*
X0168187Y0041573D01*
X0168276Y0041442D01*
X0168360Y0041308D01*
X0168442Y0041172D01*
X0168520Y0041035D01*
X0168594Y0040895D01*
X0168665Y0040753D01*
X0168733Y0040610D01*
X0168797Y0040465D01*
X0168857Y0040319D01*
X0168913Y0040171D01*
X0168966Y0040022D01*
X0169015Y0039871D01*
X0169060Y0039719D01*
X0169101Y0039566D01*
X0169139Y0039413D01*
X0169172Y0039258D01*
X0169202Y0039102D01*
X0169228Y0038946D01*
X0169249Y0038789D01*
X0169267Y0038632D01*
X0169281Y0038474D01*
X0169291Y0038316D01*
X0169297Y0038158D01*
X0169299Y0038000D01*
X0169297Y0037842D01*
X0169291Y0037684D01*
X0169281Y0037526D01*
X0169267Y0037368D01*
X0169249Y0037211D01*
X0169228Y0037054D01*
X0169202Y0036898D01*
X0169172Y0036742D01*
X0169139Y0036587D01*
X0169101Y0036434D01*
X0169060Y0036281D01*
X0169015Y0036129D01*
X0168966Y0035978D01*
X0168913Y0035829D01*
X0168857Y0035681D01*
X0168797Y0035535D01*
X0168733Y0035390D01*
X0168665Y0035247D01*
X0168594Y0035105D01*
X0168520Y0034965D01*
X0168442Y0034828D01*
X0168360Y0034692D01*
X0168276Y0034558D01*
X0168187Y0034427D01*
X0168096Y0034298D01*
X0168001Y0034171D01*
X0167904Y0034046D01*
X0167803Y0033924D01*
X0167699Y0033805D01*
X0167592Y0033688D01*
X0167482Y0033574D01*
X0167369Y0033463D01*
X0167254Y0033354D01*
X0167136Y0033249D01*
X0167015Y0033147D01*
X0166892Y0033047D01*
X0166766Y0032951D01*
X0166638Y0032858D01*
X0166508Y0032768D01*
X0166375Y0032682D01*
X0166240Y0032598D01*
X0166104Y0032519D01*
X0165965Y0032442D01*
X0165824Y0032370D01*
X0165682Y0032300D01*
X0165538Y0032235D01*
X0165392Y0032173D01*
X0165245Y0032115D01*
X0165096Y0032060D01*
X0164946Y0032009D01*
X0164795Y0031962D01*
X0164643Y0031919D01*
X0164490Y0031880D01*
X0164335Y0031844D01*
X0164180Y0031813D01*
X0164024Y0031785D01*
X0163868Y0031761D01*
X0163711Y0031741D01*
X0163553Y0031725D01*
X0163396Y0031713D01*
X0163237Y0031705D01*
X0163079Y0031701D01*
X0162921Y0031701D01*
X0162763Y0031705D01*
X0162604Y0031713D01*
X0162447Y0031725D01*
X0162289Y0031741D01*
X0162132Y0031761D01*
X0161976Y0031785D01*
X0161820Y0031813D01*
X0161665Y0031844D01*
X0161510Y0031880D01*
X0161357Y0031919D01*
X0161205Y0031962D01*
X0161054Y0032009D01*
X0160904Y0032060D01*
X0160755Y0032115D01*
X0160608Y0032173D01*
X0160462Y0032235D01*
X0160318Y0032300D01*
X0160176Y0032370D01*
X0160035Y0032442D01*
X0159896Y0032519D01*
X0159760Y0032598D01*
X0159625Y0032682D01*
X0159492Y0032768D01*
X0159362Y0032858D01*
X0159234Y0032951D01*
X0159108Y0033047D01*
X0158985Y0033147D01*
X0158864Y0033249D01*
X0158746Y0033354D01*
X0158631Y0033463D01*
X0158518Y0033574D01*
X0158408Y0033688D01*
X0158301Y0033805D01*
X0158197Y0033924D01*
X0158096Y0034046D01*
X0157999Y0034171D01*
X0157904Y0034298D01*
X0157813Y0034427D01*
X0157724Y0034558D01*
X0157640Y0034692D01*
X0157558Y0034828D01*
X0157480Y0034965D01*
X0157406Y0035105D01*
X0157335Y0035247D01*
X0157267Y0035390D01*
X0157203Y0035535D01*
X0157143Y0035681D01*
X0157087Y0035829D01*
X0157034Y0035978D01*
X0156985Y0036129D01*
X0156940Y0036281D01*
X0156899Y0036434D01*
X0156861Y0036587D01*
X0156828Y0036742D01*
X0156798Y0036898D01*
X0156772Y0037054D01*
X0156751Y0037211D01*
X0156733Y0037368D01*
X0156719Y0037526D01*
X0156709Y0037684D01*
X0156703Y0037842D01*
X0156701Y0038000D01*
X0336701Y0018000D02*
X0336703Y0018158D01*
X0336709Y0018316D01*
X0336719Y0018474D01*
X0336733Y0018632D01*
X0336751Y0018789D01*
X0336772Y0018946D01*
X0336798Y0019102D01*
X0336828Y0019258D01*
X0336861Y0019413D01*
X0336899Y0019566D01*
X0336940Y0019719D01*
X0336985Y0019871D01*
X0337034Y0020022D01*
X0337087Y0020171D01*
X0337143Y0020319D01*
X0337203Y0020465D01*
X0337267Y0020610D01*
X0337335Y0020753D01*
X0337406Y0020895D01*
X0337480Y0021035D01*
X0337558Y0021172D01*
X0337640Y0021308D01*
X0337724Y0021442D01*
X0337813Y0021573D01*
X0337904Y0021702D01*
X0337999Y0021829D01*
X0338096Y0021954D01*
X0338197Y0022076D01*
X0338301Y0022195D01*
X0338408Y0022312D01*
X0338518Y0022426D01*
X0338631Y0022537D01*
X0338746Y0022646D01*
X0338864Y0022751D01*
X0338985Y0022853D01*
X0339108Y0022953D01*
X0339234Y0023049D01*
X0339362Y0023142D01*
X0339492Y0023232D01*
X0339625Y0023318D01*
X0339760Y0023402D01*
X0339896Y0023481D01*
X0340035Y0023558D01*
X0340176Y0023630D01*
X0340318Y0023700D01*
X0340462Y0023765D01*
X0340608Y0023827D01*
X0340755Y0023885D01*
X0340904Y0023940D01*
X0341054Y0023991D01*
X0341205Y0024038D01*
X0341357Y0024081D01*
X0341510Y0024120D01*
X0341665Y0024156D01*
X0341820Y0024187D01*
X0341976Y0024215D01*
X0342132Y0024239D01*
X0342289Y0024259D01*
X0342447Y0024275D01*
X0342604Y0024287D01*
X0342763Y0024295D01*
X0342921Y0024299D01*
X0343079Y0024299D01*
X0343237Y0024295D01*
X0343396Y0024287D01*
X0343553Y0024275D01*
X0343711Y0024259D01*
X0343868Y0024239D01*
X0344024Y0024215D01*
X0344180Y0024187D01*
X0344335Y0024156D01*
X0344490Y0024120D01*
X0344643Y0024081D01*
X0344795Y0024038D01*
X0344946Y0023991D01*
X0345096Y0023940D01*
X0345245Y0023885D01*
X0345392Y0023827D01*
X0345538Y0023765D01*
X0345682Y0023700D01*
X0345824Y0023630D01*
X0345965Y0023558D01*
X0346104Y0023481D01*
X0346240Y0023402D01*
X0346375Y0023318D01*
X0346508Y0023232D01*
X0346638Y0023142D01*
X0346766Y0023049D01*
X0346892Y0022953D01*
X0347015Y0022853D01*
X0347136Y0022751D01*
X0347254Y0022646D01*
X0347369Y0022537D01*
X0347482Y0022426D01*
X0347592Y0022312D01*
X0347699Y0022195D01*
X0347803Y0022076D01*
X0347904Y0021954D01*
X0348001Y0021829D01*
X0348096Y0021702D01*
X0348187Y0021573D01*
X0348276Y0021442D01*
X0348360Y0021308D01*
X0348442Y0021172D01*
X0348520Y0021035D01*
X0348594Y0020895D01*
X0348665Y0020753D01*
X0348733Y0020610D01*
X0348797Y0020465D01*
X0348857Y0020319D01*
X0348913Y0020171D01*
X0348966Y0020022D01*
X0349015Y0019871D01*
X0349060Y0019719D01*
X0349101Y0019566D01*
X0349139Y0019413D01*
X0349172Y0019258D01*
X0349202Y0019102D01*
X0349228Y0018946D01*
X0349249Y0018789D01*
X0349267Y0018632D01*
X0349281Y0018474D01*
X0349291Y0018316D01*
X0349297Y0018158D01*
X0349299Y0018000D01*
X0349297Y0017842D01*
X0349291Y0017684D01*
X0349281Y0017526D01*
X0349267Y0017368D01*
X0349249Y0017211D01*
X0349228Y0017054D01*
X0349202Y0016898D01*
X0349172Y0016742D01*
X0349139Y0016587D01*
X0349101Y0016434D01*
X0349060Y0016281D01*
X0349015Y0016129D01*
X0348966Y0015978D01*
X0348913Y0015829D01*
X0348857Y0015681D01*
X0348797Y0015535D01*
X0348733Y0015390D01*
X0348665Y0015247D01*
X0348594Y0015105D01*
X0348520Y0014965D01*
X0348442Y0014828D01*
X0348360Y0014692D01*
X0348276Y0014558D01*
X0348187Y0014427D01*
X0348096Y0014298D01*
X0348001Y0014171D01*
X0347904Y0014046D01*
X0347803Y0013924D01*
X0347699Y0013805D01*
X0347592Y0013688D01*
X0347482Y0013574D01*
X0347369Y0013463D01*
X0347254Y0013354D01*
X0347136Y0013249D01*
X0347015Y0013147D01*
X0346892Y0013047D01*
X0346766Y0012951D01*
X0346638Y0012858D01*
X0346508Y0012768D01*
X0346375Y0012682D01*
X0346240Y0012598D01*
X0346104Y0012519D01*
X0345965Y0012442D01*
X0345824Y0012370D01*
X0345682Y0012300D01*
X0345538Y0012235D01*
X0345392Y0012173D01*
X0345245Y0012115D01*
X0345096Y0012060D01*
X0344946Y0012009D01*
X0344795Y0011962D01*
X0344643Y0011919D01*
X0344490Y0011880D01*
X0344335Y0011844D01*
X0344180Y0011813D01*
X0344024Y0011785D01*
X0343868Y0011761D01*
X0343711Y0011741D01*
X0343553Y0011725D01*
X0343396Y0011713D01*
X0343237Y0011705D01*
X0343079Y0011701D01*
X0342921Y0011701D01*
X0342763Y0011705D01*
X0342604Y0011713D01*
X0342447Y0011725D01*
X0342289Y0011741D01*
X0342132Y0011761D01*
X0341976Y0011785D01*
X0341820Y0011813D01*
X0341665Y0011844D01*
X0341510Y0011880D01*
X0341357Y0011919D01*
X0341205Y0011962D01*
X0341054Y0012009D01*
X0340904Y0012060D01*
X0340755Y0012115D01*
X0340608Y0012173D01*
X0340462Y0012235D01*
X0340318Y0012300D01*
X0340176Y0012370D01*
X0340035Y0012442D01*
X0339896Y0012519D01*
X0339760Y0012598D01*
X0339625Y0012682D01*
X0339492Y0012768D01*
X0339362Y0012858D01*
X0339234Y0012951D01*
X0339108Y0013047D01*
X0338985Y0013147D01*
X0338864Y0013249D01*
X0338746Y0013354D01*
X0338631Y0013463D01*
X0338518Y0013574D01*
X0338408Y0013688D01*
X0338301Y0013805D01*
X0338197Y0013924D01*
X0338096Y0014046D01*
X0337999Y0014171D01*
X0337904Y0014298D01*
X0337813Y0014427D01*
X0337724Y0014558D01*
X0337640Y0014692D01*
X0337558Y0014828D01*
X0337480Y0014965D01*
X0337406Y0015105D01*
X0337335Y0015247D01*
X0337267Y0015390D01*
X0337203Y0015535D01*
X0337143Y0015681D01*
X0337087Y0015829D01*
X0337034Y0015978D01*
X0336985Y0016129D01*
X0336940Y0016281D01*
X0336899Y0016434D01*
X0336861Y0016587D01*
X0336828Y0016742D01*
X0336798Y0016898D01*
X0336772Y0017054D01*
X0336751Y0017211D01*
X0336733Y0017368D01*
X0336719Y0017526D01*
X0336709Y0017684D01*
X0336703Y0017842D01*
X0336701Y0018000D01*
X0276701Y0178000D02*
X0276703Y0178158D01*
X0276709Y0178316D01*
X0276719Y0178474D01*
X0276733Y0178632D01*
X0276751Y0178789D01*
X0276772Y0178946D01*
X0276798Y0179102D01*
X0276828Y0179258D01*
X0276861Y0179413D01*
X0276899Y0179566D01*
X0276940Y0179719D01*
X0276985Y0179871D01*
X0277034Y0180022D01*
X0277087Y0180171D01*
X0277143Y0180319D01*
X0277203Y0180465D01*
X0277267Y0180610D01*
X0277335Y0180753D01*
X0277406Y0180895D01*
X0277480Y0181035D01*
X0277558Y0181172D01*
X0277640Y0181308D01*
X0277724Y0181442D01*
X0277813Y0181573D01*
X0277904Y0181702D01*
X0277999Y0181829D01*
X0278096Y0181954D01*
X0278197Y0182076D01*
X0278301Y0182195D01*
X0278408Y0182312D01*
X0278518Y0182426D01*
X0278631Y0182537D01*
X0278746Y0182646D01*
X0278864Y0182751D01*
X0278985Y0182853D01*
X0279108Y0182953D01*
X0279234Y0183049D01*
X0279362Y0183142D01*
X0279492Y0183232D01*
X0279625Y0183318D01*
X0279760Y0183402D01*
X0279896Y0183481D01*
X0280035Y0183558D01*
X0280176Y0183630D01*
X0280318Y0183700D01*
X0280462Y0183765D01*
X0280608Y0183827D01*
X0280755Y0183885D01*
X0280904Y0183940D01*
X0281054Y0183991D01*
X0281205Y0184038D01*
X0281357Y0184081D01*
X0281510Y0184120D01*
X0281665Y0184156D01*
X0281820Y0184187D01*
X0281976Y0184215D01*
X0282132Y0184239D01*
X0282289Y0184259D01*
X0282447Y0184275D01*
X0282604Y0184287D01*
X0282763Y0184295D01*
X0282921Y0184299D01*
X0283079Y0184299D01*
X0283237Y0184295D01*
X0283396Y0184287D01*
X0283553Y0184275D01*
X0283711Y0184259D01*
X0283868Y0184239D01*
X0284024Y0184215D01*
X0284180Y0184187D01*
X0284335Y0184156D01*
X0284490Y0184120D01*
X0284643Y0184081D01*
X0284795Y0184038D01*
X0284946Y0183991D01*
X0285096Y0183940D01*
X0285245Y0183885D01*
X0285392Y0183827D01*
X0285538Y0183765D01*
X0285682Y0183700D01*
X0285824Y0183630D01*
X0285965Y0183558D01*
X0286104Y0183481D01*
X0286240Y0183402D01*
X0286375Y0183318D01*
X0286508Y0183232D01*
X0286638Y0183142D01*
X0286766Y0183049D01*
X0286892Y0182953D01*
X0287015Y0182853D01*
X0287136Y0182751D01*
X0287254Y0182646D01*
X0287369Y0182537D01*
X0287482Y0182426D01*
X0287592Y0182312D01*
X0287699Y0182195D01*
X0287803Y0182076D01*
X0287904Y0181954D01*
X0288001Y0181829D01*
X0288096Y0181702D01*
X0288187Y0181573D01*
X0288276Y0181442D01*
X0288360Y0181308D01*
X0288442Y0181172D01*
X0288520Y0181035D01*
X0288594Y0180895D01*
X0288665Y0180753D01*
X0288733Y0180610D01*
X0288797Y0180465D01*
X0288857Y0180319D01*
X0288913Y0180171D01*
X0288966Y0180022D01*
X0289015Y0179871D01*
X0289060Y0179719D01*
X0289101Y0179566D01*
X0289139Y0179413D01*
X0289172Y0179258D01*
X0289202Y0179102D01*
X0289228Y0178946D01*
X0289249Y0178789D01*
X0289267Y0178632D01*
X0289281Y0178474D01*
X0289291Y0178316D01*
X0289297Y0178158D01*
X0289299Y0178000D01*
X0289297Y0177842D01*
X0289291Y0177684D01*
X0289281Y0177526D01*
X0289267Y0177368D01*
X0289249Y0177211D01*
X0289228Y0177054D01*
X0289202Y0176898D01*
X0289172Y0176742D01*
X0289139Y0176587D01*
X0289101Y0176434D01*
X0289060Y0176281D01*
X0289015Y0176129D01*
X0288966Y0175978D01*
X0288913Y0175829D01*
X0288857Y0175681D01*
X0288797Y0175535D01*
X0288733Y0175390D01*
X0288665Y0175247D01*
X0288594Y0175105D01*
X0288520Y0174965D01*
X0288442Y0174828D01*
X0288360Y0174692D01*
X0288276Y0174558D01*
X0288187Y0174427D01*
X0288096Y0174298D01*
X0288001Y0174171D01*
X0287904Y0174046D01*
X0287803Y0173924D01*
X0287699Y0173805D01*
X0287592Y0173688D01*
X0287482Y0173574D01*
X0287369Y0173463D01*
X0287254Y0173354D01*
X0287136Y0173249D01*
X0287015Y0173147D01*
X0286892Y0173047D01*
X0286766Y0172951D01*
X0286638Y0172858D01*
X0286508Y0172768D01*
X0286375Y0172682D01*
X0286240Y0172598D01*
X0286104Y0172519D01*
X0285965Y0172442D01*
X0285824Y0172370D01*
X0285682Y0172300D01*
X0285538Y0172235D01*
X0285392Y0172173D01*
X0285245Y0172115D01*
X0285096Y0172060D01*
X0284946Y0172009D01*
X0284795Y0171962D01*
X0284643Y0171919D01*
X0284490Y0171880D01*
X0284335Y0171844D01*
X0284180Y0171813D01*
X0284024Y0171785D01*
X0283868Y0171761D01*
X0283711Y0171741D01*
X0283553Y0171725D01*
X0283396Y0171713D01*
X0283237Y0171705D01*
X0283079Y0171701D01*
X0282921Y0171701D01*
X0282763Y0171705D01*
X0282604Y0171713D01*
X0282447Y0171725D01*
X0282289Y0171741D01*
X0282132Y0171761D01*
X0281976Y0171785D01*
X0281820Y0171813D01*
X0281665Y0171844D01*
X0281510Y0171880D01*
X0281357Y0171919D01*
X0281205Y0171962D01*
X0281054Y0172009D01*
X0280904Y0172060D01*
X0280755Y0172115D01*
X0280608Y0172173D01*
X0280462Y0172235D01*
X0280318Y0172300D01*
X0280176Y0172370D01*
X0280035Y0172442D01*
X0279896Y0172519D01*
X0279760Y0172598D01*
X0279625Y0172682D01*
X0279492Y0172768D01*
X0279362Y0172858D01*
X0279234Y0172951D01*
X0279108Y0173047D01*
X0278985Y0173147D01*
X0278864Y0173249D01*
X0278746Y0173354D01*
X0278631Y0173463D01*
X0278518Y0173574D01*
X0278408Y0173688D01*
X0278301Y0173805D01*
X0278197Y0173924D01*
X0278096Y0174046D01*
X0277999Y0174171D01*
X0277904Y0174298D01*
X0277813Y0174427D01*
X0277724Y0174558D01*
X0277640Y0174692D01*
X0277558Y0174828D01*
X0277480Y0174965D01*
X0277406Y0175105D01*
X0277335Y0175247D01*
X0277267Y0175390D01*
X0277203Y0175535D01*
X0277143Y0175681D01*
X0277087Y0175829D01*
X0277034Y0175978D01*
X0276985Y0176129D01*
X0276940Y0176281D01*
X0276899Y0176434D01*
X0276861Y0176587D01*
X0276828Y0176742D01*
X0276798Y0176898D01*
X0276772Y0177054D01*
X0276751Y0177211D01*
X0276733Y0177368D01*
X0276719Y0177526D01*
X0276709Y0177684D01*
X0276703Y0177842D01*
X0276701Y0178000D01*
X0146701Y0178000D02*
X0146703Y0178158D01*
X0146709Y0178316D01*
X0146719Y0178474D01*
X0146733Y0178632D01*
X0146751Y0178789D01*
X0146772Y0178946D01*
X0146798Y0179102D01*
X0146828Y0179258D01*
X0146861Y0179413D01*
X0146899Y0179566D01*
X0146940Y0179719D01*
X0146985Y0179871D01*
X0147034Y0180022D01*
X0147087Y0180171D01*
X0147143Y0180319D01*
X0147203Y0180465D01*
X0147267Y0180610D01*
X0147335Y0180753D01*
X0147406Y0180895D01*
X0147480Y0181035D01*
X0147558Y0181172D01*
X0147640Y0181308D01*
X0147724Y0181442D01*
X0147813Y0181573D01*
X0147904Y0181702D01*
X0147999Y0181829D01*
X0148096Y0181954D01*
X0148197Y0182076D01*
X0148301Y0182195D01*
X0148408Y0182312D01*
X0148518Y0182426D01*
X0148631Y0182537D01*
X0148746Y0182646D01*
X0148864Y0182751D01*
X0148985Y0182853D01*
X0149108Y0182953D01*
X0149234Y0183049D01*
X0149362Y0183142D01*
X0149492Y0183232D01*
X0149625Y0183318D01*
X0149760Y0183402D01*
X0149896Y0183481D01*
X0150035Y0183558D01*
X0150176Y0183630D01*
X0150318Y0183700D01*
X0150462Y0183765D01*
X0150608Y0183827D01*
X0150755Y0183885D01*
X0150904Y0183940D01*
X0151054Y0183991D01*
X0151205Y0184038D01*
X0151357Y0184081D01*
X0151510Y0184120D01*
X0151665Y0184156D01*
X0151820Y0184187D01*
X0151976Y0184215D01*
X0152132Y0184239D01*
X0152289Y0184259D01*
X0152447Y0184275D01*
X0152604Y0184287D01*
X0152763Y0184295D01*
X0152921Y0184299D01*
X0153079Y0184299D01*
X0153237Y0184295D01*
X0153396Y0184287D01*
X0153553Y0184275D01*
X0153711Y0184259D01*
X0153868Y0184239D01*
X0154024Y0184215D01*
X0154180Y0184187D01*
X0154335Y0184156D01*
X0154490Y0184120D01*
X0154643Y0184081D01*
X0154795Y0184038D01*
X0154946Y0183991D01*
X0155096Y0183940D01*
X0155245Y0183885D01*
X0155392Y0183827D01*
X0155538Y0183765D01*
X0155682Y0183700D01*
X0155824Y0183630D01*
X0155965Y0183558D01*
X0156104Y0183481D01*
X0156240Y0183402D01*
X0156375Y0183318D01*
X0156508Y0183232D01*
X0156638Y0183142D01*
X0156766Y0183049D01*
X0156892Y0182953D01*
X0157015Y0182853D01*
X0157136Y0182751D01*
X0157254Y0182646D01*
X0157369Y0182537D01*
X0157482Y0182426D01*
X0157592Y0182312D01*
X0157699Y0182195D01*
X0157803Y0182076D01*
X0157904Y0181954D01*
X0158001Y0181829D01*
X0158096Y0181702D01*
X0158187Y0181573D01*
X0158276Y0181442D01*
X0158360Y0181308D01*
X0158442Y0181172D01*
X0158520Y0181035D01*
X0158594Y0180895D01*
X0158665Y0180753D01*
X0158733Y0180610D01*
X0158797Y0180465D01*
X0158857Y0180319D01*
X0158913Y0180171D01*
X0158966Y0180022D01*
X0159015Y0179871D01*
X0159060Y0179719D01*
X0159101Y0179566D01*
X0159139Y0179413D01*
X0159172Y0179258D01*
X0159202Y0179102D01*
X0159228Y0178946D01*
X0159249Y0178789D01*
X0159267Y0178632D01*
X0159281Y0178474D01*
X0159291Y0178316D01*
X0159297Y0178158D01*
X0159299Y0178000D01*
X0159297Y0177842D01*
X0159291Y0177684D01*
X0159281Y0177526D01*
X0159267Y0177368D01*
X0159249Y0177211D01*
X0159228Y0177054D01*
X0159202Y0176898D01*
X0159172Y0176742D01*
X0159139Y0176587D01*
X0159101Y0176434D01*
X0159060Y0176281D01*
X0159015Y0176129D01*
X0158966Y0175978D01*
X0158913Y0175829D01*
X0158857Y0175681D01*
X0158797Y0175535D01*
X0158733Y0175390D01*
X0158665Y0175247D01*
X0158594Y0175105D01*
X0158520Y0174965D01*
X0158442Y0174828D01*
X0158360Y0174692D01*
X0158276Y0174558D01*
X0158187Y0174427D01*
X0158096Y0174298D01*
X0158001Y0174171D01*
X0157904Y0174046D01*
X0157803Y0173924D01*
X0157699Y0173805D01*
X0157592Y0173688D01*
X0157482Y0173574D01*
X0157369Y0173463D01*
X0157254Y0173354D01*
X0157136Y0173249D01*
X0157015Y0173147D01*
X0156892Y0173047D01*
X0156766Y0172951D01*
X0156638Y0172858D01*
X0156508Y0172768D01*
X0156375Y0172682D01*
X0156240Y0172598D01*
X0156104Y0172519D01*
X0155965Y0172442D01*
X0155824Y0172370D01*
X0155682Y0172300D01*
X0155538Y0172235D01*
X0155392Y0172173D01*
X0155245Y0172115D01*
X0155096Y0172060D01*
X0154946Y0172009D01*
X0154795Y0171962D01*
X0154643Y0171919D01*
X0154490Y0171880D01*
X0154335Y0171844D01*
X0154180Y0171813D01*
X0154024Y0171785D01*
X0153868Y0171761D01*
X0153711Y0171741D01*
X0153553Y0171725D01*
X0153396Y0171713D01*
X0153237Y0171705D01*
X0153079Y0171701D01*
X0152921Y0171701D01*
X0152763Y0171705D01*
X0152604Y0171713D01*
X0152447Y0171725D01*
X0152289Y0171741D01*
X0152132Y0171761D01*
X0151976Y0171785D01*
X0151820Y0171813D01*
X0151665Y0171844D01*
X0151510Y0171880D01*
X0151357Y0171919D01*
X0151205Y0171962D01*
X0151054Y0172009D01*
X0150904Y0172060D01*
X0150755Y0172115D01*
X0150608Y0172173D01*
X0150462Y0172235D01*
X0150318Y0172300D01*
X0150176Y0172370D01*
X0150035Y0172442D01*
X0149896Y0172519D01*
X0149760Y0172598D01*
X0149625Y0172682D01*
X0149492Y0172768D01*
X0149362Y0172858D01*
X0149234Y0172951D01*
X0149108Y0173047D01*
X0148985Y0173147D01*
X0148864Y0173249D01*
X0148746Y0173354D01*
X0148631Y0173463D01*
X0148518Y0173574D01*
X0148408Y0173688D01*
X0148301Y0173805D01*
X0148197Y0173924D01*
X0148096Y0174046D01*
X0147999Y0174171D01*
X0147904Y0174298D01*
X0147813Y0174427D01*
X0147724Y0174558D01*
X0147640Y0174692D01*
X0147558Y0174828D01*
X0147480Y0174965D01*
X0147406Y0175105D01*
X0147335Y0175247D01*
X0147267Y0175390D01*
X0147203Y0175535D01*
X0147143Y0175681D01*
X0147087Y0175829D01*
X0147034Y0175978D01*
X0146985Y0176129D01*
X0146940Y0176281D01*
X0146899Y0176434D01*
X0146861Y0176587D01*
X0146828Y0176742D01*
X0146798Y0176898D01*
X0146772Y0177054D01*
X0146751Y0177211D01*
X0146733Y0177368D01*
X0146719Y0177526D01*
X0146709Y0177684D01*
X0146703Y0177842D01*
X0146701Y0178000D01*
X0011701Y0178000D02*
X0011703Y0178158D01*
X0011709Y0178316D01*
X0011719Y0178474D01*
X0011733Y0178632D01*
X0011751Y0178789D01*
X0011772Y0178946D01*
X0011798Y0179102D01*
X0011828Y0179258D01*
X0011861Y0179413D01*
X0011899Y0179566D01*
X0011940Y0179719D01*
X0011985Y0179871D01*
X0012034Y0180022D01*
X0012087Y0180171D01*
X0012143Y0180319D01*
X0012203Y0180465D01*
X0012267Y0180610D01*
X0012335Y0180753D01*
X0012406Y0180895D01*
X0012480Y0181035D01*
X0012558Y0181172D01*
X0012640Y0181308D01*
X0012724Y0181442D01*
X0012813Y0181573D01*
X0012904Y0181702D01*
X0012999Y0181829D01*
X0013096Y0181954D01*
X0013197Y0182076D01*
X0013301Y0182195D01*
X0013408Y0182312D01*
X0013518Y0182426D01*
X0013631Y0182537D01*
X0013746Y0182646D01*
X0013864Y0182751D01*
X0013985Y0182853D01*
X0014108Y0182953D01*
X0014234Y0183049D01*
X0014362Y0183142D01*
X0014492Y0183232D01*
X0014625Y0183318D01*
X0014760Y0183402D01*
X0014896Y0183481D01*
X0015035Y0183558D01*
X0015176Y0183630D01*
X0015318Y0183700D01*
X0015462Y0183765D01*
X0015608Y0183827D01*
X0015755Y0183885D01*
X0015904Y0183940D01*
X0016054Y0183991D01*
X0016205Y0184038D01*
X0016357Y0184081D01*
X0016510Y0184120D01*
X0016665Y0184156D01*
X0016820Y0184187D01*
X0016976Y0184215D01*
X0017132Y0184239D01*
X0017289Y0184259D01*
X0017447Y0184275D01*
X0017604Y0184287D01*
X0017763Y0184295D01*
X0017921Y0184299D01*
X0018079Y0184299D01*
X0018237Y0184295D01*
X0018396Y0184287D01*
X0018553Y0184275D01*
X0018711Y0184259D01*
X0018868Y0184239D01*
X0019024Y0184215D01*
X0019180Y0184187D01*
X0019335Y0184156D01*
X0019490Y0184120D01*
X0019643Y0184081D01*
X0019795Y0184038D01*
X0019946Y0183991D01*
X0020096Y0183940D01*
X0020245Y0183885D01*
X0020392Y0183827D01*
X0020538Y0183765D01*
X0020682Y0183700D01*
X0020824Y0183630D01*
X0020965Y0183558D01*
X0021104Y0183481D01*
X0021240Y0183402D01*
X0021375Y0183318D01*
X0021508Y0183232D01*
X0021638Y0183142D01*
X0021766Y0183049D01*
X0021892Y0182953D01*
X0022015Y0182853D01*
X0022136Y0182751D01*
X0022254Y0182646D01*
X0022369Y0182537D01*
X0022482Y0182426D01*
X0022592Y0182312D01*
X0022699Y0182195D01*
X0022803Y0182076D01*
X0022904Y0181954D01*
X0023001Y0181829D01*
X0023096Y0181702D01*
X0023187Y0181573D01*
X0023276Y0181442D01*
X0023360Y0181308D01*
X0023442Y0181172D01*
X0023520Y0181035D01*
X0023594Y0180895D01*
X0023665Y0180753D01*
X0023733Y0180610D01*
X0023797Y0180465D01*
X0023857Y0180319D01*
X0023913Y0180171D01*
X0023966Y0180022D01*
X0024015Y0179871D01*
X0024060Y0179719D01*
X0024101Y0179566D01*
X0024139Y0179413D01*
X0024172Y0179258D01*
X0024202Y0179102D01*
X0024228Y0178946D01*
X0024249Y0178789D01*
X0024267Y0178632D01*
X0024281Y0178474D01*
X0024291Y0178316D01*
X0024297Y0178158D01*
X0024299Y0178000D01*
X0024297Y0177842D01*
X0024291Y0177684D01*
X0024281Y0177526D01*
X0024267Y0177368D01*
X0024249Y0177211D01*
X0024228Y0177054D01*
X0024202Y0176898D01*
X0024172Y0176742D01*
X0024139Y0176587D01*
X0024101Y0176434D01*
X0024060Y0176281D01*
X0024015Y0176129D01*
X0023966Y0175978D01*
X0023913Y0175829D01*
X0023857Y0175681D01*
X0023797Y0175535D01*
X0023733Y0175390D01*
X0023665Y0175247D01*
X0023594Y0175105D01*
X0023520Y0174965D01*
X0023442Y0174828D01*
X0023360Y0174692D01*
X0023276Y0174558D01*
X0023187Y0174427D01*
X0023096Y0174298D01*
X0023001Y0174171D01*
X0022904Y0174046D01*
X0022803Y0173924D01*
X0022699Y0173805D01*
X0022592Y0173688D01*
X0022482Y0173574D01*
X0022369Y0173463D01*
X0022254Y0173354D01*
X0022136Y0173249D01*
X0022015Y0173147D01*
X0021892Y0173047D01*
X0021766Y0172951D01*
X0021638Y0172858D01*
X0021508Y0172768D01*
X0021375Y0172682D01*
X0021240Y0172598D01*
X0021104Y0172519D01*
X0020965Y0172442D01*
X0020824Y0172370D01*
X0020682Y0172300D01*
X0020538Y0172235D01*
X0020392Y0172173D01*
X0020245Y0172115D01*
X0020096Y0172060D01*
X0019946Y0172009D01*
X0019795Y0171962D01*
X0019643Y0171919D01*
X0019490Y0171880D01*
X0019335Y0171844D01*
X0019180Y0171813D01*
X0019024Y0171785D01*
X0018868Y0171761D01*
X0018711Y0171741D01*
X0018553Y0171725D01*
X0018396Y0171713D01*
X0018237Y0171705D01*
X0018079Y0171701D01*
X0017921Y0171701D01*
X0017763Y0171705D01*
X0017604Y0171713D01*
X0017447Y0171725D01*
X0017289Y0171741D01*
X0017132Y0171761D01*
X0016976Y0171785D01*
X0016820Y0171813D01*
X0016665Y0171844D01*
X0016510Y0171880D01*
X0016357Y0171919D01*
X0016205Y0171962D01*
X0016054Y0172009D01*
X0015904Y0172060D01*
X0015755Y0172115D01*
X0015608Y0172173D01*
X0015462Y0172235D01*
X0015318Y0172300D01*
X0015176Y0172370D01*
X0015035Y0172442D01*
X0014896Y0172519D01*
X0014760Y0172598D01*
X0014625Y0172682D01*
X0014492Y0172768D01*
X0014362Y0172858D01*
X0014234Y0172951D01*
X0014108Y0173047D01*
X0013985Y0173147D01*
X0013864Y0173249D01*
X0013746Y0173354D01*
X0013631Y0173463D01*
X0013518Y0173574D01*
X0013408Y0173688D01*
X0013301Y0173805D01*
X0013197Y0173924D01*
X0013096Y0174046D01*
X0012999Y0174171D01*
X0012904Y0174298D01*
X0012813Y0174427D01*
X0012724Y0174558D01*
X0012640Y0174692D01*
X0012558Y0174828D01*
X0012480Y0174965D01*
X0012406Y0175105D01*
X0012335Y0175247D01*
X0012267Y0175390D01*
X0012203Y0175535D01*
X0012143Y0175681D01*
X0012087Y0175829D01*
X0012034Y0175978D01*
X0011985Y0176129D01*
X0011940Y0176281D01*
X0011899Y0176434D01*
X0011861Y0176587D01*
X0011828Y0176742D01*
X0011798Y0176898D01*
X0011772Y0177054D01*
X0011751Y0177211D01*
X0011733Y0177368D01*
X0011719Y0177526D01*
X0011709Y0177684D01*
X0011703Y0177842D01*
X0011701Y0178000D01*
D11*
X0011868Y0156125D02*
X0012935Y0156125D01*
X0014003Y0155057D01*
X0014003Y0151854D01*
X0011868Y0151854D01*
X0010800Y0152922D01*
X0010800Y0155057D01*
X0011868Y0156125D01*
X0016138Y0153989D02*
X0014003Y0151854D01*
X0016138Y0153989D02*
X0017205Y0156125D01*
X0021300Y0151834D02*
X0022368Y0152902D01*
X0026638Y0152902D01*
X0022368Y0148632D01*
X0021300Y0149699D01*
X0021300Y0151834D01*
X0026638Y0152902D02*
X0027705Y0151834D01*
X0027705Y0149699D01*
X0026638Y0148632D01*
X0022368Y0148632D01*
X0022368Y0146476D02*
X0021300Y0146476D01*
X0021300Y0145409D01*
X0022368Y0145409D01*
X0022368Y0146476D01*
X0021300Y0143234D02*
X0021300Y0138963D01*
X0021300Y0141098D02*
X0027705Y0141098D01*
X0025570Y0138963D01*
X0024503Y0136788D02*
X0024503Y0132518D01*
X0025570Y0130343D02*
X0025570Y0127140D01*
X0024503Y0126072D01*
X0022368Y0126072D01*
X0021300Y0127140D01*
X0021300Y0130343D01*
X0027705Y0130343D01*
X0017205Y0133585D02*
X0016138Y0132518D01*
X0017205Y0133585D02*
X0017205Y0135721D01*
X0016138Y0136788D01*
X0015070Y0136788D01*
X0010800Y0132518D01*
X0010800Y0136788D01*
X0011868Y0138963D02*
X0016138Y0143234D01*
X0011868Y0143234D01*
X0010800Y0142166D01*
X0010800Y0140031D01*
X0011868Y0138963D01*
X0016138Y0138963D01*
X0017205Y0140031D01*
X0017205Y0142166D01*
X0016138Y0143234D01*
X0015070Y0145409D02*
X0017205Y0147544D01*
X0010800Y0147544D01*
X0010800Y0145409D02*
X0010800Y0149679D01*
X0012935Y0123897D02*
X0012935Y0119627D01*
X0011868Y0119627D02*
X0014003Y0119627D01*
X0015070Y0120694D01*
X0015070Y0122830D01*
X0014003Y0123897D01*
X0012935Y0123897D01*
X0010800Y0122830D02*
X0010800Y0120694D01*
X0011868Y0119627D01*
X0015070Y0117458D02*
X0015070Y0116391D01*
X0012935Y0114256D01*
X0010800Y0114256D02*
X0015070Y0114256D01*
X0015070Y0112080D02*
X0010800Y0109945D01*
X0015070Y0107810D01*
X0014003Y0105635D02*
X0011868Y0105635D01*
X0010800Y0104567D01*
X0010800Y0101365D01*
X0017205Y0101365D01*
X0015070Y0101365D02*
X0015070Y0104567D01*
X0014003Y0105635D01*
X0021300Y0104567D02*
X0021300Y0101365D01*
X0027705Y0101365D01*
X0027705Y0104567D01*
X0026638Y0105635D01*
X0025570Y0105635D01*
X0024503Y0104567D01*
X0024503Y0101365D01*
X0024503Y0099189D02*
X0023435Y0099189D01*
X0023435Y0094919D01*
X0022368Y0094919D02*
X0024503Y0094919D01*
X0025570Y0095987D01*
X0025570Y0098122D01*
X0024503Y0099189D01*
X0021300Y0098122D02*
X0021300Y0095987D01*
X0022368Y0094919D01*
X0022368Y0092744D02*
X0023435Y0091676D01*
X0023435Y0089541D01*
X0024503Y0088474D01*
X0025570Y0089541D01*
X0025570Y0092744D01*
X0022368Y0092744D02*
X0021300Y0091676D01*
X0021300Y0088474D01*
X0021300Y0086312D02*
X0021300Y0084177D01*
X0021300Y0085244D02*
X0027705Y0085244D01*
X0027705Y0084177D01*
X0025570Y0082001D02*
X0021300Y0082001D01*
X0021300Y0078799D01*
X0022368Y0077731D01*
X0025570Y0077731D01*
X0024503Y0075556D02*
X0023435Y0074488D01*
X0023435Y0071286D01*
X0021300Y0071286D02*
X0027705Y0071286D01*
X0027705Y0074488D01*
X0026638Y0075556D01*
X0024503Y0075556D01*
X0017205Y0077731D02*
X0010800Y0077731D01*
X0010800Y0082001D01*
X0011868Y0084177D02*
X0014003Y0084177D01*
X0015070Y0085244D01*
X0015070Y0087379D01*
X0014003Y0088447D01*
X0012935Y0088447D01*
X0012935Y0084177D01*
X0011868Y0084177D02*
X0010800Y0085244D01*
X0010800Y0087379D01*
X0010800Y0091690D02*
X0016138Y0091690D01*
X0017205Y0092757D01*
X0014003Y0092757D02*
X0014003Y0090622D01*
X0014003Y0094919D02*
X0011868Y0094919D01*
X0010800Y0095987D01*
X0010800Y0098122D01*
X0012935Y0099189D02*
X0012935Y0094919D01*
X0014003Y0094919D02*
X0015070Y0095987D01*
X0015070Y0098122D01*
X0014003Y0099189D01*
X0012935Y0099189D01*
X0021300Y0104567D02*
X0022368Y0105635D01*
X0023435Y0105635D01*
X0024503Y0104567D01*
X0024503Y0107810D02*
X0022368Y0107810D01*
X0021300Y0108878D01*
X0021300Y0111013D01*
X0022368Y0112080D01*
X0024503Y0112080D01*
X0025570Y0111013D01*
X0025570Y0108878D01*
X0024503Y0107810D01*
X0022368Y0114256D02*
X0023435Y0115323D01*
X0023435Y0118526D01*
X0024503Y0118526D02*
X0021300Y0118526D01*
X0021300Y0115323D01*
X0022368Y0114256D01*
X0025570Y0115323D02*
X0025570Y0117458D01*
X0024503Y0118526D01*
X0025570Y0120701D02*
X0021300Y0120701D01*
X0023435Y0120701D02*
X0025570Y0122836D01*
X0025570Y0123904D01*
X0024503Y0069110D02*
X0024503Y0064840D01*
X0022368Y0062665D02*
X0026638Y0062665D01*
X0027705Y0061597D01*
X0027705Y0058395D01*
X0021300Y0058395D01*
X0021300Y0061597D01*
X0022368Y0062665D01*
X0015070Y0061597D02*
X0015070Y0058395D01*
X0010800Y0058395D01*
X0010800Y0056219D02*
X0010800Y0053017D01*
X0011868Y0051949D01*
X0012935Y0053017D01*
X0012935Y0056219D01*
X0014003Y0056219D02*
X0010800Y0056219D01*
X0014003Y0056219D02*
X0015070Y0055152D01*
X0015070Y0053017D01*
X0014003Y0049774D02*
X0011868Y0049774D01*
X0010800Y0048706D01*
X0010800Y0046571D01*
X0011868Y0045504D01*
X0014003Y0045504D01*
X0015070Y0046571D01*
X0015070Y0048706D01*
X0014003Y0049774D01*
X0021300Y0048706D02*
X0021300Y0045504D01*
X0027705Y0045504D01*
X0027705Y0048706D01*
X0026638Y0049774D01*
X0022368Y0049774D01*
X0021300Y0048706D01*
X0021300Y0051949D02*
X0021300Y0055152D01*
X0022368Y0056219D01*
X0026638Y0056219D01*
X0027705Y0055152D01*
X0027705Y0051949D01*
X0021300Y0051949D01*
X0022368Y0043328D02*
X0021300Y0042261D01*
X0021300Y0040126D01*
X0022368Y0039058D01*
X0024503Y0040126D02*
X0024503Y0042261D01*
X0023435Y0043328D01*
X0022368Y0043328D01*
X0026638Y0043328D02*
X0027705Y0042261D01*
X0027705Y0040126D01*
X0026638Y0039058D01*
X0025570Y0039058D01*
X0024503Y0040126D01*
X0017205Y0039058D02*
X0016138Y0039058D01*
X0014003Y0041193D01*
X0010800Y0041193D01*
X0014003Y0041193D02*
X0016138Y0043328D01*
X0017205Y0043328D01*
X0015070Y0061597D02*
X0014003Y0062665D01*
X0010800Y0062665D01*
X0010800Y0064840D02*
X0015070Y0064840D01*
X0015070Y0068043D01*
X0014003Y0069110D01*
X0010800Y0069110D01*
D12*
X0057700Y0083000D02*
X0168300Y0083000D01*
X0183300Y0013000D02*
X0072700Y0013000D01*
D13*
X0138040Y0015750D02*
X0141042Y0015750D01*
X0139541Y0015750D02*
X0139541Y0020254D01*
X0141042Y0018753D01*
X0142644Y0018002D02*
X0145646Y0018002D01*
X0147247Y0017251D02*
X0147247Y0016501D01*
X0147998Y0015750D01*
X0149499Y0015750D01*
X0150250Y0016501D01*
X0149499Y0018002D02*
X0147998Y0018002D01*
X0147247Y0017251D01*
X0145646Y0015750D02*
X0145646Y0020254D01*
X0147247Y0019503D02*
X0147998Y0020254D01*
X0149499Y0020254D01*
X0150250Y0019503D01*
X0150250Y0018753D01*
X0149499Y0018002D01*
X0142644Y0020254D02*
X0142644Y0015750D01*
X0153040Y0085750D02*
X0156042Y0085750D01*
X0153040Y0088753D01*
X0153040Y0089503D01*
X0153790Y0090254D01*
X0155292Y0090254D01*
X0156042Y0089503D01*
X0157644Y0090254D02*
X0157644Y0085750D01*
X0157644Y0088002D02*
X0160646Y0088002D01*
X0162247Y0087251D02*
X0162247Y0086501D01*
X0162998Y0085750D01*
X0164499Y0085750D01*
X0165250Y0086501D01*
X0164499Y0088002D02*
X0162998Y0088002D01*
X0162247Y0087251D01*
X0160646Y0085750D02*
X0160646Y0090254D01*
X0162247Y0089503D02*
X0162998Y0090254D01*
X0164499Y0090254D01*
X0165250Y0089503D01*
X0165250Y0088753D01*
X0164499Y0088002D01*
M02*
