%
M48
M72
T01C0.02362
T02C0.03150
T03C0.03200
T04C0.03600
T05C0.04000
T06C0.04400
T07C0.06300
T08C0.12598
T09C0.25000
%
T01
X82000Y36000
X85000Y39000
X88000Y36000
X91000Y39000
X94000Y36000
X91000Y33000
X88000Y30000
X85000Y33000
X94000Y30000
X97000Y33000
X100000Y30000
X103000Y33000
X106000Y30000
X109000Y33000
X112000Y30000
X115000Y33000
X118000Y30000
X121000Y33000
X118000Y36000
X115000Y39000
X112000Y36000
X121000Y39000
X124000Y36000
X124000Y42000
X121000Y45000
X118000Y42000
X127000Y45000
X124000Y48000
X121000Y51000
X118000Y54000
X115000Y57000
X112000Y60000
X118000Y60000
X121000Y57000
X124000Y60000
X121000Y63000
X118000Y66000
X115000Y63000
X112000Y66000
X109000Y63000
X106000Y66000
X103000Y63000
X100000Y66000
X97000Y63000
X94000Y66000
X91000Y63000
X88000Y66000
X85000Y63000
X82000Y60000
X85000Y57000
X88000Y60000
X91000Y57000
X94000Y60000
X88000Y54000
X85000Y51000
X82000Y54000
X79000Y51000
X82000Y48000
X79000Y45000
X82000Y42000
X85000Y45000
X88000Y42000
X88000Y48000
X118000Y48000
X127000Y51000
X124000Y54000
X115000Y69000
X109000Y69000
X106000Y72000
X103000Y69000
X100000Y72000
X97000Y69000
X91000Y69000
X91000Y27000
X97000Y27000
X100000Y24000
X103000Y27000
X106000Y24000
X109000Y27000
X115000Y27000
X106000Y134000
X103000Y137000
X100000Y134000
X97000Y137000
X94000Y140000
X91000Y143000
X88000Y140000
X85000Y143000
X82000Y146000
X85000Y149000
X82000Y152000
X79000Y155000
X82000Y158000
X85000Y155000
X88000Y158000
X85000Y161000
X82000Y164000
X79000Y161000
X85000Y167000
X82000Y170000
X85000Y173000
X88000Y176000
X91000Y173000
X94000Y176000
X97000Y173000
X100000Y176000
X103000Y173000
X106000Y176000
X109000Y173000
X112000Y176000
X115000Y173000
X118000Y176000
X121000Y173000
X118000Y170000
X115000Y167000
X112000Y170000
X121000Y167000
X124000Y170000
X124000Y164000
X121000Y161000
X118000Y164000
X127000Y161000
X124000Y158000
X121000Y155000
X118000Y158000
X127000Y155000
X124000Y152000
X121000Y149000
X118000Y152000
X115000Y149000
X112000Y146000
X118000Y146000
X115000Y143000
X112000Y140000
X109000Y143000
X106000Y140000
X103000Y143000
X100000Y140000
X97000Y143000
X94000Y146000
X88000Y146000
X91000Y149000
X88000Y152000
X88000Y164000
X91000Y167000
X88000Y170000
X94000Y170000
X91000Y179000
X97000Y179000
X100000Y182000
X103000Y179000
X106000Y182000
X109000Y179000
X115000Y179000
X124000Y146000
X121000Y143000
X118000Y140000
X115000Y137000
X109000Y137000
X91000Y137000
T02
X183000Y138000
X183000Y128000
X213000Y128000
X213000Y138000
X213000Y148000
X213000Y158000
X183000Y158000
X183000Y148000
X208000Y63000
X218000Y63000
X228000Y63000
X238000Y63000
X238000Y33000
X228000Y33000
X218000Y33000
X208000Y33000
T03
X188000Y23000
X188000Y13000
X213000Y18000
X233000Y18000
X258000Y33000
X278000Y33000
X278000Y43000
X278000Y53000
X278000Y63000
X258000Y53000
X308000Y53000
X308000Y63000
X323000Y73000
X303000Y83000
X283000Y83000
X298000Y98000
X318000Y98000
X318000Y108000
X318000Y118000
X318000Y128000
X298000Y138000
X278000Y138000
X278000Y128000
X248000Y128000
X233000Y128000
X248000Y138000
X248000Y148000
X233000Y148000
X248000Y158000
X233000Y168000
X208000Y173000
X188000Y173000
X173000Y178000
X173000Y138000
X163000Y123000
X188000Y113000
X233000Y108000
X253000Y113000
X273000Y113000
X278000Y148000
X278000Y158000
X318000Y168000
X348000Y168000
X348000Y128000
X348000Y118000
X348000Y78000
X308000Y43000
X308000Y33000
X323000Y33000
X308000Y18000
X288000Y18000
X363000Y18000
X383000Y18000
X188000Y63000
X188000Y73000
X173000Y83000
X53000Y83000
X43000Y123000
X68000Y13000
T04
X208000Y88000
X218000Y88000
X233000Y88000
X243000Y88000
X258000Y88000
X268000Y88000
T05
X363000Y98000
X383000Y98000
X383000Y68000
X383000Y58000
X383000Y48000
X333000Y153000
X333000Y183000
X43000Y158000
X43000Y148000
X43000Y138000
X43000Y103000
X43000Y93000
X43000Y83000
X43000Y53000
X43000Y43000
X43000Y33000
T06
X378000Y123000
X378000Y163000
T07
X378000Y178000
T08
X18000Y18000
X163000Y38000
X343000Y18000
X283000Y178000
X153000Y178000
X18000Y178000
T09
X103000Y158000
X103000Y48000
M30
