G75*
%MOIN*%
%OFA0B0*%
%FSLAX25Y25*%
%IPPOS*%
%LPD*%
%AMOC8*
5,1,8,0,0,1.08239X$1,22.5*
%
%ADD10C,0.00000*%
%ADD11C,0.10000*%
%ADD12OC8,0.10000*%
%ADD13OC8,0.04800*%
%ADD14C,0.04800*%
%ADD15C,0.05512*%
%ADD16C,0.05400*%
%ADD17OC8,0.16400*%
%ADD18C,0.57000*%
%ADD19C,0.03562*%
%ADD20C,0.06000*%
%ADD21OC8,0.06300*%
%ADD22C,0.06600*%
%ADD23OC8,0.08500*%
%ADD24C,0.04000*%
D10*
X0003000Y0003000D02*
X0003000Y0193000D01*
X0393000Y0193000D01*
X0393000Y0003000D01*
X0003000Y0003000D01*
X0011701Y0018000D02*
X0011703Y0018158D01*
X0011709Y0018316D01*
X0011719Y0018474D01*
X0011733Y0018632D01*
X0011751Y0018789D01*
X0011772Y0018946D01*
X0011798Y0019102D01*
X0011828Y0019258D01*
X0011861Y0019413D01*
X0011899Y0019566D01*
X0011940Y0019719D01*
X0011985Y0019871D01*
X0012034Y0020022D01*
X0012087Y0020171D01*
X0012143Y0020319D01*
X0012203Y0020465D01*
X0012267Y0020610D01*
X0012335Y0020753D01*
X0012406Y0020895D01*
X0012480Y0021035D01*
X0012558Y0021172D01*
X0012640Y0021308D01*
X0012724Y0021442D01*
X0012813Y0021573D01*
X0012904Y0021702D01*
X0012999Y0021829D01*
X0013096Y0021954D01*
X0013197Y0022076D01*
X0013301Y0022195D01*
X0013408Y0022312D01*
X0013518Y0022426D01*
X0013631Y0022537D01*
X0013746Y0022646D01*
X0013864Y0022751D01*
X0013985Y0022853D01*
X0014108Y0022953D01*
X0014234Y0023049D01*
X0014362Y0023142D01*
X0014492Y0023232D01*
X0014625Y0023318D01*
X0014760Y0023402D01*
X0014896Y0023481D01*
X0015035Y0023558D01*
X0015176Y0023630D01*
X0015318Y0023700D01*
X0015462Y0023765D01*
X0015608Y0023827D01*
X0015755Y0023885D01*
X0015904Y0023940D01*
X0016054Y0023991D01*
X0016205Y0024038D01*
X0016357Y0024081D01*
X0016510Y0024120D01*
X0016665Y0024156D01*
X0016820Y0024187D01*
X0016976Y0024215D01*
X0017132Y0024239D01*
X0017289Y0024259D01*
X0017447Y0024275D01*
X0017604Y0024287D01*
X0017763Y0024295D01*
X0017921Y0024299D01*
X0018079Y0024299D01*
X0018237Y0024295D01*
X0018396Y0024287D01*
X0018553Y0024275D01*
X0018711Y0024259D01*
X0018868Y0024239D01*
X0019024Y0024215D01*
X0019180Y0024187D01*
X0019335Y0024156D01*
X0019490Y0024120D01*
X0019643Y0024081D01*
X0019795Y0024038D01*
X0019946Y0023991D01*
X0020096Y0023940D01*
X0020245Y0023885D01*
X0020392Y0023827D01*
X0020538Y0023765D01*
X0020682Y0023700D01*
X0020824Y0023630D01*
X0020965Y0023558D01*
X0021104Y0023481D01*
X0021240Y0023402D01*
X0021375Y0023318D01*
X0021508Y0023232D01*
X0021638Y0023142D01*
X0021766Y0023049D01*
X0021892Y0022953D01*
X0022015Y0022853D01*
X0022136Y0022751D01*
X0022254Y0022646D01*
X0022369Y0022537D01*
X0022482Y0022426D01*
X0022592Y0022312D01*
X0022699Y0022195D01*
X0022803Y0022076D01*
X0022904Y0021954D01*
X0023001Y0021829D01*
X0023096Y0021702D01*
X0023187Y0021573D01*
X0023276Y0021442D01*
X0023360Y0021308D01*
X0023442Y0021172D01*
X0023520Y0021035D01*
X0023594Y0020895D01*
X0023665Y0020753D01*
X0023733Y0020610D01*
X0023797Y0020465D01*
X0023857Y0020319D01*
X0023913Y0020171D01*
X0023966Y0020022D01*
X0024015Y0019871D01*
X0024060Y0019719D01*
X0024101Y0019566D01*
X0024139Y0019413D01*
X0024172Y0019258D01*
X0024202Y0019102D01*
X0024228Y0018946D01*
X0024249Y0018789D01*
X0024267Y0018632D01*
X0024281Y0018474D01*
X0024291Y0018316D01*
X0024297Y0018158D01*
X0024299Y0018000D01*
X0024297Y0017842D01*
X0024291Y0017684D01*
X0024281Y0017526D01*
X0024267Y0017368D01*
X0024249Y0017211D01*
X0024228Y0017054D01*
X0024202Y0016898D01*
X0024172Y0016742D01*
X0024139Y0016587D01*
X0024101Y0016434D01*
X0024060Y0016281D01*
X0024015Y0016129D01*
X0023966Y0015978D01*
X0023913Y0015829D01*
X0023857Y0015681D01*
X0023797Y0015535D01*
X0023733Y0015390D01*
X0023665Y0015247D01*
X0023594Y0015105D01*
X0023520Y0014965D01*
X0023442Y0014828D01*
X0023360Y0014692D01*
X0023276Y0014558D01*
X0023187Y0014427D01*
X0023096Y0014298D01*
X0023001Y0014171D01*
X0022904Y0014046D01*
X0022803Y0013924D01*
X0022699Y0013805D01*
X0022592Y0013688D01*
X0022482Y0013574D01*
X0022369Y0013463D01*
X0022254Y0013354D01*
X0022136Y0013249D01*
X0022015Y0013147D01*
X0021892Y0013047D01*
X0021766Y0012951D01*
X0021638Y0012858D01*
X0021508Y0012768D01*
X0021375Y0012682D01*
X0021240Y0012598D01*
X0021104Y0012519D01*
X0020965Y0012442D01*
X0020824Y0012370D01*
X0020682Y0012300D01*
X0020538Y0012235D01*
X0020392Y0012173D01*
X0020245Y0012115D01*
X0020096Y0012060D01*
X0019946Y0012009D01*
X0019795Y0011962D01*
X0019643Y0011919D01*
X0019490Y0011880D01*
X0019335Y0011844D01*
X0019180Y0011813D01*
X0019024Y0011785D01*
X0018868Y0011761D01*
X0018711Y0011741D01*
X0018553Y0011725D01*
X0018396Y0011713D01*
X0018237Y0011705D01*
X0018079Y0011701D01*
X0017921Y0011701D01*
X0017763Y0011705D01*
X0017604Y0011713D01*
X0017447Y0011725D01*
X0017289Y0011741D01*
X0017132Y0011761D01*
X0016976Y0011785D01*
X0016820Y0011813D01*
X0016665Y0011844D01*
X0016510Y0011880D01*
X0016357Y0011919D01*
X0016205Y0011962D01*
X0016054Y0012009D01*
X0015904Y0012060D01*
X0015755Y0012115D01*
X0015608Y0012173D01*
X0015462Y0012235D01*
X0015318Y0012300D01*
X0015176Y0012370D01*
X0015035Y0012442D01*
X0014896Y0012519D01*
X0014760Y0012598D01*
X0014625Y0012682D01*
X0014492Y0012768D01*
X0014362Y0012858D01*
X0014234Y0012951D01*
X0014108Y0013047D01*
X0013985Y0013147D01*
X0013864Y0013249D01*
X0013746Y0013354D01*
X0013631Y0013463D01*
X0013518Y0013574D01*
X0013408Y0013688D01*
X0013301Y0013805D01*
X0013197Y0013924D01*
X0013096Y0014046D01*
X0012999Y0014171D01*
X0012904Y0014298D01*
X0012813Y0014427D01*
X0012724Y0014558D01*
X0012640Y0014692D01*
X0012558Y0014828D01*
X0012480Y0014965D01*
X0012406Y0015105D01*
X0012335Y0015247D01*
X0012267Y0015390D01*
X0012203Y0015535D01*
X0012143Y0015681D01*
X0012087Y0015829D01*
X0012034Y0015978D01*
X0011985Y0016129D01*
X0011940Y0016281D01*
X0011899Y0016434D01*
X0011861Y0016587D01*
X0011828Y0016742D01*
X0011798Y0016898D01*
X0011772Y0017054D01*
X0011751Y0017211D01*
X0011733Y0017368D01*
X0011719Y0017526D01*
X0011709Y0017684D01*
X0011703Y0017842D01*
X0011701Y0018000D01*
X0156701Y0038000D02*
X0156703Y0038158D01*
X0156709Y0038316D01*
X0156719Y0038474D01*
X0156733Y0038632D01*
X0156751Y0038789D01*
X0156772Y0038946D01*
X0156798Y0039102D01*
X0156828Y0039258D01*
X0156861Y0039413D01*
X0156899Y0039566D01*
X0156940Y0039719D01*
X0156985Y0039871D01*
X0157034Y0040022D01*
X0157087Y0040171D01*
X0157143Y0040319D01*
X0157203Y0040465D01*
X0157267Y0040610D01*
X0157335Y0040753D01*
X0157406Y0040895D01*
X0157480Y0041035D01*
X0157558Y0041172D01*
X0157640Y0041308D01*
X0157724Y0041442D01*
X0157813Y0041573D01*
X0157904Y0041702D01*
X0157999Y0041829D01*
X0158096Y0041954D01*
X0158197Y0042076D01*
X0158301Y0042195D01*
X0158408Y0042312D01*
X0158518Y0042426D01*
X0158631Y0042537D01*
X0158746Y0042646D01*
X0158864Y0042751D01*
X0158985Y0042853D01*
X0159108Y0042953D01*
X0159234Y0043049D01*
X0159362Y0043142D01*
X0159492Y0043232D01*
X0159625Y0043318D01*
X0159760Y0043402D01*
X0159896Y0043481D01*
X0160035Y0043558D01*
X0160176Y0043630D01*
X0160318Y0043700D01*
X0160462Y0043765D01*
X0160608Y0043827D01*
X0160755Y0043885D01*
X0160904Y0043940D01*
X0161054Y0043991D01*
X0161205Y0044038D01*
X0161357Y0044081D01*
X0161510Y0044120D01*
X0161665Y0044156D01*
X0161820Y0044187D01*
X0161976Y0044215D01*
X0162132Y0044239D01*
X0162289Y0044259D01*
X0162447Y0044275D01*
X0162604Y0044287D01*
X0162763Y0044295D01*
X0162921Y0044299D01*
X0163079Y0044299D01*
X0163237Y0044295D01*
X0163396Y0044287D01*
X0163553Y0044275D01*
X0163711Y0044259D01*
X0163868Y0044239D01*
X0164024Y0044215D01*
X0164180Y0044187D01*
X0164335Y0044156D01*
X0164490Y0044120D01*
X0164643Y0044081D01*
X0164795Y0044038D01*
X0164946Y0043991D01*
X0165096Y0043940D01*
X0165245Y0043885D01*
X0165392Y0043827D01*
X0165538Y0043765D01*
X0165682Y0043700D01*
X0165824Y0043630D01*
X0165965Y0043558D01*
X0166104Y0043481D01*
X0166240Y0043402D01*
X0166375Y0043318D01*
X0166508Y0043232D01*
X0166638Y0043142D01*
X0166766Y0043049D01*
X0166892Y0042953D01*
X0167015Y0042853D01*
X0167136Y0042751D01*
X0167254Y0042646D01*
X0167369Y0042537D01*
X0167482Y0042426D01*
X0167592Y0042312D01*
X0167699Y0042195D01*
X0167803Y0042076D01*
X0167904Y0041954D01*
X0168001Y0041829D01*
X0168096Y0041702D01*
X0168187Y0041573D01*
X0168276Y0041442D01*
X0168360Y0041308D01*
X0168442Y0041172D01*
X0168520Y0041035D01*
X0168594Y0040895D01*
X0168665Y0040753D01*
X0168733Y0040610D01*
X0168797Y0040465D01*
X0168857Y0040319D01*
X0168913Y0040171D01*
X0168966Y0040022D01*
X0169015Y0039871D01*
X0169060Y0039719D01*
X0169101Y0039566D01*
X0169139Y0039413D01*
X0169172Y0039258D01*
X0169202Y0039102D01*
X0169228Y0038946D01*
X0169249Y0038789D01*
X0169267Y0038632D01*
X0169281Y0038474D01*
X0169291Y0038316D01*
X0169297Y0038158D01*
X0169299Y0038000D01*
X0169297Y0037842D01*
X0169291Y0037684D01*
X0169281Y0037526D01*
X0169267Y0037368D01*
X0169249Y0037211D01*
X0169228Y0037054D01*
X0169202Y0036898D01*
X0169172Y0036742D01*
X0169139Y0036587D01*
X0169101Y0036434D01*
X0169060Y0036281D01*
X0169015Y0036129D01*
X0168966Y0035978D01*
X0168913Y0035829D01*
X0168857Y0035681D01*
X0168797Y0035535D01*
X0168733Y0035390D01*
X0168665Y0035247D01*
X0168594Y0035105D01*
X0168520Y0034965D01*
X0168442Y0034828D01*
X0168360Y0034692D01*
X0168276Y0034558D01*
X0168187Y0034427D01*
X0168096Y0034298D01*
X0168001Y0034171D01*
X0167904Y0034046D01*
X0167803Y0033924D01*
X0167699Y0033805D01*
X0167592Y0033688D01*
X0167482Y0033574D01*
X0167369Y0033463D01*
X0167254Y0033354D01*
X0167136Y0033249D01*
X0167015Y0033147D01*
X0166892Y0033047D01*
X0166766Y0032951D01*
X0166638Y0032858D01*
X0166508Y0032768D01*
X0166375Y0032682D01*
X0166240Y0032598D01*
X0166104Y0032519D01*
X0165965Y0032442D01*
X0165824Y0032370D01*
X0165682Y0032300D01*
X0165538Y0032235D01*
X0165392Y0032173D01*
X0165245Y0032115D01*
X0165096Y0032060D01*
X0164946Y0032009D01*
X0164795Y0031962D01*
X0164643Y0031919D01*
X0164490Y0031880D01*
X0164335Y0031844D01*
X0164180Y0031813D01*
X0164024Y0031785D01*
X0163868Y0031761D01*
X0163711Y0031741D01*
X0163553Y0031725D01*
X0163396Y0031713D01*
X0163237Y0031705D01*
X0163079Y0031701D01*
X0162921Y0031701D01*
X0162763Y0031705D01*
X0162604Y0031713D01*
X0162447Y0031725D01*
X0162289Y0031741D01*
X0162132Y0031761D01*
X0161976Y0031785D01*
X0161820Y0031813D01*
X0161665Y0031844D01*
X0161510Y0031880D01*
X0161357Y0031919D01*
X0161205Y0031962D01*
X0161054Y0032009D01*
X0160904Y0032060D01*
X0160755Y0032115D01*
X0160608Y0032173D01*
X0160462Y0032235D01*
X0160318Y0032300D01*
X0160176Y0032370D01*
X0160035Y0032442D01*
X0159896Y0032519D01*
X0159760Y0032598D01*
X0159625Y0032682D01*
X0159492Y0032768D01*
X0159362Y0032858D01*
X0159234Y0032951D01*
X0159108Y0033047D01*
X0158985Y0033147D01*
X0158864Y0033249D01*
X0158746Y0033354D01*
X0158631Y0033463D01*
X0158518Y0033574D01*
X0158408Y0033688D01*
X0158301Y0033805D01*
X0158197Y0033924D01*
X0158096Y0034046D01*
X0157999Y0034171D01*
X0157904Y0034298D01*
X0157813Y0034427D01*
X0157724Y0034558D01*
X0157640Y0034692D01*
X0157558Y0034828D01*
X0157480Y0034965D01*
X0157406Y0035105D01*
X0157335Y0035247D01*
X0157267Y0035390D01*
X0157203Y0035535D01*
X0157143Y0035681D01*
X0157087Y0035829D01*
X0157034Y0035978D01*
X0156985Y0036129D01*
X0156940Y0036281D01*
X0156899Y0036434D01*
X0156861Y0036587D01*
X0156828Y0036742D01*
X0156798Y0036898D01*
X0156772Y0037054D01*
X0156751Y0037211D01*
X0156733Y0037368D01*
X0156719Y0037526D01*
X0156709Y0037684D01*
X0156703Y0037842D01*
X0156701Y0038000D01*
X0336701Y0018000D02*
X0336703Y0018158D01*
X0336709Y0018316D01*
X0336719Y0018474D01*
X0336733Y0018632D01*
X0336751Y0018789D01*
X0336772Y0018946D01*
X0336798Y0019102D01*
X0336828Y0019258D01*
X0336861Y0019413D01*
X0336899Y0019566D01*
X0336940Y0019719D01*
X0336985Y0019871D01*
X0337034Y0020022D01*
X0337087Y0020171D01*
X0337143Y0020319D01*
X0337203Y0020465D01*
X0337267Y0020610D01*
X0337335Y0020753D01*
X0337406Y0020895D01*
X0337480Y0021035D01*
X0337558Y0021172D01*
X0337640Y0021308D01*
X0337724Y0021442D01*
X0337813Y0021573D01*
X0337904Y0021702D01*
X0337999Y0021829D01*
X0338096Y0021954D01*
X0338197Y0022076D01*
X0338301Y0022195D01*
X0338408Y0022312D01*
X0338518Y0022426D01*
X0338631Y0022537D01*
X0338746Y0022646D01*
X0338864Y0022751D01*
X0338985Y0022853D01*
X0339108Y0022953D01*
X0339234Y0023049D01*
X0339362Y0023142D01*
X0339492Y0023232D01*
X0339625Y0023318D01*
X0339760Y0023402D01*
X0339896Y0023481D01*
X0340035Y0023558D01*
X0340176Y0023630D01*
X0340318Y0023700D01*
X0340462Y0023765D01*
X0340608Y0023827D01*
X0340755Y0023885D01*
X0340904Y0023940D01*
X0341054Y0023991D01*
X0341205Y0024038D01*
X0341357Y0024081D01*
X0341510Y0024120D01*
X0341665Y0024156D01*
X0341820Y0024187D01*
X0341976Y0024215D01*
X0342132Y0024239D01*
X0342289Y0024259D01*
X0342447Y0024275D01*
X0342604Y0024287D01*
X0342763Y0024295D01*
X0342921Y0024299D01*
X0343079Y0024299D01*
X0343237Y0024295D01*
X0343396Y0024287D01*
X0343553Y0024275D01*
X0343711Y0024259D01*
X0343868Y0024239D01*
X0344024Y0024215D01*
X0344180Y0024187D01*
X0344335Y0024156D01*
X0344490Y0024120D01*
X0344643Y0024081D01*
X0344795Y0024038D01*
X0344946Y0023991D01*
X0345096Y0023940D01*
X0345245Y0023885D01*
X0345392Y0023827D01*
X0345538Y0023765D01*
X0345682Y0023700D01*
X0345824Y0023630D01*
X0345965Y0023558D01*
X0346104Y0023481D01*
X0346240Y0023402D01*
X0346375Y0023318D01*
X0346508Y0023232D01*
X0346638Y0023142D01*
X0346766Y0023049D01*
X0346892Y0022953D01*
X0347015Y0022853D01*
X0347136Y0022751D01*
X0347254Y0022646D01*
X0347369Y0022537D01*
X0347482Y0022426D01*
X0347592Y0022312D01*
X0347699Y0022195D01*
X0347803Y0022076D01*
X0347904Y0021954D01*
X0348001Y0021829D01*
X0348096Y0021702D01*
X0348187Y0021573D01*
X0348276Y0021442D01*
X0348360Y0021308D01*
X0348442Y0021172D01*
X0348520Y0021035D01*
X0348594Y0020895D01*
X0348665Y0020753D01*
X0348733Y0020610D01*
X0348797Y0020465D01*
X0348857Y0020319D01*
X0348913Y0020171D01*
X0348966Y0020022D01*
X0349015Y0019871D01*
X0349060Y0019719D01*
X0349101Y0019566D01*
X0349139Y0019413D01*
X0349172Y0019258D01*
X0349202Y0019102D01*
X0349228Y0018946D01*
X0349249Y0018789D01*
X0349267Y0018632D01*
X0349281Y0018474D01*
X0349291Y0018316D01*
X0349297Y0018158D01*
X0349299Y0018000D01*
X0349297Y0017842D01*
X0349291Y0017684D01*
X0349281Y0017526D01*
X0349267Y0017368D01*
X0349249Y0017211D01*
X0349228Y0017054D01*
X0349202Y0016898D01*
X0349172Y0016742D01*
X0349139Y0016587D01*
X0349101Y0016434D01*
X0349060Y0016281D01*
X0349015Y0016129D01*
X0348966Y0015978D01*
X0348913Y0015829D01*
X0348857Y0015681D01*
X0348797Y0015535D01*
X0348733Y0015390D01*
X0348665Y0015247D01*
X0348594Y0015105D01*
X0348520Y0014965D01*
X0348442Y0014828D01*
X0348360Y0014692D01*
X0348276Y0014558D01*
X0348187Y0014427D01*
X0348096Y0014298D01*
X0348001Y0014171D01*
X0347904Y0014046D01*
X0347803Y0013924D01*
X0347699Y0013805D01*
X0347592Y0013688D01*
X0347482Y0013574D01*
X0347369Y0013463D01*
X0347254Y0013354D01*
X0347136Y0013249D01*
X0347015Y0013147D01*
X0346892Y0013047D01*
X0346766Y0012951D01*
X0346638Y0012858D01*
X0346508Y0012768D01*
X0346375Y0012682D01*
X0346240Y0012598D01*
X0346104Y0012519D01*
X0345965Y0012442D01*
X0345824Y0012370D01*
X0345682Y0012300D01*
X0345538Y0012235D01*
X0345392Y0012173D01*
X0345245Y0012115D01*
X0345096Y0012060D01*
X0344946Y0012009D01*
X0344795Y0011962D01*
X0344643Y0011919D01*
X0344490Y0011880D01*
X0344335Y0011844D01*
X0344180Y0011813D01*
X0344024Y0011785D01*
X0343868Y0011761D01*
X0343711Y0011741D01*
X0343553Y0011725D01*
X0343396Y0011713D01*
X0343237Y0011705D01*
X0343079Y0011701D01*
X0342921Y0011701D01*
X0342763Y0011705D01*
X0342604Y0011713D01*
X0342447Y0011725D01*
X0342289Y0011741D01*
X0342132Y0011761D01*
X0341976Y0011785D01*
X0341820Y0011813D01*
X0341665Y0011844D01*
X0341510Y0011880D01*
X0341357Y0011919D01*
X0341205Y0011962D01*
X0341054Y0012009D01*
X0340904Y0012060D01*
X0340755Y0012115D01*
X0340608Y0012173D01*
X0340462Y0012235D01*
X0340318Y0012300D01*
X0340176Y0012370D01*
X0340035Y0012442D01*
X0339896Y0012519D01*
X0339760Y0012598D01*
X0339625Y0012682D01*
X0339492Y0012768D01*
X0339362Y0012858D01*
X0339234Y0012951D01*
X0339108Y0013047D01*
X0338985Y0013147D01*
X0338864Y0013249D01*
X0338746Y0013354D01*
X0338631Y0013463D01*
X0338518Y0013574D01*
X0338408Y0013688D01*
X0338301Y0013805D01*
X0338197Y0013924D01*
X0338096Y0014046D01*
X0337999Y0014171D01*
X0337904Y0014298D01*
X0337813Y0014427D01*
X0337724Y0014558D01*
X0337640Y0014692D01*
X0337558Y0014828D01*
X0337480Y0014965D01*
X0337406Y0015105D01*
X0337335Y0015247D01*
X0337267Y0015390D01*
X0337203Y0015535D01*
X0337143Y0015681D01*
X0337087Y0015829D01*
X0337034Y0015978D01*
X0336985Y0016129D01*
X0336940Y0016281D01*
X0336899Y0016434D01*
X0336861Y0016587D01*
X0336828Y0016742D01*
X0336798Y0016898D01*
X0336772Y0017054D01*
X0336751Y0017211D01*
X0336733Y0017368D01*
X0336719Y0017526D01*
X0336709Y0017684D01*
X0336703Y0017842D01*
X0336701Y0018000D01*
X0276701Y0178000D02*
X0276703Y0178158D01*
X0276709Y0178316D01*
X0276719Y0178474D01*
X0276733Y0178632D01*
X0276751Y0178789D01*
X0276772Y0178946D01*
X0276798Y0179102D01*
X0276828Y0179258D01*
X0276861Y0179413D01*
X0276899Y0179566D01*
X0276940Y0179719D01*
X0276985Y0179871D01*
X0277034Y0180022D01*
X0277087Y0180171D01*
X0277143Y0180319D01*
X0277203Y0180465D01*
X0277267Y0180610D01*
X0277335Y0180753D01*
X0277406Y0180895D01*
X0277480Y0181035D01*
X0277558Y0181172D01*
X0277640Y0181308D01*
X0277724Y0181442D01*
X0277813Y0181573D01*
X0277904Y0181702D01*
X0277999Y0181829D01*
X0278096Y0181954D01*
X0278197Y0182076D01*
X0278301Y0182195D01*
X0278408Y0182312D01*
X0278518Y0182426D01*
X0278631Y0182537D01*
X0278746Y0182646D01*
X0278864Y0182751D01*
X0278985Y0182853D01*
X0279108Y0182953D01*
X0279234Y0183049D01*
X0279362Y0183142D01*
X0279492Y0183232D01*
X0279625Y0183318D01*
X0279760Y0183402D01*
X0279896Y0183481D01*
X0280035Y0183558D01*
X0280176Y0183630D01*
X0280318Y0183700D01*
X0280462Y0183765D01*
X0280608Y0183827D01*
X0280755Y0183885D01*
X0280904Y0183940D01*
X0281054Y0183991D01*
X0281205Y0184038D01*
X0281357Y0184081D01*
X0281510Y0184120D01*
X0281665Y0184156D01*
X0281820Y0184187D01*
X0281976Y0184215D01*
X0282132Y0184239D01*
X0282289Y0184259D01*
X0282447Y0184275D01*
X0282604Y0184287D01*
X0282763Y0184295D01*
X0282921Y0184299D01*
X0283079Y0184299D01*
X0283237Y0184295D01*
X0283396Y0184287D01*
X0283553Y0184275D01*
X0283711Y0184259D01*
X0283868Y0184239D01*
X0284024Y0184215D01*
X0284180Y0184187D01*
X0284335Y0184156D01*
X0284490Y0184120D01*
X0284643Y0184081D01*
X0284795Y0184038D01*
X0284946Y0183991D01*
X0285096Y0183940D01*
X0285245Y0183885D01*
X0285392Y0183827D01*
X0285538Y0183765D01*
X0285682Y0183700D01*
X0285824Y0183630D01*
X0285965Y0183558D01*
X0286104Y0183481D01*
X0286240Y0183402D01*
X0286375Y0183318D01*
X0286508Y0183232D01*
X0286638Y0183142D01*
X0286766Y0183049D01*
X0286892Y0182953D01*
X0287015Y0182853D01*
X0287136Y0182751D01*
X0287254Y0182646D01*
X0287369Y0182537D01*
X0287482Y0182426D01*
X0287592Y0182312D01*
X0287699Y0182195D01*
X0287803Y0182076D01*
X0287904Y0181954D01*
X0288001Y0181829D01*
X0288096Y0181702D01*
X0288187Y0181573D01*
X0288276Y0181442D01*
X0288360Y0181308D01*
X0288442Y0181172D01*
X0288520Y0181035D01*
X0288594Y0180895D01*
X0288665Y0180753D01*
X0288733Y0180610D01*
X0288797Y0180465D01*
X0288857Y0180319D01*
X0288913Y0180171D01*
X0288966Y0180022D01*
X0289015Y0179871D01*
X0289060Y0179719D01*
X0289101Y0179566D01*
X0289139Y0179413D01*
X0289172Y0179258D01*
X0289202Y0179102D01*
X0289228Y0178946D01*
X0289249Y0178789D01*
X0289267Y0178632D01*
X0289281Y0178474D01*
X0289291Y0178316D01*
X0289297Y0178158D01*
X0289299Y0178000D01*
X0289297Y0177842D01*
X0289291Y0177684D01*
X0289281Y0177526D01*
X0289267Y0177368D01*
X0289249Y0177211D01*
X0289228Y0177054D01*
X0289202Y0176898D01*
X0289172Y0176742D01*
X0289139Y0176587D01*
X0289101Y0176434D01*
X0289060Y0176281D01*
X0289015Y0176129D01*
X0288966Y0175978D01*
X0288913Y0175829D01*
X0288857Y0175681D01*
X0288797Y0175535D01*
X0288733Y0175390D01*
X0288665Y0175247D01*
X0288594Y0175105D01*
X0288520Y0174965D01*
X0288442Y0174828D01*
X0288360Y0174692D01*
X0288276Y0174558D01*
X0288187Y0174427D01*
X0288096Y0174298D01*
X0288001Y0174171D01*
X0287904Y0174046D01*
X0287803Y0173924D01*
X0287699Y0173805D01*
X0287592Y0173688D01*
X0287482Y0173574D01*
X0287369Y0173463D01*
X0287254Y0173354D01*
X0287136Y0173249D01*
X0287015Y0173147D01*
X0286892Y0173047D01*
X0286766Y0172951D01*
X0286638Y0172858D01*
X0286508Y0172768D01*
X0286375Y0172682D01*
X0286240Y0172598D01*
X0286104Y0172519D01*
X0285965Y0172442D01*
X0285824Y0172370D01*
X0285682Y0172300D01*
X0285538Y0172235D01*
X0285392Y0172173D01*
X0285245Y0172115D01*
X0285096Y0172060D01*
X0284946Y0172009D01*
X0284795Y0171962D01*
X0284643Y0171919D01*
X0284490Y0171880D01*
X0284335Y0171844D01*
X0284180Y0171813D01*
X0284024Y0171785D01*
X0283868Y0171761D01*
X0283711Y0171741D01*
X0283553Y0171725D01*
X0283396Y0171713D01*
X0283237Y0171705D01*
X0283079Y0171701D01*
X0282921Y0171701D01*
X0282763Y0171705D01*
X0282604Y0171713D01*
X0282447Y0171725D01*
X0282289Y0171741D01*
X0282132Y0171761D01*
X0281976Y0171785D01*
X0281820Y0171813D01*
X0281665Y0171844D01*
X0281510Y0171880D01*
X0281357Y0171919D01*
X0281205Y0171962D01*
X0281054Y0172009D01*
X0280904Y0172060D01*
X0280755Y0172115D01*
X0280608Y0172173D01*
X0280462Y0172235D01*
X0280318Y0172300D01*
X0280176Y0172370D01*
X0280035Y0172442D01*
X0279896Y0172519D01*
X0279760Y0172598D01*
X0279625Y0172682D01*
X0279492Y0172768D01*
X0279362Y0172858D01*
X0279234Y0172951D01*
X0279108Y0173047D01*
X0278985Y0173147D01*
X0278864Y0173249D01*
X0278746Y0173354D01*
X0278631Y0173463D01*
X0278518Y0173574D01*
X0278408Y0173688D01*
X0278301Y0173805D01*
X0278197Y0173924D01*
X0278096Y0174046D01*
X0277999Y0174171D01*
X0277904Y0174298D01*
X0277813Y0174427D01*
X0277724Y0174558D01*
X0277640Y0174692D01*
X0277558Y0174828D01*
X0277480Y0174965D01*
X0277406Y0175105D01*
X0277335Y0175247D01*
X0277267Y0175390D01*
X0277203Y0175535D01*
X0277143Y0175681D01*
X0277087Y0175829D01*
X0277034Y0175978D01*
X0276985Y0176129D01*
X0276940Y0176281D01*
X0276899Y0176434D01*
X0276861Y0176587D01*
X0276828Y0176742D01*
X0276798Y0176898D01*
X0276772Y0177054D01*
X0276751Y0177211D01*
X0276733Y0177368D01*
X0276719Y0177526D01*
X0276709Y0177684D01*
X0276703Y0177842D01*
X0276701Y0178000D01*
X0146701Y0178000D02*
X0146703Y0178158D01*
X0146709Y0178316D01*
X0146719Y0178474D01*
X0146733Y0178632D01*
X0146751Y0178789D01*
X0146772Y0178946D01*
X0146798Y0179102D01*
X0146828Y0179258D01*
X0146861Y0179413D01*
X0146899Y0179566D01*
X0146940Y0179719D01*
X0146985Y0179871D01*
X0147034Y0180022D01*
X0147087Y0180171D01*
X0147143Y0180319D01*
X0147203Y0180465D01*
X0147267Y0180610D01*
X0147335Y0180753D01*
X0147406Y0180895D01*
X0147480Y0181035D01*
X0147558Y0181172D01*
X0147640Y0181308D01*
X0147724Y0181442D01*
X0147813Y0181573D01*
X0147904Y0181702D01*
X0147999Y0181829D01*
X0148096Y0181954D01*
X0148197Y0182076D01*
X0148301Y0182195D01*
X0148408Y0182312D01*
X0148518Y0182426D01*
X0148631Y0182537D01*
X0148746Y0182646D01*
X0148864Y0182751D01*
X0148985Y0182853D01*
X0149108Y0182953D01*
X0149234Y0183049D01*
X0149362Y0183142D01*
X0149492Y0183232D01*
X0149625Y0183318D01*
X0149760Y0183402D01*
X0149896Y0183481D01*
X0150035Y0183558D01*
X0150176Y0183630D01*
X0150318Y0183700D01*
X0150462Y0183765D01*
X0150608Y0183827D01*
X0150755Y0183885D01*
X0150904Y0183940D01*
X0151054Y0183991D01*
X0151205Y0184038D01*
X0151357Y0184081D01*
X0151510Y0184120D01*
X0151665Y0184156D01*
X0151820Y0184187D01*
X0151976Y0184215D01*
X0152132Y0184239D01*
X0152289Y0184259D01*
X0152447Y0184275D01*
X0152604Y0184287D01*
X0152763Y0184295D01*
X0152921Y0184299D01*
X0153079Y0184299D01*
X0153237Y0184295D01*
X0153396Y0184287D01*
X0153553Y0184275D01*
X0153711Y0184259D01*
X0153868Y0184239D01*
X0154024Y0184215D01*
X0154180Y0184187D01*
X0154335Y0184156D01*
X0154490Y0184120D01*
X0154643Y0184081D01*
X0154795Y0184038D01*
X0154946Y0183991D01*
X0155096Y0183940D01*
X0155245Y0183885D01*
X0155392Y0183827D01*
X0155538Y0183765D01*
X0155682Y0183700D01*
X0155824Y0183630D01*
X0155965Y0183558D01*
X0156104Y0183481D01*
X0156240Y0183402D01*
X0156375Y0183318D01*
X0156508Y0183232D01*
X0156638Y0183142D01*
X0156766Y0183049D01*
X0156892Y0182953D01*
X0157015Y0182853D01*
X0157136Y0182751D01*
X0157254Y0182646D01*
X0157369Y0182537D01*
X0157482Y0182426D01*
X0157592Y0182312D01*
X0157699Y0182195D01*
X0157803Y0182076D01*
X0157904Y0181954D01*
X0158001Y0181829D01*
X0158096Y0181702D01*
X0158187Y0181573D01*
X0158276Y0181442D01*
X0158360Y0181308D01*
X0158442Y0181172D01*
X0158520Y0181035D01*
X0158594Y0180895D01*
X0158665Y0180753D01*
X0158733Y0180610D01*
X0158797Y0180465D01*
X0158857Y0180319D01*
X0158913Y0180171D01*
X0158966Y0180022D01*
X0159015Y0179871D01*
X0159060Y0179719D01*
X0159101Y0179566D01*
X0159139Y0179413D01*
X0159172Y0179258D01*
X0159202Y0179102D01*
X0159228Y0178946D01*
X0159249Y0178789D01*
X0159267Y0178632D01*
X0159281Y0178474D01*
X0159291Y0178316D01*
X0159297Y0178158D01*
X0159299Y0178000D01*
X0159297Y0177842D01*
X0159291Y0177684D01*
X0159281Y0177526D01*
X0159267Y0177368D01*
X0159249Y0177211D01*
X0159228Y0177054D01*
X0159202Y0176898D01*
X0159172Y0176742D01*
X0159139Y0176587D01*
X0159101Y0176434D01*
X0159060Y0176281D01*
X0159015Y0176129D01*
X0158966Y0175978D01*
X0158913Y0175829D01*
X0158857Y0175681D01*
X0158797Y0175535D01*
X0158733Y0175390D01*
X0158665Y0175247D01*
X0158594Y0175105D01*
X0158520Y0174965D01*
X0158442Y0174828D01*
X0158360Y0174692D01*
X0158276Y0174558D01*
X0158187Y0174427D01*
X0158096Y0174298D01*
X0158001Y0174171D01*
X0157904Y0174046D01*
X0157803Y0173924D01*
X0157699Y0173805D01*
X0157592Y0173688D01*
X0157482Y0173574D01*
X0157369Y0173463D01*
X0157254Y0173354D01*
X0157136Y0173249D01*
X0157015Y0173147D01*
X0156892Y0173047D01*
X0156766Y0172951D01*
X0156638Y0172858D01*
X0156508Y0172768D01*
X0156375Y0172682D01*
X0156240Y0172598D01*
X0156104Y0172519D01*
X0155965Y0172442D01*
X0155824Y0172370D01*
X0155682Y0172300D01*
X0155538Y0172235D01*
X0155392Y0172173D01*
X0155245Y0172115D01*
X0155096Y0172060D01*
X0154946Y0172009D01*
X0154795Y0171962D01*
X0154643Y0171919D01*
X0154490Y0171880D01*
X0154335Y0171844D01*
X0154180Y0171813D01*
X0154024Y0171785D01*
X0153868Y0171761D01*
X0153711Y0171741D01*
X0153553Y0171725D01*
X0153396Y0171713D01*
X0153237Y0171705D01*
X0153079Y0171701D01*
X0152921Y0171701D01*
X0152763Y0171705D01*
X0152604Y0171713D01*
X0152447Y0171725D01*
X0152289Y0171741D01*
X0152132Y0171761D01*
X0151976Y0171785D01*
X0151820Y0171813D01*
X0151665Y0171844D01*
X0151510Y0171880D01*
X0151357Y0171919D01*
X0151205Y0171962D01*
X0151054Y0172009D01*
X0150904Y0172060D01*
X0150755Y0172115D01*
X0150608Y0172173D01*
X0150462Y0172235D01*
X0150318Y0172300D01*
X0150176Y0172370D01*
X0150035Y0172442D01*
X0149896Y0172519D01*
X0149760Y0172598D01*
X0149625Y0172682D01*
X0149492Y0172768D01*
X0149362Y0172858D01*
X0149234Y0172951D01*
X0149108Y0173047D01*
X0148985Y0173147D01*
X0148864Y0173249D01*
X0148746Y0173354D01*
X0148631Y0173463D01*
X0148518Y0173574D01*
X0148408Y0173688D01*
X0148301Y0173805D01*
X0148197Y0173924D01*
X0148096Y0174046D01*
X0147999Y0174171D01*
X0147904Y0174298D01*
X0147813Y0174427D01*
X0147724Y0174558D01*
X0147640Y0174692D01*
X0147558Y0174828D01*
X0147480Y0174965D01*
X0147406Y0175105D01*
X0147335Y0175247D01*
X0147267Y0175390D01*
X0147203Y0175535D01*
X0147143Y0175681D01*
X0147087Y0175829D01*
X0147034Y0175978D01*
X0146985Y0176129D01*
X0146940Y0176281D01*
X0146899Y0176434D01*
X0146861Y0176587D01*
X0146828Y0176742D01*
X0146798Y0176898D01*
X0146772Y0177054D01*
X0146751Y0177211D01*
X0146733Y0177368D01*
X0146719Y0177526D01*
X0146709Y0177684D01*
X0146703Y0177842D01*
X0146701Y0178000D01*
X0011701Y0178000D02*
X0011703Y0178158D01*
X0011709Y0178316D01*
X0011719Y0178474D01*
X0011733Y0178632D01*
X0011751Y0178789D01*
X0011772Y0178946D01*
X0011798Y0179102D01*
X0011828Y0179258D01*
X0011861Y0179413D01*
X0011899Y0179566D01*
X0011940Y0179719D01*
X0011985Y0179871D01*
X0012034Y0180022D01*
X0012087Y0180171D01*
X0012143Y0180319D01*
X0012203Y0180465D01*
X0012267Y0180610D01*
X0012335Y0180753D01*
X0012406Y0180895D01*
X0012480Y0181035D01*
X0012558Y0181172D01*
X0012640Y0181308D01*
X0012724Y0181442D01*
X0012813Y0181573D01*
X0012904Y0181702D01*
X0012999Y0181829D01*
X0013096Y0181954D01*
X0013197Y0182076D01*
X0013301Y0182195D01*
X0013408Y0182312D01*
X0013518Y0182426D01*
X0013631Y0182537D01*
X0013746Y0182646D01*
X0013864Y0182751D01*
X0013985Y0182853D01*
X0014108Y0182953D01*
X0014234Y0183049D01*
X0014362Y0183142D01*
X0014492Y0183232D01*
X0014625Y0183318D01*
X0014760Y0183402D01*
X0014896Y0183481D01*
X0015035Y0183558D01*
X0015176Y0183630D01*
X0015318Y0183700D01*
X0015462Y0183765D01*
X0015608Y0183827D01*
X0015755Y0183885D01*
X0015904Y0183940D01*
X0016054Y0183991D01*
X0016205Y0184038D01*
X0016357Y0184081D01*
X0016510Y0184120D01*
X0016665Y0184156D01*
X0016820Y0184187D01*
X0016976Y0184215D01*
X0017132Y0184239D01*
X0017289Y0184259D01*
X0017447Y0184275D01*
X0017604Y0184287D01*
X0017763Y0184295D01*
X0017921Y0184299D01*
X0018079Y0184299D01*
X0018237Y0184295D01*
X0018396Y0184287D01*
X0018553Y0184275D01*
X0018711Y0184259D01*
X0018868Y0184239D01*
X0019024Y0184215D01*
X0019180Y0184187D01*
X0019335Y0184156D01*
X0019490Y0184120D01*
X0019643Y0184081D01*
X0019795Y0184038D01*
X0019946Y0183991D01*
X0020096Y0183940D01*
X0020245Y0183885D01*
X0020392Y0183827D01*
X0020538Y0183765D01*
X0020682Y0183700D01*
X0020824Y0183630D01*
X0020965Y0183558D01*
X0021104Y0183481D01*
X0021240Y0183402D01*
X0021375Y0183318D01*
X0021508Y0183232D01*
X0021638Y0183142D01*
X0021766Y0183049D01*
X0021892Y0182953D01*
X0022015Y0182853D01*
X0022136Y0182751D01*
X0022254Y0182646D01*
X0022369Y0182537D01*
X0022482Y0182426D01*
X0022592Y0182312D01*
X0022699Y0182195D01*
X0022803Y0182076D01*
X0022904Y0181954D01*
X0023001Y0181829D01*
X0023096Y0181702D01*
X0023187Y0181573D01*
X0023276Y0181442D01*
X0023360Y0181308D01*
X0023442Y0181172D01*
X0023520Y0181035D01*
X0023594Y0180895D01*
X0023665Y0180753D01*
X0023733Y0180610D01*
X0023797Y0180465D01*
X0023857Y0180319D01*
X0023913Y0180171D01*
X0023966Y0180022D01*
X0024015Y0179871D01*
X0024060Y0179719D01*
X0024101Y0179566D01*
X0024139Y0179413D01*
X0024172Y0179258D01*
X0024202Y0179102D01*
X0024228Y0178946D01*
X0024249Y0178789D01*
X0024267Y0178632D01*
X0024281Y0178474D01*
X0024291Y0178316D01*
X0024297Y0178158D01*
X0024299Y0178000D01*
X0024297Y0177842D01*
X0024291Y0177684D01*
X0024281Y0177526D01*
X0024267Y0177368D01*
X0024249Y0177211D01*
X0024228Y0177054D01*
X0024202Y0176898D01*
X0024172Y0176742D01*
X0024139Y0176587D01*
X0024101Y0176434D01*
X0024060Y0176281D01*
X0024015Y0176129D01*
X0023966Y0175978D01*
X0023913Y0175829D01*
X0023857Y0175681D01*
X0023797Y0175535D01*
X0023733Y0175390D01*
X0023665Y0175247D01*
X0023594Y0175105D01*
X0023520Y0174965D01*
X0023442Y0174828D01*
X0023360Y0174692D01*
X0023276Y0174558D01*
X0023187Y0174427D01*
X0023096Y0174298D01*
X0023001Y0174171D01*
X0022904Y0174046D01*
X0022803Y0173924D01*
X0022699Y0173805D01*
X0022592Y0173688D01*
X0022482Y0173574D01*
X0022369Y0173463D01*
X0022254Y0173354D01*
X0022136Y0173249D01*
X0022015Y0173147D01*
X0021892Y0173047D01*
X0021766Y0172951D01*
X0021638Y0172858D01*
X0021508Y0172768D01*
X0021375Y0172682D01*
X0021240Y0172598D01*
X0021104Y0172519D01*
X0020965Y0172442D01*
X0020824Y0172370D01*
X0020682Y0172300D01*
X0020538Y0172235D01*
X0020392Y0172173D01*
X0020245Y0172115D01*
X0020096Y0172060D01*
X0019946Y0172009D01*
X0019795Y0171962D01*
X0019643Y0171919D01*
X0019490Y0171880D01*
X0019335Y0171844D01*
X0019180Y0171813D01*
X0019024Y0171785D01*
X0018868Y0171761D01*
X0018711Y0171741D01*
X0018553Y0171725D01*
X0018396Y0171713D01*
X0018237Y0171705D01*
X0018079Y0171701D01*
X0017921Y0171701D01*
X0017763Y0171705D01*
X0017604Y0171713D01*
X0017447Y0171725D01*
X0017289Y0171741D01*
X0017132Y0171761D01*
X0016976Y0171785D01*
X0016820Y0171813D01*
X0016665Y0171844D01*
X0016510Y0171880D01*
X0016357Y0171919D01*
X0016205Y0171962D01*
X0016054Y0172009D01*
X0015904Y0172060D01*
X0015755Y0172115D01*
X0015608Y0172173D01*
X0015462Y0172235D01*
X0015318Y0172300D01*
X0015176Y0172370D01*
X0015035Y0172442D01*
X0014896Y0172519D01*
X0014760Y0172598D01*
X0014625Y0172682D01*
X0014492Y0172768D01*
X0014362Y0172858D01*
X0014234Y0172951D01*
X0014108Y0173047D01*
X0013985Y0173147D01*
X0013864Y0173249D01*
X0013746Y0173354D01*
X0013631Y0173463D01*
X0013518Y0173574D01*
X0013408Y0173688D01*
X0013301Y0173805D01*
X0013197Y0173924D01*
X0013096Y0174046D01*
X0012999Y0174171D01*
X0012904Y0174298D01*
X0012813Y0174427D01*
X0012724Y0174558D01*
X0012640Y0174692D01*
X0012558Y0174828D01*
X0012480Y0174965D01*
X0012406Y0175105D01*
X0012335Y0175247D01*
X0012267Y0175390D01*
X0012203Y0175535D01*
X0012143Y0175681D01*
X0012087Y0175829D01*
X0012034Y0175978D01*
X0011985Y0176129D01*
X0011940Y0176281D01*
X0011899Y0176434D01*
X0011861Y0176587D01*
X0011828Y0176742D01*
X0011798Y0176898D01*
X0011772Y0177054D01*
X0011751Y0177211D01*
X0011733Y0177368D01*
X0011719Y0177526D01*
X0011709Y0177684D01*
X0011703Y0177842D01*
X0011701Y0178000D01*
D11*
X0383000Y0098000D03*
D12*
X0363000Y0098000D03*
D13*
X0348000Y0118000D03*
X0348000Y0128000D03*
X0318000Y0128000D03*
X0298000Y0138000D03*
X0273000Y0113000D03*
X0253000Y0113000D03*
X0233000Y0108000D03*
X0233000Y0128000D03*
X0233000Y0148000D03*
X0233000Y0168000D03*
X0208000Y0173000D03*
X0188000Y0173000D03*
X0173000Y0178000D03*
X0173000Y0138000D03*
X0188000Y0113000D03*
X0188000Y0073000D03*
X0188000Y0063000D03*
X0258000Y0053000D03*
X0258000Y0033000D03*
X0233000Y0018000D03*
X0213000Y0018000D03*
X0188000Y0023000D03*
X0288000Y0018000D03*
X0308000Y0018000D03*
X0323000Y0033000D03*
X0363000Y0018000D03*
X0383000Y0018000D03*
X0323000Y0073000D03*
X0303000Y0083000D03*
X0283000Y0083000D03*
X0298000Y0098000D03*
X0348000Y0078000D03*
X0348000Y0168000D03*
X0318000Y0168000D03*
D14*
X0280400Y0158000D02*
X0275600Y0158000D01*
X0275600Y0148000D02*
X0280400Y0148000D01*
X0280400Y0138000D02*
X0275600Y0138000D01*
X0275600Y0128000D02*
X0280400Y0128000D01*
X0250400Y0128000D02*
X0245600Y0128000D01*
X0245600Y0138000D02*
X0250400Y0138000D01*
X0250400Y0148000D02*
X0245600Y0148000D01*
X0245600Y0158000D02*
X0250400Y0158000D01*
X0315600Y0118000D02*
X0320400Y0118000D01*
X0320400Y0108000D02*
X0315600Y0108000D01*
X0315600Y0098000D02*
X0320400Y0098000D01*
X0310400Y0063000D02*
X0305600Y0063000D01*
X0305600Y0053000D02*
X0310400Y0053000D01*
X0310400Y0043000D02*
X0305600Y0043000D01*
X0305600Y0033000D02*
X0310400Y0033000D01*
X0280400Y0033000D02*
X0275600Y0033000D01*
X0275600Y0043000D02*
X0280400Y0043000D01*
X0280400Y0053000D02*
X0275600Y0053000D01*
X0275600Y0063000D02*
X0280400Y0063000D01*
D15*
X0238000Y0063000D03*
X0228000Y0063000D03*
X0218000Y0063000D03*
X0208000Y0063000D03*
X0208000Y0033000D03*
X0218000Y0033000D03*
X0228000Y0033000D03*
X0238000Y0033000D03*
X0213000Y0128000D03*
X0213000Y0138000D03*
X0213000Y0148000D03*
X0213000Y0158000D03*
X0183000Y0158000D03*
X0183000Y0148000D03*
X0183000Y0138000D03*
X0183000Y0128000D03*
D16*
X0208000Y0090700D02*
X0208000Y0085300D01*
X0218000Y0085300D02*
X0218000Y0090700D01*
X0233000Y0090700D02*
X0233000Y0085300D01*
X0243000Y0085300D02*
X0243000Y0090700D01*
X0258000Y0090700D02*
X0258000Y0085300D01*
X0268000Y0085300D02*
X0268000Y0090700D01*
D17*
X0378000Y0178000D03*
D18*
X0103000Y0158000D03*
X0103000Y0048000D03*
D19*
X0088000Y0048000D03*
X0085000Y0045000D03*
X0082000Y0042000D03*
X0079000Y0045000D03*
X0082000Y0048000D03*
X0079000Y0051000D03*
X0082000Y0054000D03*
X0085000Y0051000D03*
X0088000Y0054000D03*
X0085000Y0057000D03*
X0082000Y0060000D03*
X0085000Y0063000D03*
X0088000Y0066000D03*
X0091000Y0063000D03*
X0094000Y0066000D03*
X0097000Y0063000D03*
X0100000Y0066000D03*
X0103000Y0063000D03*
X0106000Y0066000D03*
X0109000Y0063000D03*
X0112000Y0066000D03*
X0115000Y0063000D03*
X0118000Y0066000D03*
X0121000Y0063000D03*
X0118000Y0060000D03*
X0115000Y0057000D03*
X0112000Y0060000D03*
X0121000Y0057000D03*
X0124000Y0060000D03*
X0124000Y0054000D03*
X0121000Y0051000D03*
X0118000Y0054000D03*
X0127000Y0051000D03*
X0124000Y0048000D03*
X0121000Y0045000D03*
X0118000Y0042000D03*
X0115000Y0039000D03*
X0112000Y0036000D03*
X0118000Y0036000D03*
X0121000Y0039000D03*
X0124000Y0036000D03*
X0121000Y0033000D03*
X0118000Y0030000D03*
X0115000Y0033000D03*
X0112000Y0030000D03*
X0109000Y0033000D03*
X0106000Y0030000D03*
X0103000Y0033000D03*
X0100000Y0030000D03*
X0097000Y0033000D03*
X0094000Y0030000D03*
X0091000Y0033000D03*
X0088000Y0030000D03*
X0085000Y0033000D03*
X0082000Y0036000D03*
X0085000Y0039000D03*
X0088000Y0036000D03*
X0091000Y0039000D03*
X0094000Y0036000D03*
X0088000Y0042000D03*
X0118000Y0048000D03*
X0127000Y0045000D03*
X0124000Y0042000D03*
X0115000Y0027000D03*
X0109000Y0027000D03*
X0106000Y0024000D03*
X0103000Y0027000D03*
X0100000Y0024000D03*
X0097000Y0027000D03*
X0091000Y0027000D03*
X0091000Y0057000D03*
X0088000Y0060000D03*
X0094000Y0060000D03*
X0091000Y0069000D03*
X0097000Y0069000D03*
X0100000Y0072000D03*
X0103000Y0069000D03*
X0106000Y0072000D03*
X0109000Y0069000D03*
X0115000Y0069000D03*
X0106000Y0134000D03*
X0103000Y0137000D03*
X0100000Y0134000D03*
X0097000Y0137000D03*
X0094000Y0140000D03*
X0091000Y0143000D03*
X0088000Y0140000D03*
X0085000Y0143000D03*
X0082000Y0146000D03*
X0085000Y0149000D03*
X0082000Y0152000D03*
X0079000Y0155000D03*
X0082000Y0158000D03*
X0085000Y0155000D03*
X0088000Y0158000D03*
X0085000Y0161000D03*
X0082000Y0164000D03*
X0079000Y0161000D03*
X0085000Y0167000D03*
X0082000Y0170000D03*
X0085000Y0173000D03*
X0088000Y0176000D03*
X0091000Y0173000D03*
X0094000Y0176000D03*
X0097000Y0173000D03*
X0100000Y0176000D03*
X0103000Y0173000D03*
X0106000Y0176000D03*
X0109000Y0173000D03*
X0112000Y0176000D03*
X0115000Y0173000D03*
X0118000Y0176000D03*
X0121000Y0173000D03*
X0118000Y0170000D03*
X0115000Y0167000D03*
X0112000Y0170000D03*
X0121000Y0167000D03*
X0124000Y0170000D03*
X0124000Y0164000D03*
X0121000Y0161000D03*
X0118000Y0164000D03*
X0127000Y0161000D03*
X0124000Y0158000D03*
X0121000Y0155000D03*
X0118000Y0158000D03*
X0127000Y0155000D03*
X0124000Y0152000D03*
X0121000Y0149000D03*
X0118000Y0152000D03*
X0115000Y0149000D03*
X0112000Y0146000D03*
X0118000Y0146000D03*
X0115000Y0143000D03*
X0112000Y0140000D03*
X0109000Y0143000D03*
X0106000Y0140000D03*
X0103000Y0143000D03*
X0100000Y0140000D03*
X0097000Y0143000D03*
X0094000Y0146000D03*
X0088000Y0146000D03*
X0091000Y0149000D03*
X0088000Y0152000D03*
X0088000Y0164000D03*
X0091000Y0167000D03*
X0088000Y0170000D03*
X0094000Y0170000D03*
X0091000Y0179000D03*
X0097000Y0179000D03*
X0100000Y0182000D03*
X0103000Y0179000D03*
X0106000Y0182000D03*
X0109000Y0179000D03*
X0115000Y0179000D03*
X0124000Y0146000D03*
X0121000Y0143000D03*
X0118000Y0140000D03*
X0115000Y0137000D03*
X0109000Y0137000D03*
X0091000Y0137000D03*
D20*
X0046000Y0138000D02*
X0040000Y0138000D01*
X0040000Y0148000D02*
X0046000Y0148000D01*
X0046000Y0158000D02*
X0040000Y0158000D01*
X0040000Y0103000D02*
X0046000Y0103000D01*
X0046000Y0093000D02*
X0040000Y0093000D01*
X0040000Y0083000D02*
X0046000Y0083000D01*
X0046000Y0053000D02*
X0040000Y0053000D01*
X0040000Y0043000D02*
X0046000Y0043000D01*
X0046000Y0033000D02*
X0040000Y0033000D01*
X0380000Y0048000D02*
X0386000Y0048000D01*
X0386000Y0058000D02*
X0380000Y0058000D01*
X0380000Y0068000D02*
X0386000Y0068000D01*
D21*
X0188000Y0013000D03*
X0068000Y0013000D03*
X0053000Y0083000D03*
X0043000Y0123000D03*
X0163000Y0123000D03*
X0173000Y0083000D03*
D22*
X0378000Y0123000D03*
X0378000Y0163000D03*
D23*
X0333000Y0153000D03*
X0333000Y0183000D03*
D24*
X0321812Y0174936D02*
X0344188Y0174936D01*
X0344852Y0175600D02*
X0340400Y0171148D01*
X0340400Y0164852D01*
X0344852Y0160400D01*
X0351148Y0160400D01*
X0355600Y0164852D01*
X0355600Y0171148D01*
X0351148Y0175600D01*
X0344852Y0175600D01*
X0340400Y0170937D02*
X0325600Y0170937D01*
X0325600Y0171148D02*
X0321148Y0175600D01*
X0314852Y0175600D01*
X0310400Y0171148D01*
X0310400Y0164852D01*
X0314852Y0160400D01*
X0321148Y0160400D01*
X0325600Y0164852D01*
X0325600Y0171148D01*
X0325600Y0166939D02*
X0340400Y0166939D01*
X0342312Y0162940D02*
X0323688Y0162940D01*
X0329086Y0162450D02*
X0323550Y0156914D01*
X0323550Y0149086D01*
X0329086Y0143550D01*
X0336914Y0143550D01*
X0342450Y0149086D01*
X0342450Y0156914D01*
X0336914Y0162450D01*
X0329086Y0162450D01*
X0325578Y0158942D02*
X0288000Y0158942D01*
X0288000Y0159512D02*
X0286843Y0162305D01*
X0284705Y0164443D01*
X0281912Y0165600D01*
X0274088Y0165600D01*
X0271295Y0164443D01*
X0269157Y0162305D01*
X0268000Y0159512D01*
X0268000Y0156488D01*
X0269157Y0153695D01*
X0269852Y0153000D01*
X0269157Y0152305D01*
X0268000Y0149512D01*
X0268000Y0146488D01*
X0269157Y0143695D01*
X0269852Y0143000D01*
X0269157Y0142305D01*
X0268000Y0139512D01*
X0268000Y0136488D01*
X0269157Y0133695D01*
X0269852Y0133000D01*
X0269157Y0132305D01*
X0268000Y0129512D01*
X0268000Y0126488D01*
X0269157Y0123695D01*
X0271295Y0121557D01*
X0273605Y0120600D01*
X0269852Y0120600D01*
X0265400Y0116148D01*
X0265400Y0109852D01*
X0269852Y0105400D01*
X0276148Y0105400D01*
X0280600Y0109852D01*
X0280600Y0116148D01*
X0276348Y0120400D01*
X0281912Y0120400D01*
X0284705Y0121557D01*
X0286843Y0123695D01*
X0288000Y0126488D01*
X0288000Y0129512D01*
X0286843Y0132305D01*
X0286148Y0133000D01*
X0286843Y0133695D01*
X0288000Y0136488D01*
X0288000Y0139512D01*
X0286843Y0142305D01*
X0286148Y0143000D01*
X0286843Y0143695D01*
X0288000Y0146488D01*
X0288000Y0149512D01*
X0286843Y0152305D01*
X0286148Y0153000D01*
X0286843Y0153695D01*
X0288000Y0156488D01*
X0288000Y0159512D01*
X0286208Y0162940D02*
X0312312Y0162940D01*
X0310400Y0166939D02*
X0286149Y0166939D01*
X0287439Y0167284D02*
X0284514Y0166501D01*
X0281486Y0166501D01*
X0278561Y0167284D01*
X0275939Y0168798D01*
X0273798Y0170939D01*
X0272284Y0173561D01*
X0271501Y0176486D01*
X0271501Y0179514D01*
X0272284Y0182439D01*
X0273798Y0185061D01*
X0275939Y0187202D01*
X0276976Y0187800D01*
X0159024Y0187800D01*
X0160061Y0187202D01*
X0162202Y0185061D01*
X0163716Y0182439D01*
X0164499Y0179514D01*
X0164499Y0176486D01*
X0163716Y0173561D01*
X0162202Y0170939D01*
X0160061Y0168798D01*
X0157439Y0167284D01*
X0154514Y0166501D01*
X0151486Y0166501D01*
X0148561Y0167284D01*
X0145939Y0168798D01*
X0143798Y0170939D01*
X0142284Y0173561D01*
X0141501Y0176486D01*
X0141501Y0179514D01*
X0142284Y0182439D01*
X0143798Y0185061D01*
X0145939Y0187202D01*
X0146976Y0187800D01*
X0024024Y0187800D01*
X0025061Y0187202D01*
X0027202Y0185061D01*
X0028716Y0182439D01*
X0029499Y0179514D01*
X0029499Y0176486D01*
X0028716Y0173561D01*
X0027202Y0170939D01*
X0025061Y0168798D01*
X0022439Y0167284D01*
X0019514Y0166501D01*
X0016486Y0166501D01*
X0013561Y0167284D01*
X0010939Y0168798D01*
X0008798Y0170939D01*
X0008200Y0171976D01*
X0008200Y0024024D01*
X0008798Y0025061D01*
X0010939Y0027202D01*
X0013561Y0028716D01*
X0016486Y0029499D01*
X0019514Y0029499D01*
X0022439Y0028716D01*
X0025061Y0027202D01*
X0027202Y0025061D01*
X0028716Y0022439D01*
X0029499Y0019514D01*
X0029499Y0016486D01*
X0028716Y0013561D01*
X0027202Y0010939D01*
X0025061Y0008798D01*
X0024024Y0008200D01*
X0047618Y0008200D01*
X0038922Y0016896D01*
X0036896Y0018922D01*
X0035800Y0021568D01*
X0035800Y0025864D01*
X0035355Y0026048D01*
X0033048Y0028355D01*
X0031800Y0031369D01*
X0031800Y0034631D01*
X0033048Y0037645D01*
X0033403Y0038000D01*
X0033048Y0038355D01*
X0031800Y0041369D01*
X0031800Y0044631D01*
X0033048Y0047645D01*
X0035355Y0049952D01*
X0038369Y0051200D01*
X0047631Y0051200D01*
X0050645Y0049952D01*
X0052952Y0047645D01*
X0054200Y0044631D01*
X0054200Y0041369D01*
X0052952Y0038355D01*
X0052597Y0038000D01*
X0052952Y0037645D01*
X0054200Y0034631D01*
X0054200Y0031369D01*
X0052952Y0028355D01*
X0050645Y0026048D01*
X0050284Y0025899D01*
X0055982Y0020200D01*
X0063391Y0020200D01*
X0064541Y0021350D01*
X0071459Y0021350D01*
X0076350Y0016459D01*
X0076350Y0009541D01*
X0075009Y0008200D01*
X0180991Y0008200D01*
X0179650Y0009541D01*
X0179650Y0016459D01*
X0181722Y0018530D01*
X0180400Y0019852D01*
X0180400Y0026148D01*
X0184852Y0030600D01*
X0191148Y0030600D01*
X0195600Y0026148D01*
X0195600Y0019852D01*
X0194278Y0018530D01*
X0196350Y0016459D01*
X0196350Y0009541D01*
X0195009Y0008200D01*
X0336976Y0008200D01*
X0335939Y0008798D01*
X0333798Y0010939D01*
X0332284Y0013561D01*
X0331501Y0016486D01*
X0331501Y0019514D01*
X0332284Y0022439D01*
X0333798Y0025061D01*
X0335939Y0027202D01*
X0338561Y0028716D01*
X0341486Y0029499D01*
X0344514Y0029499D01*
X0347439Y0028716D01*
X0350061Y0027202D01*
X0352202Y0025061D01*
X0353716Y0022439D01*
X0354499Y0019514D01*
X0354499Y0016486D01*
X0353716Y0013561D01*
X0352202Y0010939D01*
X0350061Y0008798D01*
X0349024Y0008200D01*
X0387800Y0008200D01*
X0387800Y0012052D01*
X0386148Y0010400D01*
X0379852Y0010400D01*
X0375400Y0014852D01*
X0375400Y0021148D01*
X0379852Y0025600D01*
X0386148Y0025600D01*
X0387800Y0023948D01*
X0387800Y0039870D01*
X0387631Y0039800D01*
X0378369Y0039800D01*
X0375355Y0041048D01*
X0373048Y0043355D01*
X0371800Y0046369D01*
X0371800Y0049631D01*
X0373048Y0052645D01*
X0375355Y0054952D01*
X0378369Y0056200D01*
X0387631Y0056200D01*
X0387800Y0056130D01*
X0387800Y0059870D01*
X0387631Y0059800D01*
X0378369Y0059800D01*
X0375355Y0061048D01*
X0373048Y0063355D01*
X0371800Y0066369D01*
X0371800Y0069631D01*
X0373048Y0072645D01*
X0375355Y0074952D01*
X0378369Y0076200D01*
X0387631Y0076200D01*
X0387800Y0076130D01*
X0387800Y0088993D01*
X0386937Y0088495D01*
X0384343Y0087800D01*
X0381657Y0087800D01*
X0379063Y0088495D01*
X0376737Y0089838D01*
X0374838Y0091737D01*
X0373495Y0094063D01*
X0372800Y0096657D01*
X0372800Y0099343D01*
X0373495Y0101937D01*
X0374838Y0104263D01*
X0376737Y0106162D01*
X0379063Y0107505D01*
X0381657Y0108200D01*
X0384343Y0108200D01*
X0386937Y0107505D01*
X0387800Y0107007D01*
X0387800Y0168850D01*
X0385663Y0166712D01*
X0386500Y0164691D01*
X0386500Y0161309D01*
X0385206Y0158185D01*
X0382815Y0155794D01*
X0379691Y0154500D01*
X0376309Y0154500D01*
X0373185Y0155794D01*
X0370794Y0158185D01*
X0369500Y0161309D01*
X0369500Y0164691D01*
X0370337Y0166712D01*
X0364600Y0172450D01*
X0364600Y0183550D01*
X0368850Y0187800D01*
X0289024Y0187800D01*
X0290061Y0187202D01*
X0292202Y0185061D01*
X0293716Y0182439D01*
X0294499Y0179514D01*
X0294499Y0176486D01*
X0293716Y0173561D01*
X0292202Y0170939D01*
X0290061Y0168798D01*
X0287439Y0167284D01*
X0292200Y0170937D02*
X0310400Y0170937D01*
X0314188Y0174936D02*
X0294084Y0174936D01*
X0294499Y0178934D02*
X0364600Y0178934D01*
X0364600Y0174936D02*
X0351812Y0174936D01*
X0355600Y0170937D02*
X0366112Y0170937D01*
X0370111Y0166939D02*
X0355600Y0166939D01*
X0353688Y0162940D02*
X0369500Y0162940D01*
X0370481Y0158942D02*
X0340422Y0158942D01*
X0342450Y0154943D02*
X0375239Y0154943D01*
X0380761Y0154943D02*
X0387800Y0154943D01*
X0387800Y0150945D02*
X0342450Y0150945D01*
X0340311Y0146946D02*
X0387800Y0146946D01*
X0387800Y0142948D02*
X0303800Y0142948D01*
X0305600Y0141148D02*
X0301148Y0145600D01*
X0294852Y0145600D01*
X0290400Y0141148D01*
X0290400Y0134852D01*
X0294852Y0130400D01*
X0301148Y0130400D01*
X0305600Y0134852D01*
X0305600Y0141148D01*
X0305600Y0138949D02*
X0387800Y0138949D01*
X0387800Y0134951D02*
X0351797Y0134951D01*
X0351148Y0135600D02*
X0344852Y0135600D01*
X0340400Y0131148D01*
X0340400Y0124852D01*
X0342252Y0123000D01*
X0340400Y0121148D01*
X0340400Y0114852D01*
X0344852Y0110400D01*
X0351148Y0110400D01*
X0355600Y0114852D01*
X0355600Y0121148D01*
X0353748Y0123000D01*
X0355600Y0124852D01*
X0355600Y0131148D01*
X0351148Y0135600D01*
X0344203Y0134951D02*
X0321797Y0134951D01*
X0321148Y0135600D02*
X0314852Y0135600D01*
X0310400Y0131148D01*
X0310400Y0124852D01*
X0311052Y0124200D01*
X0309157Y0122305D01*
X0308000Y0119512D01*
X0308000Y0116488D01*
X0309157Y0113695D01*
X0309852Y0113000D01*
X0309157Y0112305D01*
X0308000Y0109512D01*
X0308000Y0106488D01*
X0309157Y0103695D01*
X0309852Y0103000D01*
X0309157Y0102305D01*
X0308000Y0099512D01*
X0308000Y0096488D01*
X0309157Y0093695D01*
X0311295Y0091557D01*
X0314088Y0090400D01*
X0321912Y0090400D01*
X0324705Y0091557D01*
X0326843Y0093695D01*
X0328000Y0096488D01*
X0328000Y0099512D01*
X0326843Y0102305D01*
X0326148Y0103000D01*
X0326843Y0103695D01*
X0328000Y0106488D01*
X0328000Y0109512D01*
X0326843Y0112305D01*
X0326148Y0113000D01*
X0326843Y0113695D01*
X0328000Y0116488D01*
X0328000Y0119512D01*
X0326843Y0122305D01*
X0324948Y0124200D01*
X0325600Y0124852D01*
X0325600Y0131148D01*
X0321148Y0135600D01*
X0314203Y0134951D02*
X0305600Y0134951D01*
X0301700Y0130952D02*
X0310400Y0130952D01*
X0310400Y0126954D02*
X0288000Y0126954D01*
X0287403Y0130952D02*
X0294300Y0130952D01*
X0290400Y0134951D02*
X0287363Y0134951D01*
X0288000Y0138949D02*
X0290400Y0138949D01*
X0292200Y0142948D02*
X0286200Y0142948D01*
X0288000Y0146946D02*
X0325689Y0146946D01*
X0323550Y0150945D02*
X0287406Y0150945D01*
X0287360Y0154943D02*
X0323550Y0154943D01*
X0279851Y0166939D02*
X0192687Y0166939D01*
X0191148Y0165400D02*
X0195600Y0169852D01*
X0195600Y0176148D01*
X0191148Y0180600D01*
X0184852Y0180600D01*
X0180400Y0176148D01*
X0180400Y0169852D01*
X0184296Y0165956D01*
X0181417Y0165956D01*
X0178493Y0164745D01*
X0176255Y0162507D01*
X0175044Y0159583D01*
X0175044Y0156417D01*
X0176255Y0153493D01*
X0176749Y0153000D01*
X0176255Y0152507D01*
X0175044Y0149583D01*
X0175044Y0146417D01*
X0175383Y0145600D01*
X0169852Y0145600D01*
X0165400Y0141148D01*
X0165400Y0134852D01*
X0169852Y0130400D01*
X0175383Y0130400D01*
X0175044Y0129583D01*
X0175044Y0126417D01*
X0176255Y0123493D01*
X0178493Y0121255D01*
X0181417Y0120044D01*
X0184296Y0120044D01*
X0180400Y0116148D01*
X0180400Y0109852D01*
X0184852Y0105400D01*
X0191148Y0105400D01*
X0195600Y0109852D01*
X0195600Y0116148D01*
X0191148Y0120600D01*
X0185925Y0120600D01*
X0187507Y0121255D01*
X0189745Y0123493D01*
X0190956Y0126417D01*
X0190956Y0129583D01*
X0189745Y0132507D01*
X0189251Y0133000D01*
X0189745Y0133493D01*
X0190956Y0136417D01*
X0190956Y0139583D01*
X0189745Y0142507D01*
X0189251Y0143000D01*
X0189745Y0143493D01*
X0190956Y0146417D01*
X0190956Y0149583D01*
X0189745Y0152507D01*
X0189251Y0153000D01*
X0189745Y0153493D01*
X0190956Y0156417D01*
X0190956Y0159583D01*
X0189745Y0162507D01*
X0187507Y0164745D01*
X0185925Y0165400D01*
X0191148Y0165400D01*
X0189311Y0162940D02*
X0206689Y0162940D01*
X0206255Y0162507D02*
X0205044Y0159583D01*
X0205044Y0156417D01*
X0206255Y0153493D01*
X0208493Y0151255D01*
X0211417Y0150044D01*
X0214583Y0150044D01*
X0217507Y0151255D01*
X0219745Y0153493D01*
X0220956Y0156417D01*
X0220956Y0159583D01*
X0219745Y0162507D01*
X0217507Y0164745D01*
X0214583Y0165956D01*
X0211417Y0165956D01*
X0208493Y0164745D01*
X0206255Y0162507D01*
X0205044Y0158942D02*
X0190956Y0158942D01*
X0190345Y0154943D02*
X0205655Y0154943D01*
X0209243Y0150945D02*
X0190392Y0150945D01*
X0190956Y0146946D02*
X0225400Y0146946D01*
X0225400Y0144852D02*
X0229852Y0140400D01*
X0236148Y0140400D01*
X0239300Y0143552D01*
X0239852Y0143000D01*
X0239157Y0142305D01*
X0238000Y0139512D01*
X0238000Y0136488D01*
X0239157Y0133695D01*
X0239852Y0133000D01*
X0239300Y0132448D01*
X0236148Y0135600D01*
X0229852Y0135600D01*
X0225400Y0131148D01*
X0225400Y0124852D01*
X0229852Y0120400D01*
X0236148Y0120400D01*
X0239300Y0123552D01*
X0241295Y0121557D01*
X0244088Y0120400D01*
X0251912Y0120400D01*
X0254705Y0121557D01*
X0256843Y0123695D01*
X0258000Y0126488D01*
X0258000Y0129512D01*
X0256843Y0132305D01*
X0256148Y0133000D01*
X0256843Y0133695D01*
X0258000Y0136488D01*
X0258000Y0139512D01*
X0256843Y0142305D01*
X0256148Y0143000D01*
X0256843Y0143695D01*
X0258000Y0146488D01*
X0258000Y0149512D01*
X0256843Y0152305D01*
X0254705Y0154443D01*
X0251912Y0155600D01*
X0244088Y0155600D01*
X0241295Y0154443D01*
X0239300Y0152448D01*
X0236148Y0155600D01*
X0229852Y0155600D01*
X0225400Y0151148D01*
X0225400Y0144852D01*
X0227304Y0142948D02*
X0219303Y0142948D01*
X0219745Y0142507D02*
X0217507Y0144745D01*
X0214583Y0145956D01*
X0211417Y0145956D01*
X0208493Y0144745D01*
X0206255Y0142507D01*
X0205044Y0139583D01*
X0205044Y0136417D01*
X0206255Y0133493D01*
X0206749Y0133000D01*
X0206255Y0132507D01*
X0205044Y0129583D01*
X0205044Y0126417D01*
X0206255Y0123493D01*
X0208493Y0121255D01*
X0211417Y0120044D01*
X0214583Y0120044D01*
X0217507Y0121255D01*
X0219745Y0123493D01*
X0220956Y0126417D01*
X0220956Y0129583D01*
X0219745Y0132507D01*
X0219251Y0133000D01*
X0219745Y0133493D01*
X0220956Y0136417D01*
X0220956Y0139583D01*
X0219745Y0142507D01*
X0220956Y0138949D02*
X0238000Y0138949D01*
X0238637Y0134951D02*
X0236797Y0134951D01*
X0229203Y0134951D02*
X0220348Y0134951D01*
X0220388Y0130952D02*
X0225400Y0130952D01*
X0225400Y0126954D02*
X0220956Y0126954D01*
X0219207Y0122955D02*
X0227297Y0122955D01*
X0238703Y0122955D02*
X0239897Y0122955D01*
X0256103Y0122955D02*
X0269897Y0122955D01*
X0268209Y0118957D02*
X0192791Y0118957D01*
X0195600Y0114958D02*
X0265400Y0114958D01*
X0265400Y0110960D02*
X0195600Y0110960D01*
X0192709Y0106961D02*
X0268291Y0106961D01*
X0277709Y0106961D02*
X0308000Y0106961D01*
X0308600Y0110960D02*
X0280600Y0110960D01*
X0280600Y0114958D02*
X0308634Y0114958D01*
X0308000Y0118957D02*
X0277791Y0118957D01*
X0286103Y0122955D02*
X0309807Y0122955D01*
X0325600Y0126954D02*
X0340400Y0126954D01*
X0340400Y0130952D02*
X0325600Y0130952D01*
X0326193Y0122955D02*
X0342207Y0122955D01*
X0340400Y0118957D02*
X0328000Y0118957D01*
X0327366Y0114958D02*
X0340400Y0114958D01*
X0344292Y0110960D02*
X0327400Y0110960D01*
X0328000Y0106961D02*
X0378121Y0106961D01*
X0374087Y0102963D02*
X0326185Y0102963D01*
X0328000Y0098964D02*
X0372800Y0098964D01*
X0373253Y0094966D02*
X0327369Y0094966D01*
X0323281Y0090967D02*
X0375608Y0090967D01*
X0387800Y0086969D02*
X0309779Y0086969D01*
X0310600Y0086148D02*
X0306148Y0090600D01*
X0301348Y0090600D01*
X0305600Y0094852D01*
X0305600Y0101148D01*
X0301148Y0105600D01*
X0294852Y0105600D01*
X0290400Y0101148D01*
X0290400Y0094852D01*
X0294852Y0090400D01*
X0299652Y0090400D01*
X0295400Y0086148D01*
X0295400Y0079852D01*
X0299852Y0075400D01*
X0306148Y0075400D01*
X0310600Y0079852D01*
X0310600Y0086148D01*
X0310600Y0082970D02*
X0387800Y0082970D01*
X0387800Y0078972D02*
X0327776Y0078972D01*
X0326148Y0080600D02*
X0319852Y0080600D01*
X0315400Y0076148D01*
X0315400Y0069852D01*
X0315800Y0069452D01*
X0315800Y0068348D01*
X0314705Y0069443D01*
X0311912Y0070600D01*
X0304088Y0070600D01*
X0301295Y0069443D01*
X0299157Y0067305D01*
X0298000Y0064512D01*
X0298000Y0061488D01*
X0299157Y0058695D01*
X0299852Y0058000D01*
X0299157Y0057305D01*
X0298000Y0054512D01*
X0298000Y0051488D01*
X0299157Y0048695D01*
X0299852Y0048000D01*
X0299157Y0047305D01*
X0298000Y0044512D01*
X0298000Y0041488D01*
X0299157Y0038695D01*
X0299852Y0038000D01*
X0299157Y0037305D01*
X0298000Y0034512D01*
X0298000Y0031488D01*
X0299157Y0028695D01*
X0301295Y0026557D01*
X0304088Y0025400D01*
X0304652Y0025400D01*
X0300400Y0021148D01*
X0300400Y0014852D01*
X0304852Y0010400D01*
X0311148Y0010400D01*
X0315600Y0014852D01*
X0315600Y0021148D01*
X0311348Y0025400D01*
X0311912Y0025400D01*
X0314705Y0026557D01*
X0316700Y0028552D01*
X0319852Y0025400D01*
X0326148Y0025400D01*
X0330600Y0029852D01*
X0330600Y0036148D01*
X0326148Y0040600D01*
X0319852Y0040600D01*
X0316700Y0037448D01*
X0316148Y0038000D01*
X0316843Y0038695D01*
X0318000Y0041488D01*
X0318000Y0044512D01*
X0317466Y0045800D01*
X0319432Y0045800D01*
X0322078Y0046896D01*
X0327078Y0051896D01*
X0329104Y0053922D01*
X0330200Y0056568D01*
X0330200Y0069452D01*
X0330600Y0069852D01*
X0330600Y0076148D01*
X0326148Y0080600D01*
X0318224Y0078972D02*
X0309720Y0078972D01*
X0315400Y0074973D02*
X0176782Y0074973D01*
X0176459Y0074650D02*
X0181350Y0079541D01*
X0181350Y0086459D01*
X0176459Y0091350D01*
X0169541Y0091350D01*
X0164650Y0086459D01*
X0164650Y0079541D01*
X0169541Y0074650D01*
X0176459Y0074650D01*
X0180780Y0078972D02*
X0203156Y0078972D01*
X0203525Y0078603D02*
X0206429Y0077400D01*
X0209571Y0077400D01*
X0212475Y0078603D01*
X0213000Y0079128D01*
X0213525Y0078603D01*
X0216429Y0077400D01*
X0219571Y0077400D01*
X0222475Y0078603D01*
X0224697Y0080825D01*
X0225500Y0082763D01*
X0226303Y0080825D01*
X0228525Y0078603D01*
X0231429Y0077400D01*
X0234571Y0077400D01*
X0237475Y0078603D01*
X0238000Y0079128D01*
X0238525Y0078603D01*
X0241429Y0077400D01*
X0244571Y0077400D01*
X0247475Y0078603D01*
X0249697Y0080825D01*
X0250500Y0082763D01*
X0251303Y0080825D01*
X0253525Y0078603D01*
X0256429Y0077400D01*
X0259571Y0077400D01*
X0262475Y0078603D01*
X0263000Y0079128D01*
X0263525Y0078603D01*
X0266429Y0077400D01*
X0269571Y0077400D01*
X0272475Y0078603D01*
X0274697Y0080825D01*
X0275900Y0083729D01*
X0275900Y0092271D01*
X0274697Y0095175D01*
X0272475Y0097397D01*
X0269571Y0098600D01*
X0266429Y0098600D01*
X0263525Y0097397D01*
X0263000Y0096872D01*
X0262475Y0097397D01*
X0259571Y0098600D01*
X0256429Y0098600D01*
X0253525Y0097397D01*
X0251303Y0095175D01*
X0250500Y0093237D01*
X0249697Y0095175D01*
X0247475Y0097397D01*
X0244571Y0098600D01*
X0241429Y0098600D01*
X0238525Y0097397D01*
X0238000Y0096872D01*
X0237475Y0097397D01*
X0234571Y0098600D01*
X0231429Y0098600D01*
X0228525Y0097397D01*
X0226303Y0095175D01*
X0225500Y0093237D01*
X0224697Y0095175D01*
X0222475Y0097397D01*
X0219571Y0098600D01*
X0216429Y0098600D01*
X0213525Y0097397D01*
X0213000Y0096872D01*
X0212475Y0097397D01*
X0209571Y0098600D01*
X0206429Y0098600D01*
X0203525Y0097397D01*
X0201303Y0095175D01*
X0200100Y0092271D01*
X0200100Y0083729D01*
X0201303Y0080825D01*
X0203525Y0078603D01*
X0200414Y0082970D02*
X0181350Y0082970D01*
X0180840Y0086969D02*
X0200100Y0086969D01*
X0200100Y0090967D02*
X0176841Y0090967D01*
X0169159Y0090967D02*
X0056841Y0090967D01*
X0056459Y0091350D02*
X0054192Y0091350D01*
X0054200Y0091369D01*
X0054200Y0094631D01*
X0052952Y0097645D01*
X0050645Y0099952D01*
X0047631Y0101200D01*
X0038369Y0101200D01*
X0035355Y0099952D01*
X0033048Y0097645D01*
X0031800Y0094631D01*
X0031800Y0091369D01*
X0033048Y0088355D01*
X0033403Y0088000D01*
X0033048Y0087645D01*
X0031800Y0084631D01*
X0031800Y0081369D01*
X0033048Y0078355D01*
X0035355Y0076048D01*
X0038369Y0074800D01*
X0047631Y0074800D01*
X0048876Y0075316D01*
X0049541Y0074650D01*
X0056459Y0074650D01*
X0061350Y0079541D01*
X0061350Y0086459D01*
X0056459Y0091350D01*
X0054061Y0094966D02*
X0201216Y0094966D01*
X0183291Y0106961D02*
X0008200Y0106961D01*
X0008200Y0102963D02*
X0292215Y0102963D01*
X0290400Y0098964D02*
X0051632Y0098964D01*
X0034368Y0098964D02*
X0008200Y0098964D01*
X0008200Y0094966D02*
X0031939Y0094966D01*
X0031966Y0090967D02*
X0008200Y0090967D01*
X0008200Y0086969D02*
X0032768Y0086969D01*
X0031800Y0082970D02*
X0008200Y0082970D01*
X0008200Y0078972D02*
X0032793Y0078972D01*
X0037951Y0074973D02*
X0008200Y0074973D01*
X0008200Y0070975D02*
X0078316Y0070975D01*
X0076823Y0069482D02*
X0073135Y0063963D01*
X0070595Y0057830D01*
X0069300Y0051319D01*
X0069300Y0044681D01*
X0070595Y0038170D01*
X0073135Y0032037D01*
X0076823Y0026517D01*
X0081517Y0021823D01*
X0087037Y0018135D01*
X0093170Y0015595D01*
X0099681Y0014300D01*
X0106319Y0014300D01*
X0112830Y0015595D01*
X0118963Y0018135D01*
X0124482Y0021823D01*
X0129176Y0026517D01*
X0132865Y0032037D01*
X0135405Y0038170D01*
X0136700Y0044681D01*
X0136700Y0051319D01*
X0135405Y0057830D01*
X0132865Y0063963D01*
X0129176Y0069482D01*
X0124482Y0074176D01*
X0118963Y0077865D01*
X0112830Y0080405D01*
X0106319Y0081700D01*
X0099681Y0081700D01*
X0093170Y0080405D01*
X0087037Y0077865D01*
X0081517Y0074176D01*
X0076823Y0069482D01*
X0075149Y0066976D02*
X0008200Y0066976D01*
X0008200Y0062978D02*
X0072727Y0062978D01*
X0071071Y0058979D02*
X0008200Y0058979D01*
X0008200Y0054981D02*
X0070028Y0054981D01*
X0069300Y0050982D02*
X0048157Y0050982D01*
X0053226Y0046984D02*
X0069300Y0046984D01*
X0069637Y0042985D02*
X0054200Y0042985D01*
X0053213Y0038987D02*
X0070433Y0038987D01*
X0071913Y0034988D02*
X0054052Y0034988D01*
X0054043Y0030990D02*
X0073835Y0030990D01*
X0076507Y0026991D02*
X0051588Y0026991D01*
X0053190Y0022993D02*
X0080348Y0022993D01*
X0085752Y0018994D02*
X0073815Y0018994D01*
X0076350Y0014996D02*
X0096184Y0014996D01*
X0109816Y0014996D02*
X0179650Y0014996D01*
X0179650Y0010997D02*
X0076350Y0010997D01*
X0068000Y0013000D02*
X0053000Y0013000D01*
X0043000Y0023000D01*
X0043000Y0033000D01*
X0031957Y0030990D02*
X0008200Y0030990D01*
X0008200Y0034988D02*
X0031948Y0034988D01*
X0032787Y0038987D02*
X0008200Y0038987D01*
X0008200Y0042985D02*
X0031800Y0042985D01*
X0032774Y0046984D02*
X0008200Y0046984D01*
X0008200Y0050982D02*
X0037843Y0050982D01*
X0048049Y0074973D02*
X0049218Y0074973D01*
X0056782Y0074973D02*
X0082710Y0074973D01*
X0089710Y0078972D02*
X0060780Y0078972D01*
X0061350Y0082970D02*
X0164650Y0082970D01*
X0165160Y0086969D02*
X0060840Y0086969D01*
X0008200Y0110960D02*
X0180400Y0110960D01*
X0180400Y0114958D02*
X0166767Y0114958D01*
X0166459Y0114650D02*
X0171350Y0119541D01*
X0171350Y0126459D01*
X0166459Y0131350D01*
X0159541Y0131350D01*
X0154650Y0126459D01*
X0154650Y0119541D01*
X0159541Y0114650D01*
X0166459Y0114650D01*
X0159233Y0114958D02*
X0046767Y0114958D01*
X0046459Y0114650D02*
X0051350Y0119541D01*
X0051350Y0126459D01*
X0050200Y0127609D01*
X0050200Y0130864D01*
X0050645Y0131048D01*
X0052952Y0133355D01*
X0054200Y0136369D01*
X0054200Y0139631D01*
X0052952Y0142645D01*
X0052597Y0143000D01*
X0052952Y0143355D01*
X0054200Y0146369D01*
X0054200Y0149631D01*
X0052952Y0152645D01*
X0050645Y0154952D01*
X0047631Y0156200D01*
X0038369Y0156200D01*
X0035355Y0154952D01*
X0033048Y0152645D01*
X0031800Y0149631D01*
X0031800Y0146369D01*
X0033048Y0143355D01*
X0033403Y0143000D01*
X0033048Y0142645D01*
X0031800Y0139631D01*
X0031800Y0136369D01*
X0033048Y0133355D01*
X0035355Y0131048D01*
X0035800Y0130864D01*
X0035800Y0127609D01*
X0034650Y0126459D01*
X0034650Y0119541D01*
X0039541Y0114650D01*
X0046459Y0114650D01*
X0050766Y0118957D02*
X0155234Y0118957D01*
X0154650Y0122955D02*
X0051350Y0122955D01*
X0050855Y0126954D02*
X0155145Y0126954D01*
X0159144Y0130952D02*
X0050413Y0130952D01*
X0053613Y0134951D02*
X0165400Y0134951D01*
X0165400Y0138949D02*
X0054200Y0138949D01*
X0052649Y0142948D02*
X0167200Y0142948D01*
X0175044Y0146946D02*
X0054200Y0146946D01*
X0053656Y0150945D02*
X0175608Y0150945D01*
X0175655Y0154943D02*
X0050653Y0154943D01*
X0035347Y0154943D02*
X0008200Y0154943D01*
X0008200Y0150945D02*
X0032344Y0150945D01*
X0031800Y0146946D02*
X0008200Y0146946D01*
X0008200Y0142948D02*
X0033351Y0142948D01*
X0031800Y0138949D02*
X0008200Y0138949D01*
X0008200Y0134951D02*
X0032387Y0134951D01*
X0035587Y0130952D02*
X0008200Y0130952D01*
X0008200Y0126954D02*
X0035145Y0126954D01*
X0034650Y0122955D02*
X0008200Y0122955D01*
X0008200Y0118957D02*
X0035234Y0118957D01*
X0039233Y0114958D02*
X0008200Y0114958D01*
X0043000Y0123000D02*
X0043000Y0138000D01*
X0008200Y0158942D02*
X0175044Y0158942D01*
X0176689Y0162940D02*
X0008200Y0162940D01*
X0008200Y0166939D02*
X0014851Y0166939D01*
X0021149Y0166939D02*
X0149851Y0166939D01*
X0156149Y0166939D02*
X0183313Y0166939D01*
X0180400Y0170937D02*
X0162200Y0170937D01*
X0164084Y0174936D02*
X0180400Y0174936D01*
X0183186Y0178934D02*
X0164499Y0178934D01*
X0163430Y0182933D02*
X0272570Y0182933D01*
X0271501Y0178934D02*
X0192813Y0178934D01*
X0195600Y0174936D02*
X0271916Y0174936D01*
X0273800Y0170937D02*
X0195600Y0170937D01*
X0219311Y0162940D02*
X0269792Y0162940D01*
X0268000Y0158942D02*
X0220956Y0158942D01*
X0220345Y0154943D02*
X0229195Y0154943D01*
X0225400Y0150945D02*
X0216757Y0150945D01*
X0206697Y0142948D02*
X0189303Y0142948D01*
X0190956Y0138949D02*
X0205044Y0138949D01*
X0205652Y0134951D02*
X0190348Y0134951D01*
X0190388Y0130952D02*
X0205612Y0130952D01*
X0205044Y0126954D02*
X0190956Y0126954D01*
X0189207Y0122955D02*
X0206793Y0122955D01*
X0183209Y0118957D02*
X0170766Y0118957D01*
X0171350Y0122955D02*
X0176793Y0122955D01*
X0175044Y0126954D02*
X0170855Y0126954D01*
X0169300Y0130952D02*
X0166856Y0130952D01*
X0224784Y0094966D02*
X0226216Y0094966D01*
X0249784Y0094966D02*
X0251216Y0094966D01*
X0274784Y0094966D02*
X0290400Y0094966D01*
X0294285Y0090967D02*
X0275900Y0090967D01*
X0275900Y0086969D02*
X0296221Y0086969D01*
X0295400Y0082970D02*
X0275586Y0082970D01*
X0272844Y0078972D02*
X0296280Y0078972D01*
X0315400Y0070975D02*
X0127684Y0070975D01*
X0130851Y0066976D02*
X0201036Y0066976D01*
X0201255Y0067507D02*
X0200044Y0064583D01*
X0200044Y0061417D01*
X0201255Y0058493D01*
X0203493Y0056255D01*
X0206417Y0055044D01*
X0209583Y0055044D01*
X0212507Y0056255D01*
X0214745Y0058493D01*
X0215956Y0061417D01*
X0215956Y0064583D01*
X0214745Y0067507D01*
X0212507Y0069745D01*
X0209583Y0070956D01*
X0206417Y0070956D01*
X0203493Y0069745D01*
X0201255Y0067507D01*
X0200044Y0062978D02*
X0133273Y0062978D01*
X0134929Y0058979D02*
X0201054Y0058979D01*
X0214946Y0058979D02*
X0221054Y0058979D01*
X0221255Y0058493D02*
X0223493Y0056255D01*
X0226417Y0055044D01*
X0229583Y0055044D01*
X0232507Y0056255D01*
X0233000Y0056749D01*
X0233493Y0056255D01*
X0236417Y0055044D01*
X0239583Y0055044D01*
X0242507Y0056255D01*
X0244745Y0058493D01*
X0245956Y0061417D01*
X0245956Y0064583D01*
X0244745Y0067507D01*
X0242507Y0069745D01*
X0239583Y0070956D01*
X0236417Y0070956D01*
X0233493Y0069745D01*
X0233000Y0069251D01*
X0232507Y0069745D01*
X0229583Y0070956D01*
X0226417Y0070956D01*
X0223493Y0069745D01*
X0221255Y0067507D01*
X0220044Y0064583D01*
X0220044Y0061417D01*
X0221255Y0058493D01*
X0220044Y0062978D02*
X0215956Y0062978D01*
X0214964Y0066976D02*
X0221036Y0066976D01*
X0222844Y0078972D02*
X0228156Y0078972D01*
X0237844Y0078972D02*
X0238156Y0078972D01*
X0247844Y0078972D02*
X0253156Y0078972D01*
X0262844Y0078972D02*
X0263156Y0078972D01*
X0244964Y0066976D02*
X0299021Y0066976D01*
X0298000Y0062978D02*
X0245956Y0062978D01*
X0244946Y0058979D02*
X0270831Y0058979D01*
X0271295Y0059443D02*
X0269157Y0057305D01*
X0268000Y0054512D01*
X0268000Y0051488D01*
X0269157Y0048695D01*
X0269852Y0048000D01*
X0269157Y0047305D01*
X0268000Y0044512D01*
X0268000Y0041488D01*
X0269157Y0038695D01*
X0269852Y0038000D01*
X0269157Y0037305D01*
X0268000Y0034512D01*
X0268000Y0031488D01*
X0269157Y0028695D01*
X0271295Y0026557D01*
X0274088Y0025400D01*
X0281912Y0025400D01*
X0284705Y0026557D01*
X0286843Y0028695D01*
X0288000Y0031488D01*
X0288000Y0034512D01*
X0286843Y0037305D01*
X0286148Y0038000D01*
X0286843Y0038695D01*
X0288000Y0041488D01*
X0288000Y0044512D01*
X0286843Y0047305D01*
X0286148Y0048000D01*
X0286843Y0048695D01*
X0288000Y0051488D01*
X0288000Y0054512D01*
X0286843Y0057305D01*
X0284705Y0059443D01*
X0281912Y0060600D01*
X0274088Y0060600D01*
X0271295Y0059443D01*
X0268194Y0054981D02*
X0135972Y0054981D01*
X0136700Y0050982D02*
X0268210Y0050982D01*
X0269024Y0046984D02*
X0170279Y0046984D01*
X0170061Y0047202D02*
X0167439Y0048716D01*
X0164514Y0049499D01*
X0161486Y0049499D01*
X0158561Y0048716D01*
X0155939Y0047202D01*
X0153798Y0045061D01*
X0152284Y0042439D01*
X0151501Y0039514D01*
X0151501Y0036486D01*
X0152284Y0033561D01*
X0153798Y0030939D01*
X0155939Y0028798D01*
X0158561Y0027284D01*
X0161486Y0026501D01*
X0164514Y0026501D01*
X0167439Y0027284D01*
X0170061Y0028798D01*
X0172202Y0030939D01*
X0173716Y0033561D01*
X0174499Y0036486D01*
X0174499Y0039514D01*
X0173716Y0042439D01*
X0172202Y0045061D01*
X0170061Y0047202D01*
X0173400Y0042985D02*
X0268000Y0042985D01*
X0269036Y0038987D02*
X0262761Y0038987D01*
X0261148Y0040600D02*
X0254852Y0040600D01*
X0250400Y0036148D01*
X0250400Y0029852D01*
X0254852Y0025400D01*
X0261148Y0025400D01*
X0265600Y0029852D01*
X0265600Y0036148D01*
X0261148Y0040600D01*
X0253239Y0038987D02*
X0243265Y0038987D01*
X0242507Y0039745D02*
X0244745Y0037507D01*
X0245956Y0034583D01*
X0245956Y0031417D01*
X0244745Y0028493D01*
X0242507Y0026255D01*
X0239583Y0025044D01*
X0236704Y0025044D01*
X0240600Y0021148D01*
X0240600Y0014852D01*
X0236148Y0010400D01*
X0229852Y0010400D01*
X0225400Y0014852D01*
X0225400Y0021148D01*
X0229296Y0025044D01*
X0226417Y0025044D01*
X0223493Y0026255D01*
X0223000Y0026749D01*
X0222507Y0026255D01*
X0219583Y0025044D01*
X0216417Y0025044D01*
X0213493Y0026255D01*
X0213000Y0026749D01*
X0212507Y0026255D01*
X0209583Y0025044D01*
X0206417Y0025044D01*
X0203493Y0026255D01*
X0201255Y0028493D01*
X0200044Y0031417D01*
X0200044Y0034583D01*
X0201255Y0037507D01*
X0203493Y0039745D01*
X0206417Y0040956D01*
X0209583Y0040956D01*
X0212507Y0039745D01*
X0213000Y0039251D01*
X0213493Y0039745D01*
X0216417Y0040956D01*
X0219583Y0040956D01*
X0222507Y0039745D01*
X0223000Y0039251D01*
X0223493Y0039745D01*
X0226417Y0040956D01*
X0229583Y0040956D01*
X0232507Y0039745D01*
X0233000Y0039251D01*
X0233493Y0039745D01*
X0236417Y0040956D01*
X0239583Y0040956D01*
X0242507Y0039745D01*
X0245788Y0034988D02*
X0250400Y0034988D01*
X0250400Y0030990D02*
X0245779Y0030990D01*
X0243242Y0026991D02*
X0253261Y0026991D01*
X0262739Y0026991D02*
X0270861Y0026991D01*
X0268207Y0030990D02*
X0265600Y0030990D01*
X0265600Y0034988D02*
X0268197Y0034988D01*
X0285139Y0026991D02*
X0300861Y0026991D01*
X0302245Y0022993D02*
X0238755Y0022993D01*
X0240600Y0018994D02*
X0300400Y0018994D01*
X0300400Y0014996D02*
X0240600Y0014996D01*
X0236745Y0010997D02*
X0304255Y0010997D01*
X0311745Y0010997D02*
X0333765Y0010997D01*
X0331900Y0014996D02*
X0315600Y0014996D01*
X0315600Y0018994D02*
X0331501Y0018994D01*
X0332604Y0022993D02*
X0313755Y0022993D01*
X0315139Y0026991D02*
X0318261Y0026991D01*
X0327739Y0026991D02*
X0335729Y0026991D01*
X0330600Y0030990D02*
X0387800Y0030990D01*
X0387800Y0034988D02*
X0330600Y0034988D01*
X0327761Y0038987D02*
X0387800Y0038987D01*
X0373418Y0042985D02*
X0318000Y0042985D01*
X0318239Y0038987D02*
X0316964Y0038987D01*
X0322166Y0046984D02*
X0371800Y0046984D01*
X0372360Y0050982D02*
X0326164Y0050982D01*
X0329543Y0054981D02*
X0375425Y0054981D01*
X0387800Y0058979D02*
X0330200Y0058979D01*
X0323000Y0058000D02*
X0323000Y0073000D01*
X0330600Y0074973D02*
X0375407Y0074973D01*
X0372357Y0070975D02*
X0330600Y0070975D01*
X0330200Y0066976D02*
X0371800Y0066976D01*
X0373426Y0062978D02*
X0330200Y0062978D01*
X0323000Y0058000D02*
X0318000Y0053000D01*
X0308000Y0053000D01*
X0298210Y0050982D02*
X0287790Y0050982D01*
X0287806Y0054981D02*
X0298194Y0054981D01*
X0299039Y0058979D02*
X0285169Y0058979D01*
X0286976Y0046984D02*
X0299024Y0046984D01*
X0298000Y0042985D02*
X0288000Y0042985D01*
X0286964Y0038987D02*
X0299036Y0038987D01*
X0298197Y0034988D02*
X0287803Y0034988D01*
X0287793Y0030990D02*
X0298207Y0030990D01*
X0350271Y0026991D02*
X0387800Y0026991D01*
X0377245Y0022993D02*
X0353396Y0022993D01*
X0354499Y0018994D02*
X0375400Y0018994D01*
X0375400Y0014996D02*
X0354100Y0014996D01*
X0352235Y0010997D02*
X0379255Y0010997D01*
X0386745Y0010997D02*
X0387800Y0010997D01*
X0229255Y0010997D02*
X0196350Y0010997D01*
X0196350Y0014996D02*
X0225400Y0014996D01*
X0225400Y0018994D02*
X0194742Y0018994D01*
X0195600Y0022993D02*
X0227245Y0022993D01*
X0202758Y0026991D02*
X0194757Y0026991D01*
X0200221Y0030990D02*
X0172231Y0030990D01*
X0174098Y0034988D02*
X0200212Y0034988D01*
X0202735Y0038987D02*
X0174499Y0038987D01*
X0155721Y0046984D02*
X0136700Y0046984D01*
X0136363Y0042985D02*
X0152600Y0042985D01*
X0151501Y0038987D02*
X0135567Y0038987D01*
X0134087Y0034988D02*
X0151902Y0034988D01*
X0153769Y0030990D02*
X0132165Y0030990D01*
X0129493Y0026991D02*
X0159656Y0026991D01*
X0166344Y0026991D02*
X0181243Y0026991D01*
X0180400Y0022993D02*
X0125652Y0022993D01*
X0120248Y0018994D02*
X0181258Y0018994D01*
X0169218Y0074973D02*
X0123290Y0074973D01*
X0116290Y0078972D02*
X0165220Y0078972D01*
X0212844Y0078972D02*
X0213156Y0078972D01*
X0301715Y0090967D02*
X0312719Y0090967D01*
X0308631Y0094966D02*
X0305600Y0094966D01*
X0305600Y0098964D02*
X0308000Y0098964D01*
X0309815Y0102963D02*
X0303785Y0102963D01*
X0268000Y0126954D02*
X0258000Y0126954D01*
X0257403Y0130952D02*
X0268597Y0130952D01*
X0268637Y0134951D02*
X0257363Y0134951D01*
X0258000Y0138949D02*
X0268000Y0138949D01*
X0269800Y0142948D02*
X0256200Y0142948D01*
X0258000Y0146946D02*
X0268000Y0146946D01*
X0268594Y0150945D02*
X0257406Y0150945D01*
X0253497Y0154943D02*
X0268640Y0154943D01*
X0242503Y0154943D02*
X0236805Y0154943D01*
X0238696Y0142948D02*
X0239800Y0142948D01*
X0293430Y0182933D02*
X0364600Y0182933D01*
X0367981Y0186932D02*
X0290331Y0186932D01*
X0275669Y0186932D02*
X0160331Y0186932D01*
X0145669Y0186932D02*
X0025331Y0186932D01*
X0028430Y0182933D02*
X0142570Y0182933D01*
X0141501Y0178934D02*
X0029499Y0178934D01*
X0029084Y0174936D02*
X0141916Y0174936D01*
X0143800Y0170937D02*
X0027200Y0170937D01*
X0008800Y0170937D02*
X0008200Y0170937D01*
X0008200Y0026991D02*
X0010729Y0026991D01*
X0025271Y0026991D02*
X0034412Y0026991D01*
X0035800Y0022993D02*
X0028396Y0022993D01*
X0029499Y0018994D02*
X0036866Y0018994D01*
X0040822Y0014996D02*
X0029100Y0014996D01*
X0027235Y0010997D02*
X0044821Y0010997D01*
X0351708Y0110960D02*
X0387800Y0110960D01*
X0387800Y0114958D02*
X0380797Y0114958D01*
X0379691Y0114500D02*
X0382815Y0115794D01*
X0385206Y0118185D01*
X0386500Y0121309D01*
X0386500Y0124691D01*
X0385206Y0127815D01*
X0382815Y0130206D01*
X0379691Y0131500D01*
X0376309Y0131500D01*
X0373185Y0130206D01*
X0370794Y0127815D01*
X0369500Y0124691D01*
X0369500Y0121309D01*
X0370794Y0118185D01*
X0373185Y0115794D01*
X0376309Y0114500D01*
X0379691Y0114500D01*
X0375203Y0114958D02*
X0355600Y0114958D01*
X0355600Y0118957D02*
X0370474Y0118957D01*
X0369500Y0122955D02*
X0353793Y0122955D01*
X0355600Y0126954D02*
X0370437Y0126954D01*
X0374987Y0130952D02*
X0355600Y0130952D01*
X0381013Y0130952D02*
X0387800Y0130952D01*
X0387800Y0126954D02*
X0385563Y0126954D01*
X0386500Y0122955D02*
X0387800Y0122955D01*
X0387800Y0118957D02*
X0385526Y0118957D01*
X0385519Y0158942D02*
X0387800Y0158942D01*
X0387800Y0162940D02*
X0386500Y0162940D01*
X0385889Y0166939D02*
X0387800Y0166939D01*
M02*
